<svg width="44" height="44" viewBox="0 0 44 44" fill="none" xmlns="http://www.w3.org/2000/svg">
<rect width="44" height="44" rx="22" fill="#D9D9D9"/>
<path d="M11.1055 21.1659L18.4389 13.8326C18.6364 13.6417 18.9011 13.5361 19.1758 13.5385C19.4504 13.5409 19.7132 13.6511 19.9074 13.8453C20.1017 14.0396 20.2118 14.3023 20.2142 14.577C20.2166 14.8517 20.111 15.1163 19.9202 15.3139L14.3751 20.8589H32.7986C33.0764 20.8589 33.3429 20.9693 33.5394 21.1658C33.7358 21.3623 33.8462 21.6287 33.8462 21.9066C33.8462 22.1844 33.7358 22.4509 33.5394 22.6473C33.3429 22.8438 33.0764 22.9542 32.7986 22.9542H14.3751L19.9202 28.4992C20.0202 28.5959 20.1001 28.7115 20.155 28.8393C20.2099 28.9671 20.2388 29.1046 20.24 29.2437C20.2412 29.3828 20.2147 29.5207 20.162 29.6495C20.1093 29.7782 20.0315 29.8952 19.9332 29.9935C19.8348 30.0919 19.7178 30.1697 19.5891 30.2224C19.4603 30.2751 19.3224 30.3016 19.1833 30.3004C19.0442 30.2991 18.9067 30.2702 18.7789 30.2153C18.6511 30.1604 18.5355 30.0806 18.4389 29.9806L11.1055 22.6472C10.9091 22.4508 10.7988 22.1844 10.7988 21.9066C10.7988 21.6288 10.9091 21.3624 11.1055 21.1659Z" fill="#01AC66"/>
</svg>
