<svg width="300" height="300" viewBox="0 0 300 300" fill="none" xmlns="http://www.w3.org/2000/svg">
<path d="M157.452 70.092C158.116 69.8568 158.759 69.5637 159.372 69.216C160.227 68.6892 160.968 67.997 161.552 67.18C162.137 66.363 162.552 65.4376 162.774 64.458C162.916 63.7859 162.973 63.0984 162.942 62.412C162.87 61.6549 162.721 60.9071 162.498 60.18C162.084 58.626 161.634 56.934 161.148 55.128L157.872 42.804L153.912 27.864C153.558 26.52 153.198 25.158 152.826 23.766C152.531 22.375 151.849 21.0957 150.858 20.076C149.835 19.0349 148.522 18.3262 147.09 18.042C145.602 17.7858 144.073 17.9244 142.656 18.444L103.35 28.8C101.668 29.2484 100.202 30.2825 99.2158 31.716C98.2375 33.1276 97.8008 34.8446 97.9858 36.552C98.1098 37.4031 98.2983 38.2436 98.5498 39.066C98.7718 39.912 98.9878 40.752 99.2098 41.586C99.6498 43.258 100.084 44.916 100.512 46.56C102.234 53.16 103.89 59.478 105.474 65.526C106.274 68.55 107.042 71.494 107.778 74.358C108.026 75.7635 108.632 77.0816 109.536 78.186C110.428 79.2334 111.6 80.0054 112.914 80.412C115.542 81.336 118.152 80.082 120.642 79.542L127.842 77.676L149.508 72.084L155.406 70.59L156.942 70.218C157.29 70.134 157.47 70.11 157.47 70.11C157.47 70.11 157.302 70.176 156.96 70.272L155.436 70.704L149.562 72.3L127.962 78.072L120.762 79.974L116.946 80.976C115.544 81.3317 114.072 81.2887 112.693 80.852C111.315 80.4152 110.086 79.6019 109.146 78.504C108.186 77.3468 107.539 75.9627 107.268 74.484C106.512 71.628 105.736 68.686 104.94 65.658C103.35 59.616 101.676 53.28 99.9478 46.704C99.5158 45.06 99.0798 43.402 98.6398 41.73C98.4158 40.898 98.1938 40.058 97.9738 39.21C97.7073 38.3608 97.5067 37.4922 97.3738 36.612C97.1746 34.7674 97.6453 32.9126 98.6998 31.386C99.7679 29.8174 101.365 28.6863 103.2 28.2L142.512 17.904C144.009 17.3692 145.62 17.2328 147.186 17.508C148.715 17.8273 150.114 18.5986 151.2 19.722C152.247 20.8097 152.968 22.1691 153.282 23.646C153.642 25.032 154.002 26.4 154.35 27.744C155.748 33.144 157.05 38.124 158.238 42.702C159.426 47.28 160.494 51.408 161.436 55.044C161.904 56.864 162.34 58.552 162.744 60.108C162.969 60.8557 163.121 61.6232 163.2 62.4C163.226 63.11 163.157 63.8202 162.996 64.512C162.758 65.5112 162.321 66.4518 161.709 67.2769C161.097 68.1019 160.325 68.7943 159.438 69.312C158.981 69.582 158.494 69.7956 157.986 69.948C157.632 70.056 157.452 70.092 157.452 70.092Z" fill="#E0E0E0"/>
<path d="M141.648 54.7321C141.53 54.785 141.407 54.8272 141.282 54.8581L140.226 55.1581L136.29 56.2441L123.09 59.7961H122.982L122.934 59.6941L122.022 57.6001L115.632 42.2881L115.728 42.3301L112.2 43.2301L111.258 43.4581L110.928 43.5241C111.03 43.478 111.137 43.4419 111.246 43.4161L112.176 43.1461L115.692 42.1741H115.764V42.2401L122.238 57.5221L123.126 59.6401L122.976 59.5621L136.224 56.0941L140.178 55.0861L141.246 54.8281C141.377 54.7851 141.511 54.753 141.648 54.7321Z" fill="#E0E0E0"/>
<path d="M121.47 55.956C121.47 55.956 121.5 55.956 121.56 55.92L121.83 55.836L122.892 55.536L126.864 54.444L140.592 50.754L140.502 50.886C140.298 48.486 140.076 45.852 139.842 43.14C139.728 41.748 139.608 40.38 139.5 39.072L139.662 39.186L123.462 43.434L118.662 44.67L117.366 44.994L117.03 45.066C116.952 45.066 116.916 45.066 116.91 45.066L117.024 45.03L117.354 44.928L118.644 44.562L123.444 43.254L139.644 38.922L139.788 38.88V39.03C139.896 40.338 140.01 41.706 140.13 43.098C140.358 45.81 140.574 48.426 140.778 50.85V50.952H140.676L126.924 54.552L122.934 55.572L121.86 55.836L121.584 55.902L121.47 55.956Z" fill="#E0E0E0"/>
<path d="M129 63.4861C129 63.4861 128.934 63.3301 128.778 63.0721C128.559 62.7135 128.228 62.4372 127.836 62.2861C127.552 62.1773 127.246 62.1401 126.945 62.1778C126.643 62.2154 126.356 62.3268 126.108 62.5021C125.922 62.6608 125.77 62.8558 125.661 63.0752C125.553 63.2946 125.491 63.5338 125.478 63.7781C125.465 64.0224 125.502 64.2668 125.587 64.4963C125.672 64.7257 125.803 64.9355 125.972 65.1127C126.14 65.29 126.343 65.431 126.568 65.5271C126.793 65.6232 127.035 65.6725 127.28 65.6719C127.525 65.6713 127.767 65.6208 127.991 65.5235C128.216 65.4262 128.418 65.2842 128.586 65.1061C128.85 64.7814 129 64.3785 129.012 63.9601C129.012 63.6601 128.976 63.4921 129.012 63.4861C129.089 63.6321 129.128 63.795 129.126 63.9601C129.15 64.4122 129.014 64.8583 128.742 65.2201C128.535 65.4963 128.261 65.7148 127.946 65.8546C127.631 65.9943 127.285 66.0506 126.942 66.0181C126.523 65.9827 126.125 65.8186 125.802 65.5482C125.48 65.2778 125.249 64.9144 125.141 64.5078C125.034 64.1011 125.054 63.671 125.2 63.2765C125.346 62.882 125.611 62.5424 125.958 62.3041C126.237 62.1109 126.561 61.9924 126.9 61.9599C127.238 61.9273 127.579 61.9818 127.89 62.1181C128.305 62.3001 128.644 62.6203 128.85 63.0241C128.937 63.1633 128.989 63.3221 129 63.4861Z" fill="#E0E0E0"/>
<path d="M141 60.3121C141 60.3121 140.934 60.1501 140.778 59.8981C140.557 59.541 140.227 59.2651 139.836 59.1121C139.526 58.9935 139.19 58.9627 138.864 59.0232C138.538 59.0836 138.235 59.233 137.988 59.4547C137.742 59.6764 137.561 59.9619 137.467 60.2797C137.372 60.5975 137.367 60.9352 137.452 61.2556C137.538 61.5761 137.71 61.8667 137.95 62.0956C138.19 62.3244 138.488 62.4825 138.812 62.5525C139.136 62.6224 139.473 62.6015 139.786 62.4921C140.099 62.3826 140.376 62.1888 140.586 61.9321C140.85 61.6051 141 61.2003 141.012 60.7801C141.012 60.4861 140.976 60.3181 141.012 60.3121C141.089 60.4556 141.129 60.6168 141.126 60.7801C141.151 61.2323 141.015 61.679 140.742 62.0401C140.538 62.3117 140.269 62.5274 139.959 62.6669C139.65 62.8065 139.31 62.8654 138.972 62.8381C138.553 62.8024 138.156 62.638 137.834 62.3675C137.513 62.0969 137.283 61.7335 137.177 61.3272C137.07 60.9208 137.092 60.4914 137.24 60.098C137.387 59.7046 137.652 59.3665 138 59.1301C138.28 58.9369 138.605 58.8184 138.945 58.7859C139.284 58.7534 139.625 58.8078 139.938 58.9441C140.354 59.1244 140.694 59.445 140.898 59.8501C140.969 59.9935 141.004 60.1521 141 60.3121Z" fill="#E0E0E0"/>
<path d="M250.008 285.39C236.538 278.79 231.354 263.418 229.656 249.168C229.374 246.768 228.726 244.368 229.536 242.088C230.346 239.808 232.746 238.014 235.02 238.686C236.904 239.244 237.984 241.17 239.22 242.706C240.881 244.759 243.088 246.302 245.586 247.158C247.212 247.704 249.15 247.896 250.512 246.846C252.384 245.406 252.186 242.55 251.814 240.198L249.708 227.052C249.33 224.7 248.952 222.3 249.342 219.954C249.732 217.608 251.028 215.286 253.17 214.314C255.312 213.342 258.282 214.206 259.104 216.438C259.452 217.362 259.41 218.388 259.626 219.354C259.842 220.32 260.46 221.334 261.426 221.466C262.392 221.598 263.226 220.782 263.826 219.984C265.89 217.236 267.066 213.924 268.14 210.642C269.214 207.36 270.228 204.012 272.034 201.084C273.84 198.156 276.57 195.63 279.912 194.916C283.254 194.202 287.166 195.738 288.528 198.912C289.89 202.086 288.504 205.764 286.8 208.8C284.29 213.265 281.148 217.343 277.47 220.908C276.81 221.55 276.09 222.24 275.94 223.158C275.67 224.802 277.398 226.158 279.024 226.41C280.872 226.728 282.744 226.254 284.616 226.182C286.488 226.11 288.594 226.62 289.554 228.252C290.892 230.508 289.266 233.34 287.538 235.296C284.078 239.205 279.972 242.491 275.4 245.01C273.762 245.904 272.028 246.744 270.816 248.172C269.604 249.6 269.094 251.85 270.216 253.38C271.338 254.91 273.558 255.108 275.322 254.49C277.086 253.872 278.556 252.642 280.182 251.724C283.23 250.002 287.442 249.582 289.944 252.06C291.588 253.692 292.098 256.23 291.744 258.528C291.39 260.826 290.286 262.92 289.068 264.888C284.82 271.77 278.94 277.686 271.836 281.442C264.732 285.198 257.886 286.974 250.014 285.39" fill="#F5F5F5"/>
<path d="M252.3 275.94C253.465 267.853 255.093 259.84 257.178 251.94C257.718 249.836 258.252 247.76 258.78 245.712C259.308 243.672 259.836 241.65 260.472 239.712C261.703 235.974 263.14 232.306 264.774 228.726C266.31 225.3 267.894 222.126 269.394 219.126C270.894 216.126 272.364 213.402 273.804 210.954C276.051 207.079 278.603 203.389 281.436 199.92C282.432 198.72 283.236 197.766 283.794 197.148L284.43 196.446C284.498 196.362 284.574 196.286 284.658 196.218C284.599 196.308 284.535 196.394 284.466 196.476L283.866 197.208C283.338 197.844 282.552 198.786 281.574 200.034C278.799 203.535 276.292 207.239 274.074 211.116C272.658 213.564 271.218 216.318 269.724 219.294C268.23 222.27 266.67 225.48 265.146 228.894C263.529 232.466 262.107 236.124 260.886 239.85C260.256 241.788 259.74 243.792 259.206 245.85C258.672 247.908 258.15 249.972 257.61 252.072C255.53 259.955 253.891 267.947 252.702 276.012" fill="#E0E0E0"/>
<path d="M260.592 239.676C260.432 239.368 260.303 239.044 260.208 238.71C259.986 238.074 259.692 237.15 259.35 236.004C258.654 233.712 257.808 230.514 256.884 227.004C255.96 223.494 255.084 220.296 254.34 218.004C253.98 216.864 253.68 215.946 253.464 215.31C253.332 214.989 253.236 214.655 253.176 214.314C253.36 214.608 253.511 214.922 253.626 215.25C253.89 215.85 254.226 216.774 254.634 217.902C255.438 220.164 256.38 223.338 257.304 226.872C258.228 230.406 259.02 233.508 259.644 235.92C259.932 237.006 260.178 237.924 260.376 238.656C260.487 238.987 260.559 239.329 260.592 239.676Z" fill="#E0E0E0"/>
<path d="M289.986 229.368C289.597 229.514 289.195 229.624 288.786 229.698C288.024 229.884 286.914 230.154 285.552 230.526C282.828 231.252 279.096 232.386 275.034 233.814C270.972 235.242 267.36 236.712 264.774 237.846C263.478 238.398 262.44 238.878 261.72 239.202C261.355 239.394 260.974 239.553 260.58 239.676C260.915 239.444 261.27 239.243 261.642 239.076C262.344 238.698 263.364 238.176 264.642 237.582C267.204 236.382 270.816 234.864 274.884 233.424C278.356 232.184 281.888 231.123 285.468 230.244C286.842 229.908 287.964 229.686 288.744 229.554C289.151 229.453 289.567 229.391 289.986 229.368Z" fill="#E0E0E0"/>
<path d="M252.6 275.328C252.497 275.229 252.408 275.116 252.336 274.992L251.646 273.978C251.046 273.09 250.236 271.788 249.246 270.168C247.254 266.928 244.638 262.368 241.824 257.286C239.01 252.204 236.424 247.626 234.522 244.344L232.2 240.468C231.954 240.048 231.75 239.7 231.6 239.412C231.518 239.292 231.454 239.16 231.408 239.022C231.508 239.126 231.597 239.241 231.672 239.364C231.858 239.64 232.086 239.964 232.356 240.378C232.956 241.26 233.772 242.562 234.756 244.182C236.748 247.428 239.358 251.982 242.178 257.07C244.998 262.158 247.578 266.73 249.48 270.006L251.766 273.882L252.366 274.944C252.46 275.061 252.539 275.19 252.6 275.328Z" fill="#E0E0E0"/>
<path d="M290.802 256.2C290.69 256.295 290.565 256.371 290.43 256.428L289.32 256.998L285.228 259.056C281.778 260.796 277.032 263.256 271.794 265.968C266.556 268.68 261.786 271.104 258.294 272.772C256.548 273.606 255.132 274.266 254.142 274.704L252.996 275.202C252.866 275.267 252.729 275.315 252.588 275.346C252.702 275.255 252.827 275.178 252.96 275.118L254.07 274.548L258.156 272.49C261.612 270.756 266.358 268.29 271.596 265.578C276.834 262.866 281.604 260.442 285.09 258.774C286.836 257.94 288.258 257.28 289.248 256.842L290.388 256.35C290.518 256.282 290.658 256.231 290.802 256.2Z" fill="#E0E0E0"/>
<path d="M19.482 68.2141C19.482 68.2141 12.792 69.84 18.102 84.324C23.412 98.808 27.414 106.146 27.414 106.146C27.414 106.146 28.266 109.464 25.536 109.632C22.806 109.8 17.058 108.156 15.474 111.27C13.83 114.504 15.906 117.996 20.55 121.398C25.194 124.8 35.094 132.63 36 133.344C36.906 134.058 37.644 135.63 35.808 136.044C33.972 136.458 20.598 136.236 20.874 142.584C21.15 148.932 35.634 156.294 37.2 157.128C38.766 157.962 39.078 158.706 38.838 159.594C38.598 160.482 34.104 159.984 30.3 160.074C26.496 160.164 22.098 160.944 22.566 164.598C23.034 168.252 31.11 176.778 52.662 181.554L62.79 183.114L69.39 175.188C82.428 157.38 82.872 145.638 80.79 142.584C78.708 139.53 74.916 141.852 71.994 144.294C69.072 146.736 66.03 150.072 65.262 149.568C64.494 149.064 64.236 148.296 64.86 146.634C65.484 144.972 71.526 129.882 67.542 124.926C63.558 119.97 53.658 128.964 52.002 129.87C50.346 130.776 49.878 129.066 50.076 127.962C50.274 126.858 52.548 114.426 53.796 108.804C55.044 103.182 54.288 99.2041 50.922 97.8481C47.676 96.5461 44.436 101.586 42.276 103.248C40.116 104.91 38.568 101.868 38.568 101.868C38.568 101.868 36.732 93.7141 31.164 79.3261C25.596 64.9381 19.35 68.25 19.35 68.25" fill="#019E5E"/>
<path d="M63.0298 185.568C58.9798 174.99 52.0978 156.06 46.1038 139.842C40.1098 123.624 34.6738 108.954 30.6778 98.352C28.6798 93.066 27.0778 88.752 25.9318 85.806C25.3798 84.33 24.9418 83.184 24.6478 82.392C24.5038 82.008 24.3958 81.714 24.3178 81.498C24.2398 81.282 24.2158 81.192 24.2158 81.192C24.2158 81.192 24.2638 81.288 24.3478 81.486L24.7078 82.368L26.0518 85.758C27.2098 88.704 28.8658 92.958 30.8878 98.274C34.9378 108.852 40.4098 123.516 46.4038 139.734C52.3978 155.952 59.2438 174.888 63.2398 185.49" fill="#E0E0E0"/>
<path d="M23.436 113.898C23.6733 113.97 23.9026 114.067 24.12 114.186C24.552 114.384 25.17 114.69 25.92 115.074C27.432 115.848 29.52 116.976 31.764 118.254L37.536 121.554L39.288 122.544C39.5013 122.65 39.7025 122.779 39.888 122.928C39.6496 122.865 39.4198 122.772 39.204 122.652C38.772 122.454 38.154 122.148 37.404 121.752C35.892 120.96 33.84 119.814 31.584 118.53L25.8 115.272L24.042 114.294C23.8234 114.189 23.6196 114.056 23.436 113.898Z" fill="#E0E0E0"/>
<path d="M40.7037 122.364C40.6257 122.322 42.7557 117.96 45.4557 112.614C48.1557 107.268 50.4177 102.972 50.4957 103.014C50.5737 103.056 48.4437 107.418 45.7437 112.764C43.0437 118.11 40.7997 122.4 40.7037 122.364Z" fill="#E0E0E0"/>
<path d="M48.7861 147.684C48.9224 147.465 49.0857 147.263 49.2721 147.084L50.6761 145.584C51.8761 144.312 53.4901 142.584 55.2121 140.544C56.9341 138.504 58.4461 136.668 59.5201 135.306L60.7981 133.692C60.9443 133.486 61.1112 133.295 61.2961 133.122C61.187 133.349 61.0543 133.565 60.9001 133.764C60.6241 134.166 60.2221 134.742 59.7001 135.444C58.6681 136.842 57.1921 138.738 55.4581 140.754C53.7241 142.77 52.0681 144.51 50.8381 145.74C50.2381 146.34 49.7221 146.844 49.3621 147.174C49.1874 147.363 48.9944 147.533 48.7861 147.684Z" fill="#E0E0E0"/>
<path d="M31.4761 143.466C31.7113 143.468 31.9452 143.5 32.1721 143.562L34.0381 143.94C35.6041 144.27 37.7701 144.75 40.1581 145.302C42.5461 145.854 44.7061 146.364 46.2601 146.754L48.1021 147.228C48.3314 147.275 48.5548 147.347 48.7681 147.444C48.5349 147.443 48.3029 147.41 48.0781 147.348L46.2001 147C44.6281 146.67 42.4621 146.19 40.0741 145.638C37.6861 145.086 35.5321 144.576 33.9721 144.186L32.1301 143.712C31.9029 143.657 31.6833 143.574 31.4761 143.466Z" fill="#E0E0E0"/>
<path d="M35.772 166.722C36.069 166.743 36.3639 166.787 36.654 166.854L39.054 167.328C41.07 167.742 43.854 168.336 46.914 169.014C49.974 169.692 52.758 170.316 54.756 170.784L57.156 171.384C57.4508 171.442 57.7399 171.527 58.02 171.636C57.7202 171.623 57.4225 171.579 57.132 171.504L54.732 171.03C52.716 170.616 49.932 170.022 46.872 169.344C43.812 168.666 41.004 168 39 167.55L36.6 166.95C36.3168 166.903 36.0393 166.826 35.772 166.722Z" fill="#E0E0E0"/>
<path d="M57.4858 171.348C57.6617 171.08 57.8626 170.828 58.0858 170.598L59.7958 168.63C61.2418 166.962 63.2218 164.658 65.3458 162.03C67.4698 159.402 69.3298 157.014 70.6618 155.262L72.2458 153.186C72.4243 152.923 72.625 152.676 72.8458 152.448C72.7017 152.732 72.5331 153.003 72.3418 153.258C71.9938 153.774 71.4838 154.506 70.8358 155.4C69.5458 157.2 67.7098 159.6 65.5858 162.234C63.4618 164.868 61.4458 167.13 59.9578 168.762C59.2138 169.572 58.6018 170.226 58.1578 170.664C57.9511 170.908 57.7265 171.137 57.4858 171.348Z" fill="#E0E0E0"/>
<path d="M279.084 286.488C279.084 286.578 221.286 286.644 150.006 286.644C78.726 286.644 20.916 286.578 20.916 286.488C20.916 286.398 78.702 286.332 150.006 286.332C221.31 286.332 279.084 286.404 279.084 286.488Z" fill="#263238"/>
<path d="M251.16 39.348H233.76C232.617 39.3779 231.534 39.8596 230.746 40.6875C229.959 41.5154 229.532 42.6218 229.56 43.764V46.92C229.587 48.0622 229.16 49.1686 228.373 49.9965C227.585 50.8244 226.502 51.3061 225.36 51.336H191.43C190.283 51.3077 189.195 50.8266 188.402 49.998C187.609 49.1693 187.177 48.0605 187.2 46.914V43.728C187.222 42.5871 186.794 41.4834 186.007 40.6566C185.221 39.8297 184.14 39.3466 183 39.312H176.88H161.646C158.012 39.312 154.526 40.7548 151.955 43.3233C149.385 45.8919 147.939 49.376 147.936 53.01L147.894 272.712C147.894 276.344 149.336 279.827 151.903 282.396C154.471 284.965 157.954 286.408 161.586 286.41L251.19 286.464C252.989 286.466 254.77 286.113 256.433 285.425C258.096 284.738 259.606 283.73 260.879 282.458C262.152 281.186 263.161 279.676 263.85 278.014C264.539 276.353 264.894 274.571 264.894 272.772L264.936 53.064C264.938 51.2571 264.583 49.4675 263.891 47.7984C263.198 46.1293 262.183 44.6136 260.902 43.3387C259.622 42.0638 258.102 41.0548 256.43 40.3699C254.758 39.685 252.966 39.3377 251.16 39.348Z" fill="white"/>
<path d="M251.16 39.348C251.16 39.348 251.316 39.348 251.628 39.348C252.092 39.3472 252.555 39.3813 253.014 39.45C254.836 39.6796 256.588 40.2931 258.156 41.25C259.318 41.9316 260.37 42.7852 261.276 43.782C262.385 44.9781 263.269 46.3643 263.886 47.874C264.598 49.6403 264.947 51.5319 264.912 53.436C264.912 55.458 264.912 57.636 264.912 59.892C264.912 78.144 264.942 104.55 264.96 137.172C264.978 169.794 264.96 208.656 264.96 251.772V272.304C264.992 273.722 264.816 275.137 264.438 276.504C264.056 277.874 263.465 279.177 262.686 280.368C261.892 281.553 260.932 282.618 259.836 283.53C257.583 285.354 254.816 286.429 251.922 286.602C249.054 286.686 246.198 286.602 243.318 286.638H225.894H190.092H162.534C159.361 286.8 156.223 285.917 153.6 284.124C151.005 282.305 149.102 279.662 148.2 276.624C147.772 275.119 147.58 273.556 147.63 271.992V267.372C147.63 261.228 147.63 255.122 147.63 249.054C147.63 236.934 147.63 224.998 147.63 213.246C147.63 189.768 147.63 167.124 147.63 145.548C147.63 123.972 147.63 103.476 147.63 84.2879C147.63 74.688 147.63 65.436 147.63 56.532C147.63 55.416 147.63 54.306 147.63 53.208C147.63 52.656 147.678 52.098 147.708 51.546C147.738 50.994 147.846 50.448 147.984 49.914C148.479 47.779 149.467 45.7897 150.87 44.106C152.232 42.4863 153.946 41.1991 155.881 40.3423C157.816 39.4855 159.921 39.0818 162.036 39.162H173.976H182.532C183.49 39.1109 184.438 39.3742 185.232 39.912C186.004 40.4552 186.589 41.2245 186.906 42.114C187.169 42.9902 187.263 43.9086 187.182 44.82V46.2C187.168 46.6364 187.182 47.0733 187.224 47.508C187.352 48.3647 187.735 49.1631 188.322 49.8C188.868 50.4398 189.6 50.8929 190.416 51.096C190.818 51.1925 191.232 51.2348 191.646 51.222H197.856H215.916H223.878C224.508 51.222 225.15 51.222 225.744 51.222C226.339 51.1475 226.911 50.9426 227.418 50.622C227.905 50.3128 228.326 49.9095 228.656 49.4355C228.986 48.9616 229.218 48.4266 229.338 47.862C229.437 47.3118 229.473 46.7522 229.446 46.194C229.446 45.642 229.446 45.096 229.446 44.556C229.422 44.0229 229.446 43.4887 229.518 42.96C229.604 42.4459 229.779 41.9506 230.034 41.496C230.519 40.6355 231.283 39.9666 232.2 39.6C233.079 39.3227 234.006 39.2248 234.924 39.312C234.048 39.312 233.124 39.222 232.248 39.606C231.346 39.968 230.597 40.6317 230.13 41.484C229.887 41.9295 229.719 42.4119 229.632 42.912C229.567 43.4333 229.545 43.959 229.566 44.484C229.566 45.024 229.566 45.57 229.566 46.122C229.589 46.6902 229.553 47.2593 229.458 47.82C229.335 48.4047 229.096 48.959 228.756 49.4504C228.416 49.9418 227.982 50.3605 227.478 50.682C226.948 51.009 226.351 51.2139 225.732 51.282C225.096 51.336 224.484 51.282 223.848 51.282H191.646C191.212 51.299 190.778 51.2566 190.356 51.156C189.494 50.9447 188.721 50.4658 188.148 49.788C187.559 49.1116 187.181 48.2771 187.062 47.388C187.024 46.9931 187.01 46.5964 187.02 46.2V44.844C187.094 43.9608 187.003 43.0714 186.75 42.222C186.451 41.38 185.898 40.6521 185.166 40.14C184.411 39.6328 183.512 39.3844 182.604 39.432H162.108C160.033 39.3538 157.968 39.751 156.07 40.5934C154.172 41.4357 152.492 42.7008 151.158 44.292C149.788 45.9418 148.824 47.89 148.344 49.98C148.206 50.502 148.164 51.042 148.068 51.576C147.972 52.11 148.002 52.656 147.996 53.208V56.532C147.996 65.436 147.996 74.688 147.996 84.2879C147.996 103.488 147.996 123.978 147.996 145.548V213.246C147.996 224.982 147.996 236.918 147.996 249.054V271.992C147.944 273.519 148.13 275.046 148.548 276.516C149.435 279.472 151.296 282.041 153.828 283.806C156.385 285.54 159.443 286.384 162.528 286.206H171.78H190.086H225.888H243.336C246.21 286.206 249.09 286.254 251.922 286.17C254.738 285.999 257.431 284.95 259.62 283.17C260.689 282.283 261.625 281.247 262.398 280.092C263.155 278.935 263.729 277.668 264.102 276.336C264.469 275.008 264.641 273.633 264.612 272.256C264.612 270.864 264.612 269.484 264.612 268.098C264.612 262.578 264.612 257.12 264.612 251.724C264.612 208.59 264.654 169.734 264.672 137.124C264.69 104.514 264.732 78.096 264.75 59.844C264.75 57.564 264.75 55.41 264.75 53.388C264.789 51.4994 264.448 49.6223 263.748 47.868C263.14 46.369 262.268 44.9912 261.174 43.8C259.033 41.4412 256.133 39.9082 252.978 39.468C252.521 39.3971 252.06 39.355 251.598 39.342C251.316 39.366 251.16 39.348 251.16 39.348Z" fill="#263238"/>
<path d="M170.034 61.536C170.034 61.59 167.766 61.662 164.976 61.68C162.186 61.698 159.918 61.68 159.918 61.62C159.918 61.56 162.18 61.494 164.976 61.47C167.772 61.446 170.034 61.476 170.034 61.536Z" fill="#263238"/>
<path d="M170.052 64.122C170.052 64.182 167.79 64.248 165 64.272C162.21 64.296 159.942 64.272 159.942 64.206C159.942 64.14 162.204 64.08 164.994 64.056C167.784 64.032 170.052 64.062 170.052 64.122Z" fill="#263238"/>
<path d="M170.076 66.708C170.076 66.768 167.814 66.834 165.018 66.858C162.222 66.882 159.96 66.858 159.96 66.792C159.96 66.726 162.222 66.666 165.018 66.642C167.814 66.618 170.076 66.648 170.076 66.708Z" fill="#263238"/>
<path d="M203.244 230.94H158.214V275.97H203.244V230.94Z" fill="#F5F5F5"/>
<path d="M197.928 256.704C194.262 251.586 186.48 248.082 180.156 249.024C175.032 249.786 170.496 252.168 168.012 257.256C167.845 257.588 167.761 257.955 167.767 258.327C167.773 258.698 167.868 259.063 168.044 259.39C168.221 259.716 168.474 259.996 168.782 260.204C169.089 260.412 169.443 260.543 169.812 260.586C178.349 261.605 186.979 261.577 195.51 260.502C196.824 260.334 198.39 259.968 198.48 258.342C198.488 257.749 198.293 257.171 197.928 256.704Z" fill="#5FAA46"/>
<g opacity="0.5">
<path d="M197.928 256.704C194.262 251.586 186.48 248.082 180.156 249.024C175.032 249.786 170.496 252.168 168.012 257.256" fill="white"/>
</g>
<path d="M177.684 256.446C177.654 256.446 177.39 256.212 177.042 255.732C176.577 255.097 176.246 254.375 176.07 253.608C175.92 252.845 175.855 252.069 175.878 251.292C175.851 250.972 175.877 250.649 175.956 250.338C176.056 250.644 176.104 250.964 176.1 251.286C176.14 252.041 176.23 252.793 176.37 253.536C176.548 254.267 176.835 254.967 177.222 255.612C177.411 255.869 177.566 256.149 177.684 256.446Z" fill="#F5F5F5"/>
<path d="M183.114 256.2C183.024 256.2 183.156 254.748 182.964 252.984C182.772 251.22 182.364 249.834 182.442 249.804C183.324 251.815 183.559 254.05 183.114 256.2Z" fill="#F5F5F5"/>
<path d="M188.73 255.366C188.64 255.33 189.066 254.364 189.168 253.092C189.27 251.82 189.036 250.794 189.126 250.77C189.427 251.513 189.549 252.317 189.48 253.116C189.411 253.914 189.154 254.686 188.73 255.366Z" fill="#F5F5F5"/>
<path d="M203.766 85.3739H158.214V153.66H203.766V85.3739Z" fill="#F5F5F5"/>
<path d="M203.766 158.808H158.214V227.094H203.766V158.808Z" fill="#F5F5F5"/>
<path d="M253.656 145.914H208.104V209.67H253.656V145.914Z" fill="#F5F5F5"/>
<path d="M253.284 214.152H207.732V275.964H253.284V214.152Z" fill="#F5F5F5"/>
<path d="M253.656 85.3739H208.104V141.774H253.656V85.3739Z" fill="#F5F5F5"/>
<path d="M188.148 105.792V124.722C188.148 125.55 187.482 126.408 186.258 127.056C184.618 127.826 182.819 128.2 181.008 128.148H180.978C176.508 128.148 173.838 126.384 173.838 124.722V105.756C173.838 103.908 175.2 101.982 176.568 100.074C177.486 98.802 177.708 96.972 177.768 95.874C177.768 95.748 177.768 95.634 177.768 95.526H177.642C177.38 95.5459 177.12 95.4612 176.92 95.2903C176.72 95.1194 176.595 94.8763 176.574 94.614V93.816C176.594 93.5522 176.717 93.307 176.917 93.1339C177.118 92.9608 177.378 92.8738 177.642 92.892H184.356C184.555 92.8863 184.752 92.9353 184.926 93.0337C185.099 93.132 185.242 93.276 185.34 93.45C185.395 93.5641 185.424 93.6892 185.424 93.816V94.614C185.401 94.8757 185.276 95.1179 185.076 95.2884C184.877 95.459 184.618 95.5443 184.356 95.526H184.2C184.2 95.634 184.2 95.748 184.2 95.874C184.242 96.954 184.464 98.784 185.4 100.074C186.768 101.982 188.124 103.908 188.13 105.756L188.148 105.792Z" fill="#FAFAFA"/>
<path d="M188.148 105.792V105.6C188.132 105.411 188.106 105.222 188.07 105.036C187.909 104.32 187.642 103.633 187.278 102.996C186.692 101.983 186.045 101.007 185.34 100.074C184.514 98.7101 184.098 97.1377 184.14 95.544V95.436H184.2C184.436 95.4718 184.678 95.4186 184.877 95.2867C185.077 95.1548 185.22 94.9536 185.28 94.722C185.28 94.482 185.28 94.188 185.28 93.918C185.294 93.7941 185.277 93.6686 185.23 93.5532C185.183 93.4378 185.107 93.3362 185.01 93.258C184.805 93.0933 184.546 93.0099 184.284 93.024H181.578H177.714C177.563 93.0107 177.412 93.0295 177.269 93.0791C177.126 93.1287 176.996 93.2081 176.886 93.312C176.786 93.4165 176.719 93.5479 176.694 93.69C176.684 93.8538 176.684 94.0181 176.694 94.182C176.694 94.35 176.694 94.548 176.694 94.686C176.713 94.8324 176.778 94.969 176.88 95.076C176.992 95.1886 177.127 95.2746 177.277 95.3276C177.426 95.3806 177.586 95.3992 177.744 95.382H177.882V95.532C177.875 96.3064 177.79 97.0783 177.63 97.836C177.474 98.6313 177.166 99.3891 176.724 100.068C175.715 101.351 174.881 102.764 174.246 104.268C174.11 104.656 174.022 105.059 173.982 105.468C173.982 105.87 173.982 106.314 173.982 106.74V109.344C173.982 111.104 173.982 112.888 173.982 114.696C173.982 117.876 173.982 120.984 173.982 123.984C173.963 124.345 173.98 124.706 174.03 125.064C174.117 125.4 174.288 125.707 174.528 125.958C175.016 126.477 175.609 126.886 176.268 127.158C177.565 127.678 178.945 127.961 180.342 127.992C181.672 128.061 183.005 127.942 184.302 127.638C185.526 127.396 186.65 126.794 187.53 125.91C187.718 125.693 187.861 125.44 187.95 125.166C188.017 124.887 188.041 124.6 188.022 124.314V122.574C188.022 121.434 188.022 120.342 188.022 119.298C188.022 115.14 188.058 111.774 188.07 109.422C188.07 108.27 188.07 107.37 188.07 106.734C188.07 106.098 188.1 105.798 188.1 105.798C188.131 106.109 188.143 106.422 188.136 106.734C188.136 107.37 188.136 108.27 188.166 109.422C188.166 111.774 188.166 115.14 188.214 119.298C188.214 120.342 188.214 121.434 188.214 122.574V124.314C188.237 124.624 188.212 124.935 188.142 125.238C188.044 125.547 187.885 125.832 187.674 126.078C186.762 127.004 185.59 127.632 184.314 127.878C182.993 128.196 181.633 128.323 180.276 128.256C178.836 128.228 177.413 127.939 176.076 127.404C175.377 127.124 174.747 126.696 174.228 126.15C173.956 125.86 173.76 125.508 173.658 125.124C173.6 124.743 173.58 124.357 173.598 123.972C173.598 120.972 173.598 117.864 173.598 114.684C173.598 112.872 173.598 111.088 173.598 109.332V106.728C173.598 106.29 173.598 105.882 173.598 105.432C173.637 104.998 173.73 104.571 173.874 104.16C174.52 102.631 175.369 101.196 176.4 99.894C177.173 98.5708 177.559 97.0576 177.516 95.526L177.66 95.67C177.463 95.6867 177.265 95.6593 177.08 95.5897C176.896 95.5202 176.729 95.4103 176.592 95.268C176.452 95.1189 176.362 94.9303 176.334 94.728C176.334 94.518 176.334 94.368 176.334 94.188C176.322 94.0102 176.322 93.8318 176.334 93.654C176.369 93.4568 176.463 93.2749 176.604 93.132C176.738 93.0012 176.898 92.9004 177.074 92.8362C177.25 92.7721 177.437 92.7461 177.624 92.76H181.488H184.194C184.51 92.7507 184.818 92.855 185.064 93.054C185.183 93.1557 185.277 93.2843 185.338 93.4292C185.398 93.5742 185.424 93.7314 185.412 93.888C185.412 94.17 185.412 94.422 185.412 94.722C185.346 95.0039 185.177 95.2511 184.938 95.4153C184.7 95.5796 184.409 95.6489 184.122 95.61L184.224 95.508C184.166 97.0655 184.558 98.6067 185.352 99.948C186.048 100.896 186.686 101.885 187.26 102.912C187.619 103.561 187.87 104.264 188.004 104.994C188.035 105.183 188.053 105.373 188.058 105.564C188.102 105.633 188.133 105.711 188.148 105.792Z" fill="#263238"/>
<path d="M183.846 95.502C181.851 95.7117 179.84 95.7117 177.846 95.502C179.84 95.2923 181.851 95.2923 183.846 95.502Z" fill="#263238"/>
<path d="M187.547 108.318C187.226 108.161 186.87 108.087 186.513 108.103C186.156 108.118 185.808 108.223 185.502 108.408C184.888 108.781 184.226 109.066 183.534 109.254C182.689 109.332 181.842 109.121 181.134 108.654C180.426 108.193 179.682 107.791 178.907 107.454C178.139 107.193 177.312 107.152 176.522 107.338C175.732 107.524 175.009 107.928 174.438 108.504V124.704C174.438 124.704 175.331 127.47 181.607 127.038C187.883 126.606 187.385 123.834 187.385 123.834L187.547 108.318Z" fill="#5FAA46"/>
<path d="M236.046 237.15V255.924C236.046 256.752 235.386 257.598 234.162 258.246C232.534 259.015 230.747 259.387 228.948 259.332C224.502 259.332 221.85 257.574 221.85 255.924V237.174C221.85 237.174 221.85 237.174 221.85 237.132C221.85 235.296 223.206 233.382 224.562 231.492C225.48 230.226 225.696 228.402 225.762 227.334C225.762 227.208 225.762 227.094 225.762 226.992H225.6C225.338 227.01 225.08 226.925 224.881 226.754C224.683 226.583 224.559 226.341 224.538 226.08V225.288C224.558 225.026 224.681 224.783 224.88 224.612C225.079 224.441 225.338 224.356 225.6 224.376H232.272C232.47 224.369 232.666 224.418 232.838 224.515C233.01 224.612 233.153 224.755 233.25 224.928C233.302 225.041 233.329 225.164 233.328 225.288V226.08C233.308 226.341 233.185 226.583 232.988 226.754C232.79 226.925 232.532 227.01 232.272 226.992H232.146C232.146 227.094 232.146 227.208 232.146 227.334C232.188 228.402 232.404 230.226 233.316 231.492C234.678 233.382 236.022 235.296 236.034 237.132C236.052 237.126 236.046 237.138 236.046 237.15Z" fill="#FAFAFA"/>
<path d="M236.046 237.15C236.05 237.086 236.05 237.022 236.046 236.958C236.033 236.769 236.009 236.58 235.974 236.394C235.813 235.685 235.549 235.003 235.188 234.372C234.607 233.363 233.961 232.393 233.256 231.468C232.434 230.114 232.017 228.552 232.056 226.968V226.854H232.158C232.393 226.889 232.633 226.836 232.83 226.704C233.028 226.572 233.169 226.371 233.226 226.14C233.226 225.906 233.226 225.612 233.226 225.342C233.237 225.219 233.218 225.096 233.171 224.982C233.124 224.868 233.05 224.767 232.956 224.688C232.752 224.526 232.496 224.443 232.236 224.454H229.548H225.708C225.558 224.441 225.408 224.46 225.266 224.509C225.124 224.559 224.994 224.638 224.886 224.742C224.785 224.846 224.718 224.977 224.694 225.12C224.684 225.282 224.684 225.444 224.694 225.606C224.694 225.768 224.694 225.966 224.694 226.104C224.713 226.25 224.778 226.387 224.88 226.494C224.99 226.605 225.124 226.689 225.272 226.741C225.419 226.793 225.576 226.811 225.732 226.794H225.876V226.944C225.869 227.712 225.784 228.478 225.624 229.23C225.47 230.019 225.164 230.771 224.724 231.444C223.719 232.727 222.891 234.14 222.264 235.644C222.127 236.031 222.04 236.435 222.006 236.844C222.006 237.24 222.006 237.684 222.006 238.104C222.006 238.956 222.006 239.82 222.006 240.696V246C222.006 249.162 222.006 252.252 222.006 255.234C221.988 255.591 222.004 255.948 222.054 256.302C222.142 256.637 222.314 256.944 222.552 257.196C223.037 257.713 223.626 258.122 224.28 258.396C225.562 258.9 226.923 259.172 228.3 259.2C229.622 259.269 230.947 259.15 232.236 258.846C233.452 258.609 234.569 258.011 235.44 257.13C235.628 256.915 235.771 256.664 235.86 256.392C235.925 256.115 235.947 255.83 235.926 255.546C235.926 254.946 235.926 254.382 235.926 253.818C235.926 252.684 235.926 251.604 235.926 250.566C235.926 246.432 235.962 243.084 235.974 240.75C235.974 239.604 235.974 238.71 236.004 238.086C236.034 237.462 236.004 237.156 236.004 237.156C236.04 237.465 236.052 237.775 236.04 238.086C236.04 238.686 236.04 239.604 236.04 240.75C236.04 243.084 236.07 246.432 236.094 250.566C236.094 251.604 236.094 252.684 236.094 253.818C236.094 254.382 236.094 254.958 236.094 255.546C236.117 255.854 236.091 256.164 236.016 256.464C235.919 256.77 235.762 257.054 235.554 257.298C234.649 258.221 233.486 258.848 232.218 259.098C230.905 259.415 229.553 259.543 228.204 259.476C226.78 259.446 225.374 259.16 224.052 258.63C223.389 258.345 222.793 257.926 222.3 257.4C222.031 257.111 221.837 256.761 221.736 256.38C221.678 256.003 221.658 255.621 221.676 255.24V238.092C221.676 237.66 221.676 237.252 221.676 236.808C221.716 236.374 221.808 235.947 221.952 235.536C222.593 234.019 223.437 232.596 224.46 231.306C225.224 229.991 225.609 228.489 225.57 226.968L225.708 227.106C225.513 227.122 225.318 227.095 225.135 227.026C224.953 226.958 224.788 226.85 224.652 226.71C224.512 226.562 224.423 226.372 224.4 226.17C224.4 225.966 224.4 225.816 224.4 225.636C224.388 225.458 224.388 225.28 224.4 225.102C224.438 224.907 224.532 224.728 224.67 224.586C224.803 224.456 224.962 224.356 225.137 224.291C225.312 224.227 225.498 224.201 225.684 224.214H229.524H232.212C232.526 224.203 232.833 224.308 233.076 224.508C233.195 224.609 233.289 224.736 233.349 224.88C233.41 225.024 233.435 225.18 233.424 225.336C233.424 225.618 233.424 225.87 233.424 226.164C233.351 226.441 233.181 226.682 232.946 226.845C232.711 227.008 232.425 227.081 232.14 227.052L232.242 226.95C232.186 228.494 232.573 230.022 233.358 231.354C234.055 232.293 234.688 233.277 235.254 234.3C235.611 234.946 235.863 235.644 235.998 236.37C236.03 236.556 236.046 236.745 236.046 236.934C236.064 237.084 236.058 237.15 236.046 237.15Z" fill="#263238"/>
<path d="M231.774 226.92C229.799 227.128 227.809 227.128 225.834 226.92C227.809 226.712 229.799 226.712 231.774 226.92Z" fill="#263238"/>
<path d="M235.452 239.658C235.133 239.5 234.78 239.425 234.424 239.44C234.069 239.454 233.723 239.558 233.418 239.742C232.81 240.113 232.154 240.398 231.468 240.588C230.623 240.664 229.778 240.452 229.068 239.988C228.366 239.525 227.625 239.124 226.854 238.788C226.091 238.53 225.27 238.491 224.486 238.677C223.702 238.862 222.986 239.265 222.42 239.838V255.954C222.42 255.954 223.302 258.708 229.536 258.276C235.77 257.844 235.284 255.09 235.284 255.09L235.452 239.658Z" fill="#5FAA46"/>
<g opacity="0.5">
<path d="M235.452 239.658C235.133 239.5 234.78 239.425 234.424 239.44C234.069 239.454 233.723 239.558 233.418 239.742C232.81 240.113 232.154 240.398 231.468 240.588C230.623 240.664 229.778 240.452 229.068 239.988C228.366 239.525 227.625 239.124 226.854 238.788C226.091 238.53 225.27 238.491 224.486 238.677C223.702 238.862 222.986 239.265 222.42 239.838V255.954C222.42 255.954 223.302 258.708 229.536 258.276C235.77 257.844 235.284 255.09 235.284 255.09L235.452 239.658Z" fill="white"/>
</g>
<path d="M245.814 168.924C245.608 168.84 245.385 168.81 245.165 168.835C244.945 168.86 244.735 168.94 244.554 169.068C244.464 169.128 244.368 169.2 244.278 169.272C241.232 171.524 237.529 172.711 233.742 172.65C226.368 172.65 220.26 168.516 219.168 163.116V162.096C219.177 161.994 219.165 161.891 219.132 161.794C219.099 161.697 219.047 161.607 218.977 161.532C218.908 161.456 218.824 161.396 218.73 161.354C218.637 161.313 218.535 161.292 218.433 161.292C218.33 161.292 218.229 161.313 218.135 161.354C218.041 161.396 217.957 161.456 217.888 161.532C217.819 161.607 217.766 161.697 217.733 161.794C217.701 161.891 217.688 161.994 217.698 162.096V164.952C217.702 165.02 217.716 165.086 217.74 165.15C217.233 166.27 216.965 167.484 216.954 168.714C216.954 174.948 223.554 180.012 231.72 180.012C238.566 180.012 244.32 176.454 246 171.612C246.02 171.591 246.033 171.563 246.036 171.534C246.23 171.148 246.338 170.724 246.354 170.292C246.398 170.036 246.371 169.773 246.276 169.532C246.181 169.291 246.021 169.08 245.814 168.924Z" fill="#5FAA46"/>
<g opacity="0.3">
<path d="M218.616 165.9C218.616 165.9 225.57 181.896 244.416 170.7C244.416 170.7 239.562 175.74 233.232 176.964C227.496 178.062 219 174.828 218.616 165.9Z" fill="black"/>
</g>
<path d="M246.33 169.728C246.216 170.004 245.766 170.082 245.328 169.896C244.89 169.71 244.626 169.332 244.728 169.056C244.83 168.78 245.292 168.708 245.73 168.894C246.168 169.08 246.45 169.452 246.33 169.728Z" fill="#263238"/>
<path d="M253.356 66.6C253.306 66.6087 253.255 66.6087 253.206 66.6H252.78H251.202L245.904 66.648H245.862V66.606C245.82 66.324 245.778 66.006 245.73 65.73C245.364 63.162 245.04 60.87 244.824 59.37H244.854H243.054C243.012 59.3752 242.97 59.3752 242.928 59.37H243.054H243.432H244.842H244.872V59.4C245.094 60.894 245.436 63.186 245.82 65.748C245.862 66.048 245.904 66.348 245.946 66.624L245.898 66.582H251.196H253.35L253.356 66.6Z" fill="#263238"/>
<path d="M245.676 65.1C245.676 65.1 245.676 65.1 245.718 65.1H245.826H246.252H247.848L253.344 65.046L253.296 65.088C253.452 64.158 253.626 63.156 253.8 62.124C253.89 61.59 253.98 61.062 254.07 60.564L254.118 60.624H247.638H245.064C245.034 60.624 245.022 60.624 245.022 60.624H245.202H245.718H247.638L254.118 60.57H254.178V60.63L253.914 62.184C253.734 63.222 253.56 64.224 253.404 65.184V65.22H253.362H247.866H245.694L245.676 65.1Z" fill="#263238"/>
<path d="M247.8 68.6519C247.8 68.6519 247.8 68.5859 247.758 68.4719C247.712 68.3163 247.615 68.1808 247.482 68.0879C247.386 68.0203 247.276 67.9769 247.16 67.9612C247.044 67.9455 246.926 67.9581 246.816 67.9979C246.682 68.0482 246.567 68.138 246.486 68.2554C246.405 68.3728 246.361 68.5122 246.361 68.6549C246.361 68.7977 246.405 68.937 246.486 69.0544C246.567 69.1718 246.682 69.2616 246.816 69.3119C246.926 69.3541 247.045 69.3674 247.161 69.3506C247.278 69.3338 247.388 69.2874 247.482 69.2159C247.612 69.121 247.707 68.9861 247.752 68.8319C247.788 68.7179 247.788 68.6519 247.794 68.6519C247.809 68.7129 247.809 68.7769 247.794 68.8379C247.757 69.0104 247.661 69.165 247.524 69.2759C247.421 69.3561 247.3 69.4096 247.171 69.4316C247.042 69.4536 246.91 69.4434 246.786 69.4019C246.631 69.349 246.496 69.2488 246.4 69.1154C246.305 68.9819 246.253 68.822 246.253 68.6579C246.253 68.4938 246.305 68.3339 246.4 68.2004C246.496 68.067 246.631 67.9668 246.786 67.9139C246.91 67.87 247.043 67.858 247.173 67.8789C247.303 67.8999 247.426 67.9532 247.53 68.0339C247.668 68.1416 247.764 68.2946 247.8 68.4659C247.817 68.5267 247.817 68.5911 247.8 68.6519Z" fill="#263238"/>
<path d="M252.599 68.6219C252.599 68.6219 252.599 68.5559 252.557 68.4479C252.513 68.2917 252.415 68.1558 252.281 68.0639C252.187 67.9949 252.076 67.9506 251.96 67.9349C251.844 67.9192 251.725 67.9326 251.615 67.9739C251.516 68.0055 251.425 68.0588 251.349 68.1299C251.273 68.201 251.214 68.2882 251.175 68.385C251.137 68.4819 251.121 68.5861 251.128 68.69C251.135 68.7939 251.165 68.895 251.216 68.9859C251.267 69.0768 251.337 69.1552 251.422 69.2154C251.507 69.2757 251.604 69.3163 251.707 69.3343C251.81 69.3523 251.915 69.3473 252.015 69.3195C252.116 69.2918 252.209 69.2421 252.287 69.1739C252.418 69.0757 252.514 68.9394 252.563 68.7839C252.593 68.6699 252.593 68.6039 252.599 68.6039C252.615 68.665 252.615 68.7289 252.599 68.7899C252.565 68.9622 252.472 69.117 252.335 69.2279C252.221 69.3183 252.083 69.3749 251.938 69.3913C251.793 69.4078 251.646 69.3835 251.514 69.3212C251.382 69.2589 251.27 69.1611 251.19 69.0386C251.111 68.9162 251.067 68.7739 251.063 68.6279C251.063 68.4645 251.113 68.305 251.207 68.1708C251.3 68.0367 251.432 67.9345 251.585 67.8779C251.709 67.834 251.841 67.8219 251.97 67.8429C252.099 67.8639 252.221 67.9172 252.323 67.9979C252.464 68.1031 252.561 68.2572 252.593 68.4299C252.614 68.4921 252.616 68.5587 252.599 68.6219Z" fill="#263238"/>
<path d="M254.153 61.8451C255.3 61.5976 256.029 60.4674 255.781 59.3208C255.534 58.1742 254.404 57.4452 253.257 57.6927C252.11 57.9402 251.381 59.0704 251.629 60.2171C251.876 61.3637 253.006 62.0926 254.153 61.8451Z" fill="#5FAA46"/>
<path d="M253.968 58.9619V60.5759H253.59V59.2619H253.266V58.9619H253.968Z" fill="white"/>
<path d="M237.312 255.354H175.29C170.69 255.354 166.962 259.083 166.962 263.682V267.678C166.962 272.277 170.69 276.006 175.29 276.006H237.312C241.911 276.006 245.64 272.277 245.64 267.678V263.682C245.64 259.083 241.911 255.354 237.312 255.354Z" fill="#5FAA46"/>
<g opacity="0.3">
<path d="M237.312 255.354H175.29C170.69 255.354 166.962 259.083 166.962 263.682V267.678C166.962 272.277 170.69 276.006 175.29 276.006H237.312C241.911 276.006 245.64 272.277 245.64 267.678V263.682C245.64 259.083 241.911 255.354 237.312 255.354Z" fill="black"/>
</g>
<path d="M234.258 255.354H172.236C167.636 255.354 163.908 259.083 163.908 263.682V267.678C163.908 272.277 167.636 276.006 172.236 276.006H234.258C238.857 276.006 242.586 272.277 242.586 267.678V263.682C242.586 259.083 238.857 255.354 234.258 255.354Z" fill="#5FAA46"/>
<path d="M200.88 264.546C200.88 265.602 200.112 266.244 198.846 266.244H197.646V267.726H196.95V262.842H198.858C200.112 262.842 200.88 263.484 200.88 264.546ZM200.184 264.546C200.184 263.844 199.716 263.448 198.822 263.448H197.622V265.638H198.822C199.716 265.638 200.184 265.242 200.184 264.546Z" fill="white"/>
<path d="M204.774 266.502H202.2L201.666 267.702H200.946L203.16 262.818H203.85L206.064 267.702H205.332L204.774 266.502ZM204.528 265.944L203.478 263.544L202.422 265.944H204.528Z" fill="white"/>
<path d="M208.344 266.034V267.726H207.654V266.022L205.716 262.842H206.46L208.02 265.416L209.592 262.842H210.282L208.344 266.034Z" fill="white"/>
<path d="M182.508 182.046C182.686 180.895 182.634 179.721 182.356 178.591C182.078 177.46 181.58 176.396 180.889 175.459C180.198 174.522 179.328 173.731 178.33 173.131C177.332 172.532 176.225 172.136 175.074 171.966C174.947 171.916 174.808 171.906 174.674 171.936C174.541 171.966 174.42 172.035 174.327 172.134C174.233 172.233 174.171 172.358 174.149 172.493C174.128 172.628 174.146 172.766 174.204 172.89C174.414 175.133 175.329 177.253 176.819 178.943C178.309 180.633 180.296 181.808 182.496 182.298" fill="#455A64"/>
<path d="M170.141 198.336C172.367 202.926 175.541 206.016 179.531 206.166C180.323 206.166 180.923 205.674 181.679 205.626C182.122 205.726 182.548 205.888 182.945 206.106C183.157 206.195 183.382 206.246 183.611 206.256C187.703 206.034 191.195 203.154 193.547 198.336C196.817 191.586 195.809 184.338 191.291 182.136C190.697 181.839 190.076 181.598 189.437 181.416C188.708 181.212 187.951 181.123 187.193 181.152C185.431 181.264 183.697 181.655 182.057 182.31L181.835 182.394C178.163 180.768 175.235 180.762 172.385 182.136C167.867 184.338 166.865 191.586 170.141 198.336Z" fill="#5FAA46"/>
<path d="M170.22 191.502C170.008 191.079 169.881 190.618 169.848 190.146C169.714 189.004 169.851 187.847 170.25 186.769C170.648 185.691 171.296 184.722 172.14 183.942C172.469 183.602 172.865 183.334 173.304 183.156C173.334 183.198 172.884 183.492 172.29 184.098C171.524 184.89 170.931 185.832 170.548 186.865C170.165 187.898 170 188.998 170.064 190.098C170.124 190.968 170.274 191.484 170.22 191.502Z" fill="#FAFAFA"/>
<path d="M171.048 194.706C170.964 194.706 170.82 194.406 170.724 193.998C170.628 193.59 170.622 193.236 170.724 193.212C170.826 193.188 170.952 193.512 171.048 193.926C171.144 194.34 171.132 194.688 171.048 194.706Z" fill="#FAFAFA"/>
<path d="M191.85 171C191.85 171.06 190.998 171.384 189.726 172.146C188.984 172.596 188.276 173.099 187.608 173.652C186.809 174.344 186.07 175.103 185.4 175.92C184.724 176.746 184.122 177.629 183.6 178.56C183.189 179.323 182.836 180.115 182.544 180.93C182.046 182.334 181.902 183.246 181.842 183.234C181.837 183.016 181.862 182.798 181.914 182.586C181.946 182.333 181.996 182.082 182.064 181.836C182.137 181.508 182.227 181.183 182.334 180.864C182.598 180.021 182.937 179.204 183.348 178.422C184.357 176.502 185.745 174.806 187.428 173.436C188.109 172.883 188.835 172.389 189.6 171.96C189.893 171.791 190.196 171.639 190.506 171.504C190.734 171.391 190.968 171.29 191.208 171.204C191.413 171.111 191.629 171.043 191.85 171Z" fill="#263238"/>
<path d="M247.416 108.21C243.75 103.098 235.968 99.5939 229.644 100.536C224.52 101.298 219.984 103.68 217.5 108.768C217.335 109.1 217.252 109.467 217.258 109.838C217.265 110.209 217.36 110.573 217.536 110.9C217.713 111.226 217.965 111.505 218.272 111.714C218.579 111.922 218.931 112.054 219.3 112.098C227.837 113.117 236.467 113.089 244.998 112.014C246.318 111.846 247.878 111.48 247.968 109.854C247.976 109.259 247.781 108.679 247.416 108.21Z" fill="#5FAA46"/>
<path d="M227.172 107.958C227.142 107.958 226.878 107.724 226.53 107.244C226.066 106.609 225.736 105.886 225.558 105.12C225.408 104.358 225.343 103.581 225.366 102.804C225.343 102.482 225.369 102.158 225.444 101.844C225.546 102.149 225.594 102.47 225.588 102.792C225.631 103.549 225.723 104.303 225.864 105.048C226.037 105.781 226.324 106.481 226.716 107.124C226.903 107.381 227.056 107.662 227.172 107.958Z" fill="#263238"/>
<path d="M232.608 107.706C232.512 107.706 232.644 106.254 232.458 104.49C232.272 102.726 231.858 101.34 231.936 101.31C232.421 102.291 232.703 103.361 232.764 104.454C232.928 105.538 232.875 106.643 232.608 107.706Z" fill="#263238"/>
<path d="M238.2 106.878C238.116 106.842 238.536 105.87 238.638 104.598C238.74 103.326 238.506 102.3 238.596 102.282C238.898 103.025 239.019 103.829 238.95 104.628C238.881 105.426 238.624 106.198 238.2 106.878Z" fill="#263238"/>
<g opacity="0.3">
<path d="M231.654 100.866C231.094 101.893 230.879 103.072 231.041 104.231C231.203 105.389 231.733 106.465 232.554 107.298C233.085 105.118 232.763 102.817 231.654 100.866Z" fill="black"/>
</g>
<g opacity="0.3">
<path d="M226.434 107.058C225.852 106.002 225.504 104.834 225.414 103.632C225.42 103.101 225.343 102.573 225.186 102.066C224.555 102.851 224.244 103.845 224.316 104.85C224.401 105.905 224.897 106.885 225.696 107.58C225.815 107.692 225.959 107.774 226.116 107.82C226.195 107.839 226.278 107.834 226.354 107.805C226.43 107.776 226.496 107.725 226.542 107.658C226.65 107.472 226.542 107.244 226.434 107.058Z" fill="black"/>
</g>
<g opacity="0.3">
<path d="M238.71 102.756C238.689 102.546 238.628 102.343 238.53 102.156C238.479 102.065 238.404 101.991 238.312 101.942C238.221 101.893 238.117 101.872 238.014 101.88C237.732 101.928 237.594 102.246 237.51 102.522C237.038 103.706 236.895 104.995 237.096 106.254C237.162 106.536 237.348 106.854 237.642 106.854C237.936 106.854 238.014 106.614 238.116 106.416C238.691 105.288 238.899 104.008 238.71 102.756Z" fill="black"/>
</g>
<path d="M168.888 141.174V141.738H168.474V141.18C168.03 141.169 167.601 141.022 167.244 140.76L167.466 140.256C167.76 140.472 168.109 140.603 168.474 140.634V139.632C167.916 139.494 167.316 139.314 167.316 138.612C167.316 138.102 167.688 137.652 168.474 137.58V136.98H168.888V137.538C169.247 137.555 169.598 137.661 169.908 137.844L169.698 138.354C169.45 138.208 169.174 138.116 168.888 138.084V139.098C169.446 139.23 170.052 139.41 170.052 140.106C170.052 140.652 169.674 141.09 168.888 141.174ZM168.474 139.02V138.126C168.12 138.18 167.964 138.366 167.964 138.582C167.964 138.798 168.18 138.936 168.474 139.02ZM169.41 140.184C169.41 139.938 169.188 139.818 168.888 139.734V140.622C169.254 140.568 169.41 140.4 169.41 140.184Z" fill="#263238"/>
<path d="M173.058 137.616V141.132H172.404V138.162H171.66V137.616H173.058Z" fill="#263238"/>
<path d="M174.558 140.748C174.549 140.9 174.51 141.049 174.444 141.186L174.186 141.894H173.778L173.982 141.12C173.909 141.09 173.847 141.038 173.805 140.971C173.763 140.905 173.743 140.827 173.748 140.748C173.741 140.691 173.746 140.632 173.763 140.577C173.78 140.522 173.809 140.471 173.847 140.428C173.885 140.385 173.932 140.35 173.985 140.326C174.038 140.303 174.095 140.291 174.153 140.291C174.21 140.291 174.267 140.303 174.32 140.326C174.373 140.35 174.42 140.385 174.458 140.428C174.496 140.471 174.525 140.522 174.542 140.577C174.559 140.632 174.565 140.691 174.558 140.748Z" fill="#263238"/>
<path d="M177.54 140.052C177.54 140.652 177.096 141.186 176.148 141.186C175.675 141.193 175.213 141.051 174.828 140.778L175.104 140.268C175.401 140.497 175.766 140.62 176.142 140.616C176.604 140.616 176.886 140.412 176.886 140.076C176.886 139.74 176.664 139.53 175.938 139.53H175.092L175.272 137.616H177.336V138.162H175.8L175.722 138.978H176.058C177.126 138.978 177.54 139.428 177.54 140.052Z" fill="#263238"/>
<path d="M177.918 139.374C177.918 138.216 178.554 137.574 179.388 137.574C180.222 137.574 180.858 138.228 180.858 139.374C180.858 140.52 180.228 141.174 179.388 141.174C178.548 141.174 177.918 140.532 177.918 139.374ZM180.204 139.374C180.204 138.522 179.868 138.132 179.388 138.132C178.908 138.132 178.578 138.522 178.578 139.374C178.578 140.226 178.908 140.616 179.388 140.616C179.868 140.616 180.204 140.22 180.204 139.374Z" fill="#263238"/>
<path d="M195.402 145.614C195.402 145.704 188.952 145.77 181.002 145.77C173.052 145.77 166.602 145.704 166.602 145.614C166.602 145.524 173.052 145.458 181.002 145.458C188.952 145.458 195.402 145.53 195.402 145.614Z" fill="#263238"/>
<path d="M180 147.96C180 148.05 177 148.116 173.31 148.116C169.62 148.116 166.614 148.05 166.614 147.96C166.614 147.87 169.614 147.804 173.31 147.804C177.006 147.804 180 147.876 180 147.96Z" fill="#263238"/>
<path d="M219.39 126.786V127.35H219V126.792C218.568 126.774 218.151 126.63 217.8 126.378L218.022 125.868C218.314 126.09 218.664 126.223 219.03 126.252V125.244C218.472 125.112 217.872 124.926 217.872 124.23C217.872 123.72 218.244 123.27 219.03 123.192V122.628H219.444V123.186C219.804 123.199 220.156 123.304 220.464 123.492L220.254 123.996C220.006 123.85 219.73 123.758 219.444 123.726V124.74C220.002 124.878 220.608 125.052 220.608 125.754C220.554 126.264 220.2 126.708 219.39 126.786ZM218.976 124.638V123.744C218.616 123.798 218.466 123.978 218.466 124.2C218.466 124.422 218.682 124.554 219 124.638H218.976ZM219.912 125.796C219.912 125.55 219.69 125.436 219.39 125.352V126.24C219.756 126.186 219.912 126 219.912 125.796Z" fill="#263238"/>
<path d="M224.892 126.198V126.75H222.294V126.312L223.692 124.986C224.034 124.656 224.094 124.452 224.094 124.254C224.094 123.936 223.872 123.75 223.44 123.75C223.283 123.742 223.128 123.771 222.985 123.834C222.842 123.898 222.716 123.994 222.618 124.116L222.162 123.762C222.321 123.565 222.525 123.408 222.756 123.303C222.988 123.199 223.24 123.151 223.494 123.162C224.262 123.162 224.754 123.546 224.754 124.17C224.747 124.389 224.689 124.603 224.585 124.796C224.481 124.989 224.333 125.154 224.154 125.28L223.212 126.18L224.892 126.198Z" fill="#263238"/>
<path d="M226.122 126.366C226.113 126.516 226.074 126.663 226.008 126.798L225.75 127.506H225.342L225.546 126.738C225.472 126.708 225.41 126.657 225.367 126.59C225.324 126.523 225.303 126.445 225.306 126.366C225.306 126.258 225.349 126.154 225.425 126.078C225.502 126.001 225.606 125.958 225.714 125.958C225.822 125.958 225.926 126.001 226.002 126.078C226.079 126.154 226.122 126.258 226.122 126.366Z" fill="#263238"/>
<path d="M229.146 126.198V126.75H226.548V126.312L227.946 124.986C228.288 124.656 228.348 124.452 228.348 124.254C228.348 123.936 228.126 123.75 227.694 123.75C227.538 123.742 227.382 123.771 227.239 123.834C227.096 123.898 226.97 123.994 226.872 124.116L226.416 123.762C226.576 123.564 226.781 123.406 227.013 123.302C227.246 123.198 227.5 123.15 227.754 123.162C228.516 123.162 229.008 123.546 229.008 124.17C229.001 124.389 228.943 124.603 228.839 124.796C228.735 124.988 228.587 125.154 228.408 125.28L227.466 126.18L229.146 126.198Z" fill="#263238"/>
<path d="M232.08 125.67C232.08 126.27 231.636 126.798 230.688 126.798C230.215 126.808 229.752 126.665 229.368 126.39L229.644 125.886C229.94 126.112 230.303 126.232 230.676 126.228C231.144 126.228 231.42 126.024 231.42 125.694C231.42 125.364 231.204 125.142 230.478 125.142H229.626L229.812 123.228H231.876V123.78H230.364L230.286 124.59H230.622C231.666 124.59 232.08 125.046 232.08 125.67Z" fill="#263238"/>
<path d="M245.904 131.232C245.904 131.316 239.454 131.388 231.504 131.388C223.554 131.388 217.104 131.316 217.104 131.232C217.104 131.148 223.56 131.076 231.504 131.076C239.448 131.076 245.904 131.148 245.904 131.232Z" fill="#263238"/>
<path d="M230.514 133.578C230.514 133.662 227.514 133.734 223.818 133.734C220.122 133.734 217.128 133.662 217.128 133.578C217.128 133.494 220.128 133.422 223.818 133.422C227.508 133.422 230.514 133.494 230.514 133.578Z" fill="#263238"/>
<path d="M167.736 214.2V214.764H167.322V214.2C166.879 214.188 166.45 214.041 166.092 213.78L166.32 213.276C166.611 213.495 166.959 213.626 167.322 213.654V212.652C166.764 212.514 166.17 212.334 166.17 211.638C166.17 211.122 166.542 210.678 167.322 210.6V210.03H167.736V210.6C168.096 210.618 168.446 210.723 168.756 210.906L168.552 211.416C168.301 211.271 168.023 211.179 167.736 211.146V212.16C168.294 212.298 168.9 212.472 168.9 213.168C168.9 213.672 168.528 214.116 167.736 214.2ZM167.322 212.046V211.152C166.968 211.212 166.818 211.392 166.818 211.614C166.818 211.836 167.034 211.956 167.322 212.04V212.046ZM168.258 213.21C168.258 212.964 168.036 212.85 167.736 212.76V213.654C168.102 213.6 168.258 213.42 168.258 213.204V213.21Z" fill="#263238"/>
<path d="M170.688 212.4C170.688 211.242 171.323 210.6 172.157 210.6C172.991 210.6 173.627 211.248 173.627 212.4C173.627 213.552 172.997 214.2 172.157 214.2C171.317 214.2 170.688 213.552 170.688 212.4ZM172.973 212.4C172.973 211.554 172.637 211.158 172.157 211.158C171.677 211.158 171.347 211.554 171.347 212.4C171.347 213.246 171.677 213.642 172.157 213.642C172.637 213.642 172.973 213.246 172.973 212.4Z" fill="#263238"/>
<path d="M174.816 213.774C174.806 213.924 174.768 214.071 174.702 214.206L174.444 214.914H174.042L174.24 214.146C174.168 214.115 174.107 214.062 174.066 213.996C174.024 213.93 174.003 213.852 174.006 213.774C173.999 213.717 174.004 213.658 174.021 213.603C174.039 213.548 174.067 213.497 174.105 213.454C174.144 213.411 174.191 213.376 174.243 213.353C174.296 213.329 174.353 213.317 174.411 213.317C174.469 213.317 174.526 213.329 174.578 213.353C174.631 213.376 174.678 213.411 174.716 213.454C174.755 213.497 174.783 213.548 174.8 213.603C174.818 213.658 174.823 213.717 174.816 213.774Z" fill="#263238"/>
<path d="M177.798 213.072C177.798 213.672 177.354 214.206 176.406 214.206C175.933 214.216 175.47 214.073 175.086 213.798L175.362 213.288C175.657 213.516 176.021 213.639 176.394 213.636C176.862 213.636 177.138 213.432 177.138 213.096C177.138 212.76 176.922 212.55 176.196 212.55H175.344L175.53 210.636H177.6V211.2H176.088L176.01 212.016H176.346C177.384 211.998 177.798 212.448 177.798 213.072Z" fill="#263238"/>
<path d="M178.2 212.4C178.2 211.242 178.836 210.6 179.67 210.6C180.504 210.6 181.14 211.248 181.14 212.4C181.14 213.552 180.51 214.2 179.67 214.2C178.83 214.2 178.2 213.552 178.2 212.4ZM180.486 212.4C180.486 211.554 180.15 211.158 179.67 211.158C179.19 211.158 178.86 211.554 178.86 212.4C178.86 213.246 179.19 213.642 179.67 213.642C180.15 213.642 180.462 213.246 180.462 212.4H180.486Z" fill="#263238"/>
<path d="M194.256 218.64C194.256 218.724 187.8 218.796 179.856 218.796C171.912 218.796 165.456 218.724 165.456 218.64C165.456 218.556 171.906 218.484 179.856 218.484C187.806 218.484 194.256 218.55 194.256 218.64Z" fill="#263238"/>
<path d="M178.86 220.986C178.86 221.07 175.86 221.142 172.17 221.142C168.48 221.142 165.48 221.07 165.48 220.986C165.48 220.902 168.48 220.83 172.17 220.83C175.86 220.83 178.86 220.896 178.86 220.986Z" fill="#263238"/>
<path d="M217.05 195.156V195.72H216.642V195.162C216.197 195.15 215.766 195.004 215.406 194.742L215.634 194.238C215.927 194.458 216.277 194.589 216.642 194.616V193.614C216.084 193.476 215.484 193.296 215.484 192.6C215.484 192.084 215.856 191.64 216.642 191.562V190.992H217.05V191.55C217.41 191.567 217.76 191.672 218.07 191.856L217.866 192.366C217.616 192.22 217.338 192.128 217.05 192.096V193.11C217.608 193.248 218.214 193.422 218.214 194.118C218.214 194.634 217.842 195.078 217.05 195.156ZM216.642 193.002V192.108C216.282 192.168 216.132 192.348 216.132 192.57C216.132 192.792 216.348 192.918 216.642 193.002ZM217.572 194.166C217.572 193.92 217.35 193.806 217.05 193.716V194.61C217.416 194.55 217.572 194.4 217.572 194.166Z" fill="#263238"/>
<path d="M221.22 191.598V195.114H220.566V192.144H219.822V191.598H221.22Z" fill="#263238"/>
<path d="M222.726 194.736C222.716 194.886 222.678 195.033 222.612 195.168L222.354 195.876H221.946L222.144 195.108C222.072 195.077 222.011 195.024 221.97 194.958C221.928 194.892 221.907 194.814 221.91 194.736C221.91 194.628 221.953 194.524 222.029 194.447C222.106 194.371 222.21 194.328 222.318 194.328C222.426 194.328 222.53 194.371 222.606 194.447C222.683 194.524 222.726 194.628 222.726 194.736Z" fill="#263238"/>
<path d="M223.086 193.356C223.086 192.198 223.722 191.556 224.556 191.556C225.39 191.556 226.026 192.204 226.026 193.356C226.026 194.508 225.426 195.156 224.556 195.156C223.686 195.156 223.086 194.514 223.086 193.356ZM225.372 193.356C225.372 192.51 225.036 192.114 224.556 192.114C224.076 192.114 223.746 192.51 223.746 193.356C223.746 194.202 224.076 194.598 224.556 194.598C225.036 194.598 225.372 194.208 225.372 193.356Z" fill="#263238"/>
<path d="M226.47 193.356C226.47 192.198 227.106 191.556 227.94 191.556C228.774 191.556 229.41 192.204 229.41 193.356C229.41 194.508 228.78 195.156 227.94 195.156C227.1 195.156 226.47 194.514 226.47 193.356ZM228.756 193.356C228.756 192.51 228.42 192.114 227.94 192.114C227.46 192.114 227.13 192.51 227.13 193.356C227.13 194.202 227.46 194.598 227.94 194.598C228.42 194.598 228.756 194.208 228.756 193.356Z" fill="#263238"/>
<path d="M243.6 199.602C243.6 199.686 237.144 199.758 229.2 199.758C221.256 199.758 214.8 199.686 214.8 199.602C214.8 199.518 221.25 199.44 229.2 199.44C237.15 199.44 243.6 199.512 243.6 199.602Z" fill="#263238"/>
<path d="M228.174 201.948C228.174 202.032 225.174 202.104 221.484 202.104C217.794 202.104 214.794 202.032 214.794 201.948C214.794 201.864 217.794 201.786 221.484 201.786C225.174 201.786 228.174 201.858 228.174 201.948Z" fill="#263238"/>
<path d="M221.856 65.1179C221.856 65.2019 214.902 65.2739 206.328 65.2739C197.754 65.2739 190.794 65.2019 190.794 65.1179C190.794 65.0339 197.748 64.9619 206.328 64.9619C214.908 64.9619 221.856 65.0279 221.856 65.1179Z" fill="#5FAA46"/>
<path d="M19.5601 251.43C18.6319 251.468 17.7432 251.816 17.0361 252.419C16.3291 253.021 15.8446 253.844 15.6601 254.754C15.2702 256.217 14.9637 257.702 14.7421 259.2C14.7421 259.2 11.2201 262.368 14.7421 263.214C18.2641 264.06 19.5421 259.314 19.5421 259.314L20.0821 251.406L19.5601 251.43Z" fill="#FFBE9D"/>
<path d="M54.8281 190.8C54.8281 190.8 65.8321 153.846 66.9541 152.256C68.8021 149.622 86.6161 141.702 86.6161 141.702L91.4161 131.958L121.002 127.2L128.34 136.644L148.962 151.8L147.522 204.072L146.754 240.57L150.66 286.134L57.0001 285.96L61.2361 276.36L65.6821 193.488L54.8281 190.8Z" fill="#F78628"/>
<path d="M67.5178 185.814C67.4905 185.716 67.4784 185.615 67.4818 185.514C67.4818 185.28 67.4818 184.998 67.4338 184.656C67.4338 183.912 67.3678 182.856 67.3438 181.506C67.2958 178.842 67.2958 175.164 67.4098 171.102C67.5238 167.04 67.7398 163.368 67.9438 160.71C68.0398 159.384 68.1358 158.31 68.2138 157.572L68.3038 156.72C68.3129 156.621 68.331 156.522 68.3578 156.426C68.3748 156.525 68.3748 156.627 68.3578 156.726C68.3578 156.954 68.3578 157.236 68.3218 157.578C68.2798 158.37 68.2198 159.432 68.1478 160.728C68.0038 163.386 67.8238 167.052 67.7098 171.114C67.5958 175.176 67.5598 178.842 67.5538 181.506C67.5538 182.802 67.5538 183.864 67.5538 184.656C67.5538 184.998 67.5538 185.256 67.5538 185.514C67.5562 185.615 67.5441 185.716 67.5178 185.814Z" fill="#263238"/>
<g opacity="0.3">
<path d="M88.734 175.2C88.7113 174.786 88.8321 174.377 89.076 174.042C89.4869 173.539 90.05 173.182 90.6808 173.026C91.3117 172.871 91.976 172.924 92.574 173.178C94.14 173.928 94.92 175.728 95.238 177.438C95.58 179.31 95.532 181.242 95.886 183.114C96.24 184.986 97.086 186.894 98.736 187.86C100.77 189.06 103.44 188.52 105.576 189.528C108.756 191.022 109.494 195.156 109.656 198.672C109.956 205.326 109.656 211.986 109.38 218.64L107.544 261.132L105.87 282.45L97.254 286.11L85.854 211.2L88.734 175.2Z" fill="black"/>
</g>
<path d="M91.2001 169.128C91.1355 169.183 91.0598 169.224 90.9781 169.248C90.7438 169.332 90.4923 169.357 90.2461 169.32C89.7953 169.24 89.3748 169.039 89.0301 168.737C88.6854 168.436 88.4295 168.046 88.2901 167.61C88.105 167.013 88.0458 166.384 88.1161 165.762C88.1956 165.066 88.3117 164.376 88.4641 163.692C88.7521 162.24 89.0641 160.656 89.4001 158.994C90.0721 155.664 90.6961 152.652 91.1641 150.474L91.7641 147.9C91.8222 147.582 91.9044 147.269 92.0101 146.964C91.9978 147.287 91.9556 147.609 91.8841 147.924C91.7581 148.59 91.6021 149.466 91.4101 150.522C90.9961 152.706 90.4021 155.724 89.7301 159.054C89.3881 160.716 89.0641 162.3 88.7701 163.746C88.4761 165.192 88.1701 166.5 88.5241 167.544C88.6451 167.952 88.8722 168.32 89.1822 168.611C89.4921 168.902 89.8738 169.105 90.2881 169.2C90.5937 169.244 90.9052 169.219 91.2001 169.128Z" fill="#263238"/>
<path d="M94.2359 155.226C94.2359 155.256 93.9899 155.256 93.5819 155.382C93.0095 155.571 92.5062 155.926 92.1359 156.402C91.8575 156.74 91.6704 157.143 91.5927 157.574C91.5149 158.005 91.5491 158.448 91.6919 158.862C91.8488 159.375 92.1564 159.83 92.5748 160.166C92.9933 160.502 93.5031 160.705 94.0382 160.748C94.5733 160.79 95.1089 160.671 95.5754 160.405C96.0418 160.14 96.4176 159.74 96.6539 159.258C96.8605 158.873 96.9647 158.441 96.9562 158.004C96.9478 157.567 96.8272 157.139 96.6059 156.762C96.3178 156.232 95.8766 155.801 95.3399 155.526C94.9559 155.334 94.7399 155.298 94.7399 155.268C94.7399 155.238 94.7999 155.268 94.9139 155.268C95.0835 155.291 95.2491 155.337 95.4059 155.406C95.9973 155.655 96.492 156.088 96.8159 156.642C97.0453 157.024 97.1868 157.452 97.2299 157.896C97.277 158.411 97.1728 158.928 96.9299 159.384C96.6726 159.923 96.2578 160.372 95.7402 160.67C95.2227 160.968 94.6268 161.103 94.0313 161.055C93.4358 161.008 92.8687 160.781 92.4049 160.404C91.9412 160.028 91.6026 159.519 91.4339 158.946C91.2653 158.457 91.2444 157.929 91.3739 157.428C91.5126 156.904 91.7887 156.428 92.1738 156.047C92.5589 155.666 93.0389 155.395 93.5639 155.262C93.7302 155.218 93.9019 155.198 94.0739 155.202C94.1289 155.2 94.1837 155.209 94.2359 155.226Z" fill="#263238"/>
<path d="M104.31 193.428L50.214 183.636L24.96 189.18L81.468 199.35L104.31 193.428Z" fill="#F78628"/>
<g opacity="0.6">
<path d="M104.31 193.428L50.214 183.636L24.96 189.18L81.468 199.35L104.31 193.428Z" fill="black"/>
</g>
<path d="M69.7197 217.02C70.4517 207.048 73.1877 181.722 75.2397 171.936C75.8397 169.008 76.5597 166.014 78.2397 163.536C79.9197 161.058 82.8837 159.246 85.8357 159.702C88.4757 160.11 90.5997 162.252 91.6677 164.7C92.7112 167.177 93.177 169.859 93.0297 172.542C92.5197 184.638 91.4757 198.186 91.4877 209.4" fill="#455A64"/>
<path d="M88.0381 193.272C87.3816 193.519 86.7127 193.731 86.0341 193.908C82.805 194.906 79.7146 196.307 76.8361 198.078C76.2558 198.474 75.655 198.838 75.0361 199.17C75.0361 199.17 75.1741 199.02 75.4621 198.792C75.7501 198.564 76.1761 198.258 76.7161 197.892C78.1339 196.951 79.6247 196.124 81.1741 195.42C82.7242 194.716 84.3296 194.14 85.9741 193.698C86.6041 193.53 87.1201 193.41 87.4741 193.344C87.6582 193.296 87.8478 193.272 88.0381 193.272Z" fill="#263238"/>
<path d="M88.9378 181.764C88.9378 181.812 88.1279 181.992 86.8319 182.394C83.449 183.434 80.2892 185.094 77.5139 187.29C76.4519 188.13 75.8339 188.706 75.7979 188.67C75.9099 188.505 76.0408 188.354 76.1879 188.22C76.4519 187.944 76.8538 187.566 77.3878 187.122C78.7457 185.961 80.2289 184.955 81.8099 184.122C83.3912 183.291 85.0593 182.637 86.7839 182.172C87.3033 182.027 87.83 181.908 88.3619 181.818C88.5499 181.771 88.7442 181.752 88.9378 181.764Z" fill="#263238"/>
<path d="M87.726 172.5C87.726 172.554 87.084 172.584 86.07 172.77C84.7516 173.015 83.4734 173.441 82.272 174.036C81.0736 174.638 79.9632 175.401 78.972 176.304C78.21 177 77.772 177.504 77.772 177.462C77.772 177.42 77.844 177.312 78.018 177.078C78.2647 176.747 78.5354 176.434 78.828 176.142C80.7698 174.187 83.2989 172.922 86.028 172.542C86.4375 172.485 86.8505 172.457 87.264 172.458C87.564 172.464 87.72 172.476 87.726 172.5Z" fill="#263238"/>
<path d="M81.0001 201.348C80.9974 201.366 80.9974 201.384 81.0001 201.402V236.022C81.0001 237.54 79.8001 239.106 77.5261 240.294C75.2521 241.482 72.0061 242.292 67.9261 242.298H67.8721C59.6821 242.298 54.7861 239.064 54.7861 236.022V201.402C54.7876 201.384 54.7876 201.366 54.7861 201.348C54.7861 201.348 54.7861 201.306 54.7861 201.282C54.7861 197.898 57.2881 194.364 59.7961 190.872C61.4761 188.544 61.8781 185.184 61.9561 183.216C61.9561 182.976 61.9561 182.766 61.9561 182.574H61.7281C61.4897 182.595 61.2496 182.567 61.0219 182.494C60.7941 182.42 60.5833 182.302 60.4017 182.146C60.2201 181.991 60.0715 181.8 59.9644 181.586C59.8573 181.372 59.794 181.139 59.7781 180.9V179.436C59.7925 179.196 59.8547 178.962 59.9611 178.746C60.0675 178.531 60.2159 178.339 60.3976 178.182C60.5794 178.025 60.7907 177.906 61.0192 177.831C61.2477 177.757 61.4888 177.73 61.7281 177.75H74.0281C74.3936 177.738 74.7553 177.828 75.073 178.009C75.3908 178.19 75.6521 178.455 75.8281 178.776C75.9264 178.982 75.9776 179.208 75.9781 179.436V180.9C75.9623 181.139 75.8988 181.373 75.7913 181.588C75.6839 181.802 75.5347 181.993 75.3525 182.149C75.1702 182.305 74.9587 182.423 74.7302 182.496C74.5018 182.569 74.261 182.595 74.0221 182.574H73.8001C73.8001 182.766 73.8001 182.976 73.8001 183.216C73.8781 185.184 74.2801 188.544 75.9661 190.872C78.4681 194.364 80.9581 197.898 80.9761 201.282C81.0001 201.306 81.0001 201.336 81.0001 201.348Z" fill="#FAFAFA"/>
<path d="M81.0001 201.348C81.0081 201.23 81.0081 201.112 81.0001 200.994C80.9781 200.648 80.9361 200.303 80.8741 199.962C80.5861 198.646 80.1027 197.38 79.4401 196.206C78.375 194.343 77.1926 192.549 75.9001 190.836C75.1361 189.705 74.5907 188.442 74.2921 187.11C73.9363 185.626 73.7511 184.106 73.7401 182.58V182.472H73.8481C74.3029 182.502 74.7564 182.396 75.1501 182.166C75.348 182.051 75.5183 181.895 75.6489 181.707C75.7796 181.519 75.8674 181.305 75.9061 181.08C75.9061 180.618 75.9061 180.096 75.9061 179.598C75.9268 179.358 75.8891 179.116 75.7961 178.893C75.7031 178.671 75.5576 178.474 75.3721 178.32C74.98 178.002 74.4844 177.84 73.9801 177.864H69.0001H61.9141C61.6232 177.838 61.3302 177.875 61.0548 177.973C60.7795 178.07 60.5282 178.225 60.3181 178.428C60.1177 178.636 59.984 178.899 59.9341 179.184C59.9185 179.49 59.9185 179.796 59.9341 180.102C59.9341 180.408 59.9341 180.756 59.9341 181.038C59.9764 181.33 60.1061 181.602 60.3061 181.818C60.5204 182.036 60.7811 182.203 61.0687 182.307C61.3564 182.411 61.6638 182.449 61.9681 182.418H62.1121V182.568C62.1022 183.98 61.9494 185.387 61.6561 186.768C61.365 188.205 60.803 189.573 60.0001 190.8C59.1541 192 58.2841 193.2 57.4801 194.472C56.648 195.736 55.9636 197.091 55.4401 198.51C55.1855 199.231 55.0223 199.981 54.9541 200.742C54.9121 201.492 54.9541 202.296 54.9541 203.076V217.656C54.9541 223.482 54.9541 229.176 54.9541 234.672C54.9215 235.344 54.9537 236.017 55.0501 236.682C55.2187 237.315 55.5425 237.897 55.9921 238.374C56.8966 239.335 57.9948 240.094 59.2141 240.6C60.4111 241.101 61.6582 241.473 62.9341 241.71C64.1837 241.946 65.4492 242.089 66.7201 242.136C69.1674 242.261 71.62 242.036 74.0041 241.47C75.1429 241.192 76.2475 240.79 77.2981 240.27C78.3152 239.785 79.225 239.102 79.9741 238.26C80.3241 237.847 80.591 237.37 80.7601 236.856C80.8861 236.336 80.9306 235.8 80.8921 235.266V232.074C80.8921 229.992 80.8921 227.988 80.8921 226.074C80.8921 218.442 80.9281 212.274 80.9401 207.978C80.9521 203.682 80.9941 201.342 80.9941 201.342C81.0123 201.487 81.0123 201.635 80.9941 201.78C80.9941 202.08 80.9941 202.506 80.9941 203.058C80.9941 204.192 80.9941 205.848 80.9941 207.978C80.9941 212.262 80.9941 218.442 81.0421 226.074C81.0421 227.982 81.0421 229.986 81.0421 232.074V236.082C81.0343 236.368 80.99 236.653 80.9101 236.928C80.7333 237.476 80.4499 237.984 80.0761 238.422C79.3087 239.296 78.3717 240.004 77.3221 240.504C76.2549 241.024 75.1343 241.426 73.9801 241.704C71.6004 242.274 69.1527 242.508 66.7081 242.4C65.4231 242.355 64.1434 242.213 62.8801 241.974C61.5819 241.732 60.3128 241.354 59.0941 240.846C57.8312 240.337 56.6932 239.562 55.7581 238.572C55.2742 238.067 54.9255 237.448 54.7441 236.772C54.6371 236.084 54.6009 235.386 54.6361 234.69V203.088C54.6361 202.296 54.6361 201.528 54.6361 200.73C54.7087 199.944 54.878 199.17 55.1401 198.426C55.6716 196.983 56.3682 195.605 57.2161 194.322C58.0201 193.044 58.9021 191.838 59.7481 190.644C60.5241 189.444 61.0675 188.109 61.3501 186.708C61.6393 185.351 61.7941 183.968 61.8121 182.58L61.9501 182.718C61.6074 182.748 61.2621 182.702 60.9394 182.583C60.6167 182.464 60.3246 182.274 60.0841 182.028C59.8445 181.771 59.6913 181.446 59.6461 181.098C59.6461 180.744 59.6461 180.45 59.6461 180.126C59.6285 179.804 59.6285 179.482 59.6461 179.16C59.7083 178.823 59.8691 178.512 60.1081 178.266C60.3451 178.037 60.6281 177.86 60.9384 177.749C61.2488 177.637 61.5793 177.592 61.9081 177.618H68.9941H73.9441C74.5018 177.597 75.048 177.781 75.4801 178.134C75.6893 178.31 75.853 178.534 75.9574 178.787C76.0618 179.039 76.1039 179.314 76.0801 179.586C76.0801 180.102 76.0801 180.576 76.0801 181.098C76.0381 181.354 75.9399 181.598 75.7926 181.812C75.6453 182.025 75.4525 182.204 75.2281 182.334C74.7996 182.582 74.306 182.695 73.8121 182.658L73.9081 182.562C73.9621 185.724 74.5741 188.652 76.0021 190.728C77.286 192.45 78.4565 194.254 79.5061 196.128C80.1653 197.314 80.635 198.595 80.8981 199.926C80.9559 200.281 80.99 200.64 81.0001 201C81.0209 201.115 81.0209 201.233 81.0001 201.348Z" fill="#263238"/>
<path d="M73.1282 182.49C71.3088 182.648 69.4817 182.7 67.6562 182.646C65.8287 182.7 63.9997 182.648 62.1782 182.49C63.9999 182.336 65.8287 182.284 67.6562 182.334C69.4817 182.283 71.3086 182.335 73.1282 182.49Z" fill="#263238"/>
<path d="M79.908 205.974C78.804 205.254 77.346 205.572 76.158 206.136C74.97 206.7 73.848 207.486 72.558 207.69C71.04 207.936 69.51 207.33 68.16 206.568C66.81 205.806 65.532 204.864 64.08 204.342C62.6717 203.866 61.1582 203.795 59.7114 204.136C58.2646 204.478 56.9427 205.219 55.896 206.274V235.998C55.896 235.998 57.528 241.068 69.024 240.276C80.52 239.484 79.614 234.402 79.614 234.402L79.908 205.974Z" fill="#F78628"/>
<path d="M49.4519 185.742C49.6219 184.645 49.5728 183.525 49.3073 182.447C49.0418 181.369 48.5653 180.354 47.9053 179.461C47.2452 178.569 46.4147 177.816 45.4619 177.246C44.509 176.676 43.4526 176.301 42.3539 176.142C42.1525 176.09 41.9391 176.114 41.7539 176.208C41.5079 176.376 41.5019 176.73 41.5259 177.024C41.7269 179.168 42.6014 181.194 44.0241 182.81C45.4468 184.427 47.3447 185.552 49.4459 186.024" fill="#455A64"/>
<path d="M37.6501 201.288C39.7741 205.668 42.8281 208.62 46.6141 208.764C47.3701 208.764 47.9401 208.29 48.6601 208.248C49.0788 208.346 49.4824 208.499 49.8601 208.704C50.0499 208.788 50.2531 208.836 50.4601 208.848C54.3721 208.638 57.7021 205.89 59.9461 201.288C63.0721 194.85 62.1061 187.932 57.7921 185.826C57.226 185.544 56.6356 185.313 56.0281 185.136C55.3302 184.948 54.6086 184.864 53.8861 184.884C52.2183 185.003 50.5788 185.379 49.0261 186L48.8161 186.078C45.3061 184.53 42.5101 184.518 39.8161 185.832C35.4781 187.932 34.5181 194.85 37.6501 201.288Z" fill="#F78628"/>
<path d="M37.7222 194.766C37.5174 194.362 37.3951 193.922 37.3622 193.47C37.2346 192.38 37.3664 191.276 37.747 190.246C38.1276 189.217 38.7462 188.293 39.5522 187.548C39.8702 187.226 40.2497 186.971 40.6682 186.798C40.6682 186.846 40.2722 187.122 39.7022 187.704C38.9738 188.466 38.4083 189.368 38.0402 190.356C37.6749 191.345 37.5197 192.4 37.5842 193.452C37.6322 194.256 37.8002 194.748 37.7222 194.766Z" fill="#FAFAFA"/>
<path d="M38.5201 197.826C38.4361 197.826 38.2921 197.544 38.2021 197.148C38.1121 196.752 38.1061 196.422 38.2021 196.404C38.2981 196.386 38.4241 196.686 38.5201 197.082C38.6161 197.478 38.6041 197.808 38.5201 197.826Z" fill="#FAFAFA"/>
<path d="M58.3683 175.2C58.3683 175.254 57.5643 175.566 56.3463 176.298C55.6376 176.725 54.9635 177.206 54.3303 177.738C53.5598 178.396 52.8472 179.118 52.2003 179.898C51.5663 180.689 51.0003 181.532 50.5083 182.418C50.1139 183.145 49.7769 183.901 49.5003 184.68C49.0263 186.012 48.9003 186.888 48.8223 186.876C48.8225 186.674 48.8446 186.473 48.8883 186.276C48.9177 186.035 48.9658 185.796 49.0323 185.562C49.1015 185.246 49.1876 184.933 49.2903 184.626C49.5427 183.823 49.866 183.044 50.2563 182.298C51.2153 180.462 52.5406 178.843 54.1503 177.54C54.8037 177.007 55.5046 176.535 56.2443 176.13C56.5503 175.944 56.8443 175.818 57.1083 175.692C57.3258 175.583 57.5503 175.489 57.7803 175.41C57.9672 175.317 58.1646 175.247 58.3683 175.2Z" fill="#263238"/>
<path d="M24.9601 189.18L18.1621 274.932L81.5221 290.25C81.5221 290.25 103.626 282.756 103.926 282.246C104.226 281.736 104.31 193.446 104.31 193.446L81.4681 199.368L24.9601 189.18Z" fill="#F78628"/>
<g opacity="0.4">
<path d="M24.9601 189.18L18.1621 274.932L81.5221 290.25C81.5221 290.25 103.626 282.756 103.926 282.246C104.226 281.736 104.31 193.446 104.31 193.446L81.4681 199.368L24.9601 189.18Z" fill="black"/>
</g>
<path d="M124.338 89.292L120.804 139.338C120.526 143.276 118.765 146.962 115.877 149.653C112.989 152.345 109.188 153.841 105.24 153.84C103.102 153.845 100.987 153.41 99.0246 152.563C97.0622 151.716 95.2948 150.475 93.8321 148.916C92.3693 147.358 91.2424 145.516 90.5212 143.504C89.8001 141.492 89.5001 139.353 89.6398 137.22C89.9518 132.456 90.2398 128.55 90.2398 128.55C90.2398 128.55 78.1258 126.666 77.9758 114.552C77.8918 107.556 79.0978 91.68 80.1298 79.518C80.4686 75.5456 82.2885 71.8457 85.2283 69.1526C88.1681 66.4595 92.013 64.9701 95.9998 64.98H103.314C106.305 65.1557 109.231 65.9292 111.918 67.2546C114.605 68.5801 116.999 70.4307 118.959 72.6971C120.919 74.9635 122.405 77.5997 123.328 80.45C124.252 83.3003 124.596 86.3069 124.338 89.292Z" fill="#FFBE9D"/>
<path d="M90.2639 128.55C90.2639 128.55 97.9018 129 106.038 123.888C106.038 123.888 102.138 132.702 90.0479 131.61L90.2639 128.55Z" fill="#EB996E"/>
<path d="M82.428 92.0101C82.644 92.2381 83.952 91.2661 85.818 91.2721C87.684 91.2781 89.04 92.2081 89.244 91.9801C89.34 91.8781 89.124 91.4761 88.53 91.0381C87.7236 90.4831 86.7669 90.1879 85.788 90.1921C84.8193 90.1934 83.8752 90.4976 83.088 91.0621C82.518 91.5061 82.326 91.9141 82.428 92.0101Z" fill="#263238"/>
<path d="M102.6 94.1521C102.598 94.6024 102.771 95.0359 103.082 95.3615C103.393 95.6871 103.818 95.8794 104.268 95.8981C104.489 95.9169 104.712 95.8911 104.923 95.8224C105.134 95.7537 105.33 95.6434 105.497 95.498C105.665 95.3526 105.802 95.175 105.9 94.9758C105.998 94.7766 106.055 94.5597 106.068 94.3381C106.073 93.8869 105.901 93.4516 105.59 93.1254C105.278 92.7991 104.851 92.6077 104.4 92.5921C104.179 92.5724 103.956 92.5975 103.744 92.6659C103.533 92.7343 103.337 92.8446 103.169 92.9901C103.001 93.1357 102.864 93.3136 102.766 93.5132C102.669 93.7129 102.612 93.9301 102.6 94.1521Z" fill="#263238"/>
<path d="M84.108 94.1521C84.1045 94.6028 84.2767 95.0372 84.5881 95.3631C84.8995 95.689 85.3255 95.8809 85.776 95.8981C85.9974 95.9177 86.2205 95.8926 86.4319 95.8242C86.6434 95.7558 86.839 95.6455 87.007 95.5C87.1749 95.3544 87.3119 95.1765 87.4096 94.9769C87.5074 94.7773 87.564 94.56 87.576 94.3381C87.5825 93.8874 87.4121 93.4522 87.1014 93.1258C86.7907 92.7993 86.3644 92.6077 85.914 92.5921C85.6919 92.5707 85.4679 92.5946 85.2553 92.6622C85.0428 92.7299 84.8461 92.84 84.6773 92.9858C84.5085 93.1316 84.371 93.3101 84.2732 93.5106C84.1753 93.7111 84.1191 93.9293 84.108 94.1521Z" fill="#263238"/>
<path d="M100.542 92.0161C100.758 92.2381 102.072 91.2661 103.932 91.2721C105.792 91.2781 107.154 92.2081 107.358 91.9801C107.454 91.8781 107.238 91.4761 106.644 91.0381C105.838 90.4831 104.881 90.1879 103.902 90.1921C102.934 90.1934 101.989 90.4976 101.202 91.0621C100.632 91.5061 100.44 91.9141 100.542 92.0161Z" fill="#263238"/>
<path d="M93.7862 105.816C93.7862 105.714 92.6402 105.516 90.7862 105.276C90.3122 105.222 89.8622 105.132 89.7842 104.808C89.741 104.317 89.8499 103.825 90.0962 103.398L91.5062 99.7981C93.4562 94.6441 94.8722 90.4081 94.6622 90.3301C94.4522 90.2521 92.7002 94.3681 90.7502 99.5221C90.2502 100.774 89.8002 101.98 89.4002 103.14C89.1055 103.715 89.0186 104.374 89.1542 105.006C89.2239 105.174 89.3309 105.324 89.467 105.445C89.6032 105.565 89.765 105.653 89.9402 105.702C90.2023 105.774 90.4725 105.812 90.7442 105.816C92.6102 105.918 93.7802 105.924 93.7862 105.816Z" fill="#263238"/>
<path d="M99.2641 107.106C98.9641 107.106 98.9581 109.11 97.2301 110.544C95.5021 111.978 93.3481 111.744 93.3301 112.038C93.3301 112.164 93.8101 112.428 94.7221 112.458C95.9055 112.473 97.0566 112.072 97.9741 111.324C98.8526 110.602 99.4179 109.568 99.5521 108.438C99.6301 107.598 99.4021 107.094 99.2641 107.106Z" fill="#263238"/>
<path d="M100.062 85.9621C100.248 86.4661 102.102 86.2261 104.262 86.4901C106.422 86.7541 108.216 87.3481 108.504 86.8981C108.636 86.6821 108.324 86.2021 107.616 85.6981C106.67 85.089 105.592 84.7127 104.472 84.6001C103.355 84.4643 102.221 84.598 101.166 84.9901C100.386 85.3261 99.9843 85.7221 100.062 85.9621Z" fill="#263238"/>
<path d="M82.6862 86.682C83.0162 87.108 84.3002 86.682 85.8422 86.646C87.3842 86.61 88.6862 86.934 88.9922 86.49C89.1182 86.274 88.9142 85.848 88.3442 85.452C87.5786 84.9703 86.6866 84.7278 85.7824 84.7556C84.8782 84.7834 84.0029 85.0802 83.2682 85.608C82.7222 86.04 82.5422 86.478 82.6862 86.682Z" fill="#263238"/>
<path d="M120.252 98.4C120.462 98.31 128.58 95.94 128.316 104.22C128.052 112.5 119.79 110.526 119.784 110.292C119.778 110.058 120.252 98.4 120.252 98.4Z" fill="#FFBE9D"/>
<path d="M122.4 107.214C122.436 107.214 122.544 107.322 122.784 107.442C123.121 107.599 123.506 107.618 123.858 107.496C124.746 107.202 125.526 105.84 125.61 104.346C125.657 103.637 125.543 102.927 125.274 102.27C125.205 102.008 125.073 101.767 124.89 101.568C124.707 101.368 124.479 101.216 124.224 101.124C124.059 101.075 123.882 101.085 123.724 101.153C123.566 101.221 123.437 101.342 123.36 101.496C123.24 101.724 123.288 101.892 123.246 101.904C123.204 101.916 123.072 101.76 123.15 101.418C123.205 101.215 123.325 101.036 123.492 100.908C123.725 100.743 124.014 100.676 124.296 100.722C124.634 100.801 124.946 100.965 125.203 101.198C125.46 101.431 125.654 101.726 125.766 102.054C126.093 102.784 126.24 103.583 126.192 104.382C126.084 106.05 125.178 107.58 123.972 107.892C123.747 107.949 123.512 107.955 123.285 107.909C123.058 107.863 122.843 107.767 122.658 107.628C122.4 107.4 122.4 107.232 122.4 107.214Z" fill="#EB996E"/>
<path d="M124.86 98.1001C123.6 97.7941 121.416 98.9641 120.876 100.146C120.336 101.328 120.216 102.666 119.676 103.848C119.136 105.03 117.924 106.104 116.676 105.804C116.248 105.669 115.863 105.423 115.56 105.091C115.258 104.759 115.049 104.353 114.954 103.914C114.78 103.033 114.78 102.126 114.954 101.244C115.44 97.3741 116.25 93.5401 116.406 89.6461C116.562 85.7521 116.01 81.7021 113.964 78.3841C111.918 75.0661 108.162 72.6241 104.274 72.9361C101.7 73.1461 99.342 74.4901 96.786 74.8441C95.265 75.0454 93.7181 74.8978 92.2627 74.4123C90.8072 73.9268 89.4815 73.1162 88.386 72.0421C88.104 71.7661 86.814 70.9081 86.814 70.9081C86.814 70.7101 87 68.9821 87.684 68.3521C92.754 63.6601 101.898 62.3521 108.6 64.0381C115.302 65.7241 121.584 70.4521 124.464 76.7341C127.344 83.0161 126.492 91.7341 124.902 98.1001" fill="#263238"/>
<path d="M78.8281 77.334C79.9141 79.848 82.6861 81.312 85.4281 81.588C88.1701 81.864 90.8761 81.156 93.5101 80.388C96.1441 79.62 103.218 78.468 105.96 78.552C106.368 78.552 106.86 78.552 107.082 78.21C107.37 77.748 106.908 77.19 106.482 76.86C102.882 74.028 94.1401 72.294 89.5561 72.102C84.9721 71.91 80.1661 73.902 77.6821 77.736" fill="#263238"/>
<path d="M80.022 77.6461C80.022 77.6461 111.822 67.4461 125.55 94.9201C125.55 94.9201 127.602 88.0381 127.602 84.3481C127.602 81.8881 126.132 67.2121 111.036 62.5981C111.036 62.5981 88.29 53.9221 80.022 77.6461Z" fill="#F78628"/>
<g opacity="0.4">
<path d="M80.022 77.6461C82.6656 74.8622 86.29 73.2179 90.126 73.0621C99.504 72.6421 117.048 77.9161 125.526 94.9201C125.526 94.9201 127.578 88.0381 127.578 84.3481C127.578 81.8881 126.108 67.2121 111.012 62.5981C111.036 62.5981 88.29 53.9221 80.022 77.6461Z" fill="black"/>
</g>
<path d="M124.2 91.6981C119.38 84.5212 113.063 78.4727 105.684 73.9681C98.4002 69.4021 86.3222 64.8901 78.0002 62.6761C75.5042 62.0161 72.9002 61.4341 70.3502 61.8781C67.8002 62.3221 65.3042 64.0141 64.6742 66.5221C63.8822 69.6601 69.4742 74.5021 72.0722 76.4041C74.6369 78.1135 77.2929 79.6818 80.0282 81.1021C80.0282 81.1021 79.9562 75.2821 89.2742 74.0821C101.94 72.4501 124.2 91.6981 124.2 91.6981Z" fill="#F78628"/>
<path d="M98.16 67.9501C98.16 67.9501 93.576 65.4181 88.98 64.8301C89.7453 64.2267 90.584 63.7227 91.476 63.3301C93.9727 63.7438 96.3871 64.554 98.628 65.7301L98.16 67.9501Z" fill="#FAFAFA"/>
<path d="M138.084 150.504C138.084 150.504 129.396 160.434 130.356 174.252C130.488 176.166 130.584 178.836 130.818 180.744C132.282 192.6 134.55 203.604 134.55 203.604H135.378L165.672 196.122C165.672 196.122 161.106 169.824 160.056 166.332C156.702 155.154 145.2 149.004 145.2 149.004L138.084 150.504Z" fill="#F78628"/>
<path d="M103.926 282.246C103.926 282.246 103.926 282.096 103.926 281.802C103.926 281.508 103.926 281.058 103.926 280.482C103.926 279.318 103.926 277.614 103.926 275.412C103.926 270.99 103.926 264.612 103.962 256.62C104.016 240.666 104.094 218.466 104.184 193.428L104.376 193.578L92.8561 196.578L81.5401 199.512L81.6541 199.362C81.8101 211.914 81.7681 223.758 81.7081 234.462C81.6481 245.166 81.5881 254.724 81.5401 262.716C81.4921 270.708 81.5401 277.116 81.5401 281.556C81.5401 283.764 81.5401 285.474 81.5401 286.644V287.964C81.5401 287.67 81.5401 287.22 81.5401 286.644C81.5401 285.444 81.4981 283.764 81.4621 281.556C81.4081 277.134 81.3721 270.708 81.3781 262.716C81.3841 254.724 81.4441 245.16 81.4801 234.462C81.5161 223.764 81.5521 211.914 81.3901 199.368V199.242L81.5101 199.212L92.8201 196.278L104.346 193.278L104.544 193.224V193.428C104.412 218.466 104.298 240.672 104.22 256.62C104.166 264.588 104.118 270.99 104.088 275.412C104.088 277.614 104.052 279.318 104.04 280.482C104.04 281.082 104.04 281.496 104.04 281.802C104.04 282.108 103.926 282.246 103.926 282.246Z" fill="#263238"/>
<path d="M89.8981 132.648C89.8981 132.648 88.6981 144.174 92.5741 145.968C96.9481 147.984 101.31 146.01 103.974 144.3C111.12 139.74 121.74 127.074 121.74 127.074L128.94 136.422C128.94 136.422 110.808 158.214 107.166 158.07C104.766 157.98 101.076 155.67 98.7661 154.044C97.5019 153.161 96.3757 152.095 95.4241 150.882L92.2861 146.892C88.3681 148.824 85.2001 151.302 83.0101 154.476C83.0101 154.476 81.9661 146.406 83.8441 142.746C85.7221 139.086 89.4661 132.768 89.4661 132.768L89.8981 132.648Z" fill="#F78628"/>
<path d="M83.6219 143.058C83.6073 143.127 83.5831 143.194 83.5499 143.256C83.4959 143.4 83.4179 143.586 83.3159 143.82C83.0668 144.566 82.888 145.333 82.7819 146.112C82.4336 148.982 82.4336 151.883 82.7819 154.752L82.5659 154.71C83.5753 153.005 84.8938 151.503 86.4539 150.282C88.22 148.846 90.1494 147.624 92.2019 146.64L92.2979 146.592L92.3699 146.676C93.6359 148.146 94.9739 149.676 96.3839 151.23C97.7941 152.858 99.382 154.323 101.118 155.598C101.947 156.185 102.849 156.663 103.8 157.02C104.268 157.191 104.75 157.321 105.24 157.41C105.72 157.488 106.208 157.506 106.692 157.464C108.642 157.284 110.292 156.168 111.66 154.992L124.074 141.756L127.674 137.958L128.64 136.956L128.892 136.698L128.988 136.62L128.916 136.716L128.676 136.992L127.746 138.024L124.206 141.882L111.882 155.19C111.171 155.823 110.395 156.378 109.566 156.846C108.698 157.338 107.738 157.645 106.746 157.746C106.234 157.788 105.718 157.77 105.21 157.692C104.701 157.603 104.201 157.468 103.716 157.29C102.736 156.923 101.806 156.433 100.95 155.832C99.189 154.545 97.5789 153.064 96.1499 151.416C94.7339 149.856 93.3959 148.32 92.1359 146.844L92.3099 146.88C90.2772 147.856 88.3645 149.064 86.6099 150.48C85.0875 151.676 83.7963 153.14 82.7999 154.8L82.6199 155.112L82.5839 154.758C82.2487 151.87 82.281 148.95 82.6799 146.07C82.803 145.29 83.004 144.524 83.2799 143.784C83.3879 143.532 83.4839 143.352 83.5439 143.226C83.5662 143.168 83.5923 143.112 83.6219 143.058Z" fill="#263238"/>
<g opacity="0.3">
<path d="M84.0662 152.772C83.945 153.074 83.9227 153.407 84.0025 153.723C84.0823 154.039 84.26 154.321 84.5102 154.53C84.7601 154.626 85.0315 154.651 85.2949 154.604C85.5583 154.556 85.8037 154.437 86.0042 154.26C86.3973 153.9 86.7367 153.486 87.0122 153.03C87.7298 151.996 88.5926 151.07 89.5742 150.282C90.5402 149.502 91.8662 148.842 92.9762 149.394C93.6704 149.853 94.1968 150.524 94.4762 151.308C95.9822 154.386 97.7882 157.518 100.734 159.276C103.68 161.034 107.466 161.112 110.712 159.966C113.939 158.71 116.778 156.626 118.944 153.924C121.093 151.23 122.999 148.351 124.638 145.32C125.994 142.974 127.368 140.556 127.788 137.88C127.416 138.09 126.54 139.44 126.168 139.65C126.168 139.65 112.182 155.052 110.868 155.85C109.554 156.648 105.93 161.964 95.6642 150.45L92.2682 146.766C92.2682 146.766 85.8002 149.904 84.0662 152.772Z" fill="black"/>
</g>
<path d="M121.525 186.002L106.147 183.643L105.435 188.287L120.813 190.645L121.525 186.002Z" fill="white"/>
<path d="M163.128 196.704L139.128 202.506L141.9 225.144L95.9399 259.662C94.1039 259.92 92.2199 260.214 91.1759 260.478C88.6619 261.078 84.2219 267.408 82.9679 268.038L74.0099 274.95C74.0099 274.95 73.2239 278.094 77.3099 277.464C81.3959 276.834 85.9499 273.696 86.4239 273.696C86.8979 273.696 88.3259 274.65 87.6239 276.696C87.0239 278.496 84.5639 284.688 84.5639 284.688L81.5219 290.268C81.5219 290.268 94.6739 290.7 98.3219 285.822C100.818 282.51 108.522 273.12 108.522 273.12C108.522 273.12 162.624 246.504 165.87 240.93C170.292 233.346 163.128 196.704 163.128 196.704Z" fill="#FFBE9D"/>
<path d="M152.064 234.9C152.096 234.075 152.06 233.248 151.956 232.428C151.666 230.449 150.695 228.632 149.212 227.29C147.729 225.948 145.824 225.164 143.826 225.072C143 225.049 142.173 225.096 141.354 225.21C141.559 225.112 141.777 225.046 142.002 225.012C142.605 224.884 143.222 224.83 143.838 224.85C145.906 224.884 147.891 225.669 149.424 227.057C150.957 228.446 151.934 230.344 152.172 232.398C152.246 233.01 152.246 233.628 152.172 234.24C152.168 234.464 152.132 234.687 152.064 234.9Z" fill="#EB996E"/>
<path d="M92.3279 281.814C92.2808 282.328 92.1762 282.835 92.0159 283.326C91.7086 284.54 91.2616 285.713 90.6839 286.824C90.1084 287.96 89.2327 288.917 88.1519 289.59C87.8218 289.787 87.4637 289.933 87.0899 290.022C86.9552 290.069 86.8113 290.083 86.6699 290.064C87.1433 289.882 87.6008 289.661 88.0379 289.404C89.0487 288.704 89.8727 287.766 90.4379 286.674C90.9913 285.578 91.447 284.436 91.7999 283.26C91.9336 282.764 92.1103 282.28 92.3279 281.814Z" fill="#EB996E"/>
<path d="M98.6999 279.72C98.6092 280.224 98.4539 280.714 98.2379 281.178C97.7864 282.327 97.2613 283.445 96.6659 284.526C96.0686 285.607 95.4032 286.649 94.6739 287.646C94.3972 288.085 94.0666 288.489 93.6899 288.846C93.9213 288.391 94.1902 287.955 94.4939 287.544C95.0099 286.758 95.6939 285.654 96.3899 284.4C97.0859 283.146 97.6439 282 98.0339 281.118C98.2149 280.634 98.4377 280.166 98.6999 279.72Z" fill="#EB996E"/>
<path d="M98.526 240.54C98.5913 240.791 98.6275 241.049 98.634 241.308C98.688 241.8 98.73 242.508 98.754 243.402C98.8669 248.033 98.1975 252.65 96.774 257.058C96.498 257.898 96.258 258.576 96.066 259.032C95.9841 259.276 95.8775 259.511 95.748 259.734C95.7881 259.479 95.8565 259.23 95.952 258.99C96.108 258.522 96.318 257.838 96.552 256.992C97.1965 254.787 97.6857 252.539 98.016 250.266C98.3406 247.992 98.509 245.699 98.52 243.402C98.52 242.52 98.52 241.806 98.52 241.314C98.4977 241.056 98.4997 240.797 98.526 240.54Z" fill="#263238"/>
<path d="M85.5239 247.746C85.8158 248.359 86.0683 248.991 86.2799 249.636C86.7239 250.836 87.3419 252.432 88.0799 254.202C88.8179 255.972 89.5019 257.562 90.0119 258.708C90.3123 259.317 90.5748 259.945 90.7979 260.586C90.4111 260.02 90.0815 259.417 89.8139 258.786C89.2499 257.658 88.5239 256.08 87.7919 254.304C87.0599 252.528 86.4779 250.89 86.0879 249.69C85.8405 249.061 85.6517 248.41 85.5239 247.746Z" fill="#263238"/>
<path d="M82.0381 263.28C81.9171 263.332 81.7901 263.368 81.6601 263.388L80.5621 263.652C80.0821 263.766 79.5001 263.898 78.8101 264.012C78.1201 264.126 77.3461 264.294 76.4701 264.402C75.5941 264.51 74.6701 264.66 73.6201 264.75C72.5701 264.84 71.4841 264.918 70.3261 264.984C65.2822 265.208 60.2298 264.823 55.2781 263.838C54.1441 263.592 53.0581 263.376 52.0621 263.1C51.0661 262.824 50.1361 262.584 49.2961 262.326C48.4561 262.068 47.7001 261.81 47.0401 261.588C46.3801 261.366 45.8401 261.15 45.3661 260.988L44.3161 260.568C44.1922 260.521 44.0719 260.465 43.9561 260.4C44.0883 260.419 44.2175 260.455 44.3401 260.508L45.4081 260.874C45.8641 261.042 46.4341 261.246 47.0941 261.474C47.7541 261.702 48.5101 261.942 49.3561 262.164C50.2021 262.386 51.1201 262.668 52.1221 262.896C53.1241 263.124 54.1981 263.37 55.3321 263.604C57.7992 264.064 60.2886 264.397 62.7901 264.6C65.2938 264.78 67.8053 264.828 70.3141 264.744C71.4721 264.684 72.5701 264.642 73.5961 264.54C74.6221 264.438 75.5701 264.342 76.4401 264.234C77.3101 264.126 78.0901 263.994 78.7801 263.886C79.4701 263.778 80.0581 263.676 80.5381 263.58L81.6481 263.376C81.7739 263.329 81.9048 263.297 82.0381 263.28Z" fill="#263238"/>
<path d="M79.7521 252.846C78.7593 252.483 77.8047 252.023 76.9021 251.472C75.952 251.011 75.0479 250.461 74.2021 249.828C75.1969 250.187 76.1519 250.647 77.0521 251.202C78.0047 251.659 78.9092 252.209 79.7521 252.846Z" fill="#263238"/>
<path d="M165.672 196.122L165.522 196.17L165.078 196.29L163.362 196.728L156.906 198.324L134.586 203.724L134.424 203.76V203.598C133.794 199.476 132.93 195.03 132.096 190.398C131.55 187.308 131.076 184.278 130.752 181.338C130.428 178.398 130.284 175.536 130.242 172.812C130.176 170.234 130.327 167.655 130.692 165.102C131.017 162.868 131.681 160.698 132.66 158.664C133.498 156.998 134.619 155.489 135.972 154.206C136.991 153.236 138.16 152.437 139.434 151.842C140.245 151.48 141.094 151.212 141.966 151.044L142.65 150.96C142.728 150.952 142.806 150.952 142.884 150.96C142.808 150.985 142.73 151.001 142.65 151.008L141.978 151.128C141.119 151.313 140.284 151.595 139.488 151.968C138.237 152.584 137.09 153.394 136.092 154.368C134.77 155.65 133.677 157.147 132.858 158.796C131.906 160.814 131.263 162.964 130.95 165.174C130.598 167.716 130.457 170.283 130.53 172.848C130.578 175.56 130.734 178.404 131.058 181.338C131.382 184.272 131.862 187.296 132.408 190.38C133.236 195.006 134.094 199.458 134.724 203.58L134.538 203.454L156.888 198.144L163.362 196.632L165.09 196.242L165.54 196.146C165.583 196.134 165.628 196.126 165.672 196.122Z" fill="#263238"/>
</svg>
