<svg width="47" height="40" viewBox="0 0 47 40" fill="none" xmlns="http://www.w3.org/2000/svg">
<mask id="mask0_377_1180" style="mask-type:luminance" maskUnits="userSpaceOnUse" x="0" y="0" width="24" height="28">
<path fill-rule="evenodd" clip-rule="evenodd" d="M0 0H23.7647V27.898H0V0Z" fill="white"/>
</mask>
<g mask="url(#mask0_377_1180)">
<path fill-rule="evenodd" clip-rule="evenodd" d="M0.791678 14.6643C0.791678 16.5836 1.68286 18.397 3.24818 19.6853C3.61258 22.1095 5.71895 23.9773 8.37033 24.2741L8.71571 25.8321C8.77592 26.9967 10.1448 27.898 11.882 27.898C13.62 27.898 14.9881 26.9967 15.0483 25.8321L15.3945 24.2741C18.0458 23.9773 20.1514 22.1095 20.5158 19.6853C22.0811 18.397 22.9723 16.5836 22.9723 14.6643C22.9723 14.2616 22.9288 13.8489 22.844 13.4361C23.4476 12.5062 23.7645 11.4539 23.7645 10.3723C23.7645 8.01603 22.2736 5.89578 19.9383 4.88788C18.6051 1.95215 15.4103 0 11.882 0C8.35528 0 5.15968 1.95215 3.82567 4.88788C1.49037 5.8965 -0.000488281 8.01603 -0.000488281 10.3723C-0.000488281 11.4539 0.316378 12.5062 0.920009 13.4361C0.835247 13.8489 0.791678 14.2616 0.791678 14.6643Z" fill="#88C057"/>
</g>
<path fill-rule="evenodd" clip-rule="evenodd" d="M20.2601 9.82687C20.612 10.1279 20.612 10.6145 20.2601 10.9155L16.6594 13.9952C16.4839 14.1453 16.2534 14.2208 16.023 14.2208C15.7926 14.2208 15.5621 14.1453 15.3866 13.9952C15.0346 13.6941 15.0346 13.2076 15.3866 12.9065L18.9872 9.82687C19.3392 9.52583 19.9081 9.52583 20.2601 9.82687ZM13.3227 21.1499C13.3227 21.5756 12.9203 21.9198 12.4225 21.9198C11.9247 21.9198 11.5223 21.5756 11.5223 21.1499V5.7516C11.5223 5.32661 11.9247 4.98169 12.4225 4.98169C12.9203 4.98169 13.3227 5.32661 13.3227 5.7516V21.1499ZM4.58477 9.82687C4.93764 9.52583 5.50564 9.52583 5.85761 9.82687L9.45826 12.9065C9.81022 13.2076 9.81022 13.6941 9.45826 13.9952C9.28273 14.1453 9.05319 14.2208 8.82184 14.2208C8.5914 14.2208 8.36096 14.1453 8.18543 13.9952L4.58477 10.9155C4.23281 10.6145 4.23281 10.1279 4.58477 9.82687Z" fill="#659C35"/>
<mask id="mask1_377_1180" style="mask-type:luminance" maskUnits="userSpaceOnUse" x="6" y="18" width="41" height="22">
<path fill-rule="evenodd" clip-rule="evenodd" d="M6.62207 18.2563H46.8885V39.9997H6.62207V18.2563Z" fill="white"/>
</mask>
<g mask="url(#mask1_377_1180)">
<path fill-rule="evenodd" clip-rule="evenodd" d="M25.1237 39.9997C29.7614 39.9997 34.2316 38.6101 37.8067 36.0731C40.467 37.4498 43.9638 37.2868 46.399 35.7005C46.6503 35.5364 46.8134 35.2824 46.8461 35.0017C47.1049 32.7819 46.1815 30.6323 44.3923 29.1271C46.1815 27.6208 47.1049 25.4722 46.8461 23.2544C46.8134 22.9737 46.6503 22.7197 46.398 22.5556C43.9616 20.9693 40.4638 20.8082 37.8067 22.183C34.2305 19.6459 29.7592 18.2563 25.1237 18.2563C17.1502 18.2563 9.92606 22.3619 6.72077 28.7159C6.58917 28.9778 6.58917 29.2783 6.72077 29.5402C9.92606 35.8942 17.1502 39.9997 25.1237 39.9997Z" fill="#F97D68"/>
</g>
<path fill-rule="evenodd" clip-rule="evenodd" d="M16.4224 27.1511C17.6231 27.1511 18.5976 28.0367 18.5976 29.1278C18.5976 30.2189 17.6231 31.1045 16.4224 31.1045C15.2216 31.1045 14.2471 30.2189 14.2471 29.1278C14.2471 28.0367 15.2216 27.1511 16.4224 27.1511ZM22.9483 25.1744V33.0811C22.9483 33.6266 22.4622 34.0694 21.8607 34.0694C21.2592 34.0694 20.7731 33.6266 20.7731 33.0811V25.1744C20.7731 24.6288 21.2592 24.186 21.8607 24.186C22.4622 24.186 22.9483 24.6288 22.9483 25.1744Z" fill="#E3322A"/>
</svg>
