<svg width="18" height="18" viewBox="0 0 18 18" fill="none" xmlns="http://www.w3.org/2000/svg">
<path d="M9 9.56104C6.6225 9.56104 4.6875 7.62604 4.6875 5.24854C4.6875 2.87104 6.6225 0.936035 9 0.936035C11.3775 0.936035 13.3125 2.87104 13.3125 5.24854C13.3125 7.62604 11.3775 9.56104 9 9.56104ZM9 2.06104C7.245 2.06104 5.8125 3.49354 5.8125 5.24854C5.8125 7.00354 7.245 8.43604 9 8.43604C10.755 8.43604 12.1875 7.00354 12.1875 5.24854C12.1875 3.49354 10.755 2.06104 9 2.06104Z" fill="#949494"/>
<path d="M15.4426 17.0625C15.1351 17.0625 14.8801 16.8075 14.8801 16.5C14.8801 13.9125 12.2401 11.8125 9.00011 11.8125C5.76011 11.8125 3.12012 13.9125 3.12012 16.5C3.12012 16.8075 2.86512 17.0625 2.55762 17.0625C2.25012 17.0625 1.99512 16.8075 1.99512 16.5C1.99512 13.2975 5.13761 10.6875 9.00011 10.6875C12.8626 10.6875 16.0051 13.2975 16.0051 16.5C16.0051 16.8075 15.7501 17.0625 15.4426 17.0625Z" fill="#949494"/>
</svg>
