<svg width="22" height="18" viewBox="0 0 22 18" fill="none" xmlns="http://www.w3.org/2000/svg">
<path fill-rule="evenodd" clip-rule="evenodd" d="M10.7824 17.9444C10.8497 17.9815 10.9249 18 11 18C11.0751 18 11.1502 17.9815 11.2175 17.9444C11.3213 17.888 13.785 16.525 16.2882 14.3299C19.6942 11.3434 21.421 8.39223 21.421 5.55886C21.421 1.73972 18.6946 0 16.1614 0C14.2084 0 12.0234 1.05907 11 3.38843C9.97654 1.05907 7.79202 0 5.83851 0C3.30533 0 0.578918 1.73972 0.578918 5.55886C0.578918 8.39223 2.30577 11.3434 5.71172 14.3299C8.21494 16.525 10.6787 17.8876 10.7824 17.9444ZM1.44733 5.5615C1.44733 2.30812 3.72346 0.826172 5.8385 0.826172C7.78073 0.826172 9.99824 2.08742 10.5736 4.9039C10.6131 5.09743 10.792 5.23744 11 5.23744C11.208 5.23744 11.3868 5.09743 11.4264 4.9039C12.0017 2.087 14.2192 0.826172 16.1614 0.826172C18.2765 0.826172 20.5526 2.30812 20.5526 5.5615C20.5526 11.2657 12.4428 16.2654 11 17.1099C9.55578 16.2658 1.44733 11.2698 1.44733 5.5615Z" fill="#949494"/>
</svg>
