<svg width="22" height="18" viewBox="0 0 22 18" fill="none" xmlns="http://www.w3.org/2000/svg">
<path fill-rule="evenodd" clip-rule="evenodd" d="M20.7831 0.444444L21.8206 5.92593C21.8948 6 21.8948 6.14815 21.8948 6.22222C21.8206 7.18519 21.3018 8.07407 20.4866 8.59259V16.3704C20.4866 17.2593 19.7455 18 18.8561 18H17.8185C17.4479 18 17.2256 17.7037 17.2256 17.4074V17.3333V17.2593V10.5926H14.261V17.2593V17.3333V17.4074C14.261 17.7778 13.9646 18 13.6681 18H3.29218C2.40281 18 1.66168 17.2593 1.66168 16.3704V8.74074C0.698197 8.22222 0.105286 7.18519 0.105286 6.07407C0.105286 5.7037 0.1794 5.33333 0.327627 4.96296L1.21699 0.444444C1.21699 0.222222 1.43933 0 1.73579 0H20.2643C20.4866 0 20.7089 0.148148 20.7831 0.444444ZM10.5185 9.47461H10.2146C10.6838 9.25373 11.0816 8.92748 11.3976 8.52539C12.0066 9.30051 12.9201 9.79377 14.0621 9.79377C15.204 9.79377 16.1175 9.30051 16.7265 8.52539C17.3355 9.30051 18.2491 9.79377 19.391 9.79377C19.6194 9.79377 19.8478 9.79377 20 9.7233V16.5584H19.9239C19.9239 16.8403 19.6955 17.0517 19.391 17.0517H18.8581V10.6394C18.8581 10.3575 18.6297 10.0756 18.2491 10.0756H14.0621C13.7575 10.0756 13.453 10.287 13.453 10.6394V17.0517H3.48028C3.17577 17.0517 2.94739 16.8403 2.94739 16.5584V9.7233C3.02352 9.7233 3.09965 9.74092 3.17577 9.75854C3.2519 9.77615 3.32803 9.79377 3.40416 9.79377C4.46995 9.79377 5.45961 9.30051 6.06863 8.52539C6.38456 8.92748 6.78243 9.25373 7.25162 9.47461H5.7973C4.74032 9.47461 3.89473 10.409 3.89473 11.577V13.0564C3.89473 14.2244 4.74032 15.1588 5.7973 15.1588H10.5185C11.5755 15.1588 12.421 14.2244 12.421 13.0564V11.577C12.421 10.409 11.5755 9.47461 10.5185 9.47461ZM7.25162 9.47461C7.6869 9.67953 8.18355 9.79377 8.7331 9.79377C9.28265 9.79377 9.77931 9.67953 10.2146 9.47461H7.25162ZM11.4737 13.4161C11.4737 13.8788 11.1093 14.2093 10.5992 14.2093H5.71661C5.20649 14.2093 4.84212 13.8788 4.84212 13.4161V12.1603C4.84212 11.6977 5.20649 11.3672 5.71661 11.3672H10.5992C11.1093 11.3672 11.4737 11.6977 11.4737 12.1603V13.4161ZM18.8293 8.52709C19.964 8.52709 20.8717 7.6714 20.8717 6.60179L20.9474 6.53048L20.0396 1.89551H2.036L1.20391 5.81741V5.88872C1.12826 6.10264 1.05261 6.38787 1.05261 6.60179C1.05261 7.6714 1.96036 8.52709 3.09504 8.52709C4.22972 8.52709 5.13747 7.6714 5.13747 6.60179C5.13747 6.31656 5.21311 6.03133 5.59134 6.03133C5.96956 6.03133 6.1965 6.31656 6.1965 6.60179C6.1965 7.6714 7.10425 8.52709 8.23893 8.52709C9.37361 8.52709 10.2814 7.6714 10.2814 6.60179C10.2814 6.24525 10.5083 6.03133 10.8865 6.03133C11.2647 6.03133 11.4917 6.31656 11.4917 6.60179C11.4917 7.6714 12.3994 8.52709 13.5341 8.52709C14.6688 8.52709 15.5765 7.6714 15.5765 6.60179C15.5765 6.24525 15.8035 6.03133 16.1817 6.03133C16.5599 6.03133 16.7869 6.31656 16.7869 6.60179C16.7869 7.6714 17.6946 8.52709 18.8293 8.52709Z" fill="#949494"/>
</svg>
