<svg width="40" height="40" viewBox="0 0 40 40" fill="none" xmlns="http://www.w3.org/2000/svg">
<rect width="40" height="40" rx="20" fill="#F4F4F6"/>
<path d="M27.6386 24.1667H12.3608" stroke="#0CA201" stroke-miterlimit="10"/>
<path d="M24.8608 20.646V22.0835C24.8608 22.636 25.0803 23.1659 25.471 23.5566C25.8617 23.9473 26.3916 24.1668 26.9442 24.1668" stroke="#0CA201" stroke-miterlimit="10"/>
<path d="M13.0552 24.1668C13.6077 24.1668 14.1375 23.9473 14.5282 23.5566C14.9189 23.1659 15.1385 22.636 15.1385 22.0834V17.9168C15.1385 16.6275 15.6505 15.3911 16.5622 14.4795C17.4738 13.5678 18.7104 13.0557 19.9996 13.0557" stroke="#0CA201" stroke-miterlimit="10"/>
<path d="M22.0832 24.8682C22.0832 25.4207 21.8635 25.9506 21.4728 26.3413C21.0821 26.732 20.5524 26.9515 19.9998 26.9515C19.4473 26.9515 18.9174 26.732 18.5267 26.3413C18.136 25.9506 17.9165 25.4207 17.9165 24.8682" stroke="#0CA201" stroke-miterlimit="10"/>
<path d="M24.3124 18.6112C25.8466 18.6112 27.0902 17.3676 27.0902 15.8334C27.0902 14.2993 25.8466 13.0557 24.3124 13.0557C22.7783 13.0557 21.5347 14.2993 21.5347 15.8334C21.5347 17.3676 22.7783 18.6112 24.3124 18.6112Z" stroke="#0CA201" stroke-miterlimit="10"/>
</svg>
