<svg width="16" height="17" viewBox="0 0 16 17" fill="none" xmlns="http://www.w3.org/2000/svg">
<path fill-rule="evenodd" clip-rule="evenodd" d="M13.3333 4.6665C13.3333 4.6665 4.0211 4.6665 2.33333 4.6665C1.20547 4.6665 0.5 5.76328 0.5 6.49446V14.3123C0.5 15.2445 1.25753 15.9998 2.19253 15.9998H13.4741C14.4088 15.9998 15.1667 15.2445 15.1667 14.3123V6.43816C15.1667 5.507 14.268 4.6665 13.3333 4.6665Z" stroke="#949494" stroke-linecap="round" stroke-linejoin="round"/>
<path d="M11.8333 3.88048V2.65971C11.8333 1.44295 11.5787 1.09192 10.1149 1.49007C9.03967 1.78267 2.7479 3.58168 2.7479 3.58168C0.81025 4.33489 0.514521 4.97596 0.514521 6.43673L0.5 7.3335" stroke="#949494" stroke-linejoin="round"/>
</svg>
