<svg width="18" height="22" viewBox="0 0 18 22" fill="none" xmlns="http://www.w3.org/2000/svg">
<path d="M1 17.6458V7.05426C1 4.20025 1 2.77325 1.87868 1.88663C2.75736 1 4.17157 1 7 1H11C13.8284 1 15.2426 1 16.1213 1.88663C17 2.77325 17 4.20025 17 7.05426V17.6458C17 19.1575 17 19.9133 16.538 20.2108C15.7831 20.6971 14.6161 19.6774 14.0291 19.3073C13.5441 19.0014 13.3017 18.8485 13.0325 18.8397C12.7417 18.8301 12.4949 18.9768 11.9709 19.3073L10.06 20.5124C9.54454 20.8374 9.28679 21 9 21C8.71321 21 8.45546 20.8374 7.94 20.5124L6.02913 19.3073C5.54415 19.0014 5.30166 18.8485 5.03253 18.8397C4.74172 18.8301 4.49493 18.9768 3.97087 19.3073C3.38395 19.6774 2.21687 20.6971 1.46195 20.2108C1 19.9133 1 19.1575 1 17.6458Z" stroke="#141B34" stroke-width="1.5" stroke-linecap="round" stroke-linejoin="round"/>
<path d="M8 10H5" stroke="#141B34" stroke-width="1.5" stroke-linecap="round" stroke-linejoin="round"/>
<path d="M11 6L5 6" stroke="#141B34" stroke-width="1.5" stroke-linecap="round" stroke-linejoin="round"/>
</svg>
