<svg width="32" height="30" viewBox="0 0 32 30" fill="none" xmlns="http://www.w3.org/2000/svg">
<path d="M20.704 3.98739V2.74463H11.9307V3.98739C11.9307 4.22881 11.866 4.46604 11.7432 4.67517L9.93625 7.75289C9.76085 8.05167 9.66846 8.3905 9.66846 8.73544V19.5003C9.66846 20.4779 10.4753 21.2704 11.4706 21.2704H21.164C22.1593 21.2704 22.9661 20.4779 22.9661 19.5003V8.73535C22.9661 8.39041 22.8738 8.05158 22.6984 7.75279L20.8914 4.67508C20.7687 4.46603 20.704 4.22881 20.704 3.98739Z" fill="#5242C6"/>
<path d="M22.6979 7.75289L20.891 4.67517C20.7682 4.46604 20.7035 4.22881 20.7035 3.98739V2.74463H18.813V3.98739C18.813 4.22881 18.8776 4.46604 19.0005 4.67517L20.8074 7.75289C20.9828 8.05167 21.0752 8.3905 21.0752 8.73544V19.5003C21.0752 20.4779 20.2684 21.2704 19.2731 21.2704H21.1636C22.1589 21.2704 22.9657 20.4779 22.9657 19.5003V8.73535C22.9656 8.3905 22.8733 8.05167 22.6979 7.75289Z" fill="#3D369E"/>
<path d="M21.4079 16.9618H11.2267C11.0055 16.9618 10.8262 16.7857 10.8262 16.5685V11.5655C10.8262 11.3482 11.0055 11.1721 11.2267 11.1721H21.4079C21.629 11.1721 21.8084 11.3482 21.8084 11.5655V16.5685C21.8084 16.7857 21.629 16.9618 21.4079 16.9618Z" fill="#F9AB70"/>
<path d="M21.4079 11.1721H20.4893C20.7104 11.1721 20.8897 11.3482 20.8897 11.5655V16.5685C20.8897 16.7857 20.7104 16.9618 20.4893 16.9618H21.4079C21.629 16.9618 21.8083 16.7857 21.8083 16.5685V11.5655C21.8083 11.3482 21.629 11.1721 21.4079 11.1721Z" fill="#E89B67"/>
<path d="M21.8083 11.9202H10.8262V16.2147H21.8083V11.9202Z" fill="#FFC197"/>
<path d="M21.8083 11.9202H20.8896V16.2147H21.8083V11.9202Z" fill="#EFAA7B"/>
<path d="M21.2124 2.74482H11.4226C10.7591 2.74482 10.2212 2.21647 10.2212 1.56472V1.1801C10.2212 0.528352 10.7591 0 11.4226 0H21.2124C21.8759 0 22.4137 0.528352 22.4137 1.1801V1.56472C22.4137 2.21656 21.8759 2.74482 21.2124 2.74482Z" fill="#F9AB70"/>
<path d="M21.2127 0H11.4229C11.1712 0 10.9378 0.0763381 10.7446 0.206305H20.2556C20.9192 0.206305 21.4571 0.734658 21.4571 1.38641V1.77102C21.4571 2.17542 21.2497 2.53213 20.9339 2.74473H21.2127C21.8762 2.74473 22.414 2.21638 22.414 1.56462V1.18001C22.414 0.528352 21.8762 0 21.2127 0Z" fill="#E89B67"/>
<path d="M17.6075 13.8265H16.5622V12.7998H16.0726V13.8265H15.0273V14.3075H16.0726V15.3341H16.5622V14.3075H17.6075V13.8265Z" fill="#5242C6"/>
<path d="M16.5624 12.7998H16.3901V13.8265H16.5624V12.7998Z" fill="#3D369E"/>
<path d="M17.6073 13.8264H17.4351V14.3073H17.6073V13.8264Z" fill="#3D369E"/>
<path d="M16.5624 14.3071H16.3901V15.3338H16.5624V14.3071Z" fill="#3D369E"/>
<path d="M20.7041 2.74463H11.9678V3.41179H20.7041V2.74463Z" fill="#3D369E"/>
<path d="M10.7168 2.51874C10.8084 2.58414 10.9095 2.63695 11.018 2.67507V0.0700684C10.9095 0.108192 10.8084 0.161 10.7168 0.226394V2.51874Z" fill="#FFC197"/>
<path d="M12.0092 0H11.708V2.74473H12.0092V0Z" fill="#FFC197"/>
<path d="M13 0H12.6987V2.74473H13V0Z" fill="#FFC197"/>
<path d="M13.9912 0H13.6899V2.74473H13.9912V0Z" fill="#FFC197"/>
<path d="M14.9814 0H14.6802V2.74473H14.9814V0Z" fill="#FFC197"/>
<path d="M15.9726 0H15.6714V2.74473H15.9726V0Z" fill="#FFC197"/>
<path d="M16.9628 0H16.6616V2.74473H16.9628V0Z" fill="#FFC197"/>
<path d="M17.9541 0H17.6528V2.74473H17.9541V0Z" fill="#FFC197"/>
<path d="M18.9448 0H18.6436V2.74473H18.9448V0Z" fill="#FFC197"/>
<path d="M19.936 0H19.6348V2.74473H19.936V0Z" fill="#FFC197"/>
<path d="M20.9267 0H20.6255V2.74473H20.9267V0Z" fill="#FFC197"/>
<path d="M11.0183 0.207V0.0705566C10.9219 0.104394 10.8326 0.151456 10.7495 0.207H11.0183Z" fill="#EFAA7B"/>
<path d="M12.0092 0H11.708V0.206305H12.0092V0Z" fill="#EFAA7B"/>
<path d="M13 0H12.6987V0.206305H13V0Z" fill="#EFAA7B"/>
<path d="M13.9912 0H13.6899V0.206305H13.9912V0Z" fill="#EFAA7B"/>
<path d="M14.9814 0H14.6802V0.206305H14.9814V0Z" fill="#EFAA7B"/>
<path d="M15.9726 0H15.6714V0.206305H15.9726V0Z" fill="#EFAA7B"/>
<path d="M16.9628 0H16.6616V0.206305H16.9628V0Z" fill="#EFAA7B"/>
<path d="M17.9541 0H17.6528V0.206305H17.9541V0Z" fill="#EFAA7B"/>
<path d="M18.9448 0H18.6436V0.206305H18.9448V0Z" fill="#EFAA7B"/>
<path d="M19.936 0H19.6348V0.206305H19.936V0Z" fill="#EFAA7B"/>
<path d="M20.9267 0.408175V0.000488281H20.6255V0.264527C20.7333 0.298729 20.8346 0.347068 20.9267 0.408175Z" fill="#EFAA7B"/>
<path d="M21.6162 2.67507C21.7248 2.63695 21.8259 2.58414 21.9174 2.51874V0.226394C21.8259 0.161 21.7248 0.108192 21.6162 0.0700684V2.67507Z" fill="#EFAA7B"/>
<path d="M18.7943 8.21763H16.6621C16.6069 8.21763 16.562 8.17367 16.562 8.11932C16.562 8.06496 16.6069 8.021 16.6621 8.021H18.7944C18.8497 8.021 18.8945 8.06496 18.8945 8.11932C18.8945 8.17367 18.8497 8.21763 18.7943 8.21763Z" fill="#3D369E"/>
<path d="M14.8176 9.96324H12.23C12.1747 9.96324 12.1299 9.91928 12.1299 9.86492C12.1299 9.81056 12.1747 9.7666 12.23 9.7666H14.8176C14.8729 9.7666 14.9177 9.81056 14.9177 9.86492C14.9177 9.91919 14.8729 9.96324 14.8176 9.96324Z" fill="#3D369E"/>
<path d="M19.2428 18.0528H16.9497C16.8945 18.0528 16.8496 18.0089 16.8496 17.9545C16.8496 17.9002 16.8945 17.8562 16.9497 17.8562H19.2428C19.2981 17.8562 19.3429 17.9002 19.3429 17.9545C19.3429 18.0089 19.2981 18.0528 19.2428 18.0528Z" fill="#3D369E"/>
<path d="M15.7648 20.1173H14.1597C14.1044 20.1173 14.0596 20.0733 14.0596 20.019C14.0596 19.9646 14.1044 19.9207 14.1597 19.9207H15.7648C15.8201 19.9207 15.8649 19.9646 15.8649 20.019C15.8649 20.0733 15.8202 20.1173 15.7648 20.1173Z" fill="#3D369E"/>
<path d="M17.2154 4.98912H15.4199C15.3647 4.98912 15.3198 4.94516 15.3198 4.8908C15.3198 4.83644 15.3647 4.79248 15.4199 4.79248H17.2154C17.2707 4.79248 17.3155 4.83644 17.3155 4.8908C17.3155 4.94507 17.2708 4.98912 17.2154 4.98912Z" fill="#3D369E"/>
<path d="M9.66846 18.8785H11.7517C11.807 18.8785 11.8518 18.8346 11.8518 18.7802C11.8518 18.7258 11.807 18.6819 11.7517 18.6819H9.66846V18.8785Z" fill="#3D369E"/>
<path d="M10.9204 6.07725H13.2429C13.2981 6.07725 13.343 6.03329 13.343 5.97893C13.343 5.92457 13.2981 5.88062 13.2429 5.88062H11.0359L10.9204 6.07725Z" fill="#3D369E"/>
<path d="M20.567 19.7791C16.7728 21.6029 15.3314 24.498 17.3481 26.2452C19.3646 27.9926 24.0754 27.9307 27.8696 26.1069C31.6639 24.283 33.1052 21.3879 31.0885 19.6408C29.0718 17.8933 24.361 17.9552 20.567 19.7791Z" fill="#65B6F8"/>
<path d="M12.8676 22.2008C11.5014 21.5572 9.70681 21.1629 7.73461 21.1629C5.7624 21.1629 3.96786 21.5572 2.60165 22.2008L0 20.5332V25.2597C0 27.5224 3.46292 29.3564 7.73461 29.3564C12.0066 29.3564 15.4695 27.5221 15.4695 25.2597V20.5332L12.8676 22.2008Z" fill="#C4A8A5"/>
<path d="M7.73461 16.4365C3.46292 16.4365 0 18.2708 0 20.5336C0 22.796 3.46292 24.6303 7.73461 24.6303C12.0066 24.6303 15.4695 22.796 15.4695 20.5336C15.4695 18.2708 12.0063 16.4365 7.73461 16.4365Z" fill="#EFE2E1"/>
<path d="M4.78921 16.8086L1.97852 17.7994L11.7547 24.032L12.9792 23.5417C12.9792 23.5417 14.033 22.8784 13.924 22.809C13.8154 22.74 4.78921 16.8086 4.78921 16.8086Z" fill="#D1B8B4"/>
</svg>
