<svg width="40" height="52" viewBox="0 0 40 52" fill="none" xmlns="http://www.w3.org/2000/svg">
<path d="M10.4744 38.5049H26.1179C26.5326 38.5049 26.8686 38.8408 26.8686 39.2556V51.8304H7.56348V41.4159C7.56348 39.8093 8.86788 38.5049 10.4744 38.5049Z" fill="#FFC727"/>
<path opacity="0.6" d="M10.4744 38.5049H26.1179C26.5326 38.5049 26.8686 38.8408 26.8686 39.2556V51.8304H7.56348V41.4159C7.56348 39.8093 8.86788 38.5049 10.4744 38.5049Z" fill="white"/>
<path opacity="0.3" d="M26.8669 49.1879V51.8305H7.56738V43.6475C8.07225 47.3223 15.6547 51.883 25.7839 49.3943C26.1555 49.3061 26.5197 49.231 26.8687 49.186L26.8669 49.1879Z" fill="#FFC727"/>
<path d="M37.8629 51.0499C38.1163 51.0499 38.3303 50.9898 38.5048 50.8866V51.8306H23.4639V40.8005C23.4639 39.4098 24.6913 38.3381 26.0689 38.5276L38.5048 40.2318V48.6813C38.3303 48.5781 38.1163 48.5162 37.8629 48.5162C36.2301 48.5162 36.2338 51.0499 37.8629 51.0499Z" fill="#FFC727"/>
<path opacity="0.4" d="M37.8629 51.0499C38.1163 51.0499 38.3303 50.9898 38.5048 50.8866V51.8306H23.4639V40.8005C23.4639 39.4098 24.6913 38.3381 26.0689 38.5276L38.5048 40.2318V48.6813C38.3303 48.5781 38.1163 48.5162 37.8629 48.5162C36.2301 48.5162 36.2338 51.0499 37.8629 51.0499Z" fill="white"/>
<g opacity="0.1">
<path d="M26.1309 41.915C27.76 41.915 27.7637 44.4469 26.1309 44.4469C24.498 44.4469 24.498 41.915 26.1309 41.915Z" fill="black"/>
<path d="M37.1182 42.938C37.7564 42.938 37.7564 43.929 37.1182 43.929C36.4801 43.929 36.4801 42.938 37.1182 42.938Z" fill="black"/>
<path d="M27.0767 48.9028C27.7149 48.9028 27.7149 49.8938 27.0767 49.8938C26.4386 49.8938 26.4386 48.9028 27.0767 48.9028Z" fill="black"/>
<path d="M31.72 46.7573C32.7016 46.7573 32.7035 48.2813 31.72 48.2813C30.7366 48.2813 30.7366 46.7573 31.72 46.7573Z" fill="black"/>
<path d="M35.012 41.3936C35.9936 41.3936 35.9955 42.9175 35.012 42.9175C34.0285 42.9175 34.0285 41.3936 35.012 41.3936Z" fill="black"/>
</g>
<path opacity="0.3" d="M39.9152 3.20815C39.6165 2.59017 36.0992 2.10352 31.8017 2.10352C27.5042 2.10352 23.9869 2.59017 23.6882 3.20815H23.6728V3.24934C23.6702 3.26479 23.665 3.27766 23.665 3.29311C23.665 3.30856 23.6702 3.32144 23.6728 3.33689V34.9591C27.9651 37.1117 36.9643 36.5813 39.9383 34.9591V3.20815H39.9152Z" fill="#F5F5F5"/>
<g opacity="0.8">
<path d="M38.7613 32.9014C35.5144 34.5983 28.5364 34.6369 24.8955 32.9014V11.6509L29.3938 12.395C30.5886 12.5933 31.8039 12.6087 33.0038 12.4439L38.7613 11.6509V32.9014Z" fill="#EBEBEB"/>
</g>
<path d="M38.7613 11.6671C38.7613 12.3237 35.674 12.8567 31.8658 12.8567C28.0575 12.8567 24.9702 12.3237 24.9702 11.6671C24.9702 11.0105 28.0575 10.4775 31.8658 10.4775C35.674 10.4775 38.7613 11.0105 38.7613 11.6671Z" fill="#EBEBEB"/>
<path d="M38.7613 11.6671C38.7613 12.3237 35.674 12.8567 31.8658 12.8567C28.0575 12.8567 24.9702 12.3237 24.9702 11.6671C24.9702 11.0105 28.0575 10.4775 31.8658 10.4775C35.674 10.4775 38.7613 11.0105 38.7613 11.6671Z" fill="#F5F5F5"/>
<path d="M24.7383 8.00781C24.7744 8.00781 24.8053 13.4305 24.8053 20.1175C24.8053 26.8045 24.7744 32.2298 24.7383 32.2298C24.7023 32.2298 24.6714 26.8071 24.6714 20.1175C24.6714 13.428 24.7023 8.00781 24.7383 8.00781Z" fill="#263238"/>
<path d="M23.665 3.19264C23.665 3.19264 23.6676 3.25702 23.7449 3.33684C23.8195 3.41666 23.9611 3.49906 24.1568 3.57373C24.5508 3.72307 25.1507 3.85439 25.9 3.96511C27.3986 4.18397 29.492 4.31787 31.8017 4.31787C34.1139 4.31787 36.2073 4.18397 37.7059 3.96511C38.4526 3.85439 39.0551 3.72565 39.4491 3.57373C39.6448 3.49906 39.789 3.41666 39.8611 3.33684C39.9358 3.25702 39.9306 3.19264 39.9409 3.19264C39.9409 3.19007 39.9589 3.26217 39.8817 3.35229C39.8096 3.44241 39.6654 3.5351 39.4671 3.62008C39.0732 3.78744 38.4706 3.93421 37.7188 4.05523C36.2176 4.29985 34.1191 4.44662 31.8017 4.44662C29.4843 4.44662 27.3857 4.29727 25.8846 4.05523C25.1353 3.93164 24.5328 3.78744 24.1362 3.62008C23.9405 3.5351 23.7938 3.44241 23.7217 3.35229C23.647 3.25959 23.6625 3.18749 23.6625 3.19264H23.665Z" fill="#263238"/>
<path d="M39.9148 3.20851H39.938C39.9406 3.22138 39.9457 3.43768 39.9483 3.84451C39.9483 4.25392 39.9534 4.84614 39.9586 5.61346C39.9637 7.15324 39.9689 9.38567 39.9766 12.1897C39.9818 17.8081 39.9921 25.7182 39.9998 34.9569V34.9955L39.9663 35.011C38.805 35.5955 37.5021 35.8813 36.1812 36.0976C34.8552 36.3061 33.4879 36.4117 32.0949 36.4375C30.7044 36.4632 29.2857 36.3911 27.8643 36.1928C26.4481 35.9869 25.0088 35.6701 23.6724 35.029L23.6415 35.0161L23.6055 35.0007V34.9569C23.6106 22.8008 23.6183 11.6979 23.6209 3.33468V3.34755C23.6106 3.30635 23.6132 3.27031 23.6209 3.23426V3.15444H23.6853L23.6389 3.18276C23.7368 3.01797 23.8939 2.94587 24.0381 2.87893C24.1848 2.81198 24.3367 2.76305 24.4861 2.71928C24.7873 2.63173 25.0912 2.56736 25.3899 2.51071C25.9898 2.39999 26.5795 2.3279 27.1537 2.26867C28.3021 2.15538 29.3887 2.10388 30.4058 2.07813C32.4399 2.03179 34.196 2.09616 35.6276 2.21203C37.0593 2.3279 38.1639 2.49784 38.8977 2.69353C39.2634 2.79138 39.5363 2.89695 39.7011 2.99994C39.8736 3.10036 39.9097 3.20336 39.9097 3.20336C39.9071 3.20851 39.8659 3.10551 39.6934 3.01282C39.5286 2.91497 39.2556 2.81455 38.89 2.72186C38.1587 2.53646 37.0515 2.37424 35.6225 2.26867C34.1934 2.1631 32.4399 2.10646 30.4083 2.15796C29.3938 2.18628 28.3072 2.24035 27.164 2.3588C26.5923 2.41802 26.0053 2.49269 25.4079 2.60341C25.1092 2.66006 24.8105 2.72443 24.5144 2.81198C24.3676 2.85832 24.2183 2.90467 24.0792 2.96904C23.9428 3.03084 23.796 3.11066 23.7291 3.22653L23.7136 3.25486H23.6698L23.7213 3.20336V3.25743C23.7136 3.27803 23.7136 3.29863 23.7213 3.3218V3.33468C23.7265 11.6979 23.7342 22.8008 23.7394 34.9569L23.7033 34.8977L23.7342 34.9105C25.0474 35.5388 26.4765 35.8581 27.8849 36.0615C29.2985 36.2598 30.7096 36.3319 32.0949 36.3061C33.4802 36.283 34.8423 36.1774 36.1632 35.9714C37.4764 35.7577 38.7741 35.4719 39.9097 34.9002L39.8762 34.9543C39.8865 25.713 39.8942 17.803 39.8994 12.1871C39.9071 9.38309 39.9122 7.15066 39.9174 5.61088C39.9225 4.84356 39.9251 4.25134 39.9277 3.84193C39.9303 3.4351 39.9354 3.21881 39.938 3.20593H39.9148V3.20851Z" fill="#263238"/>
<path d="M9.11545 38.4502H21.2754L21.2754 6.78224H9.11545L9.11545 38.4502Z" fill="#37474F"/>
<path d="M0.0800676 38.4502H9.11572L9.11572 6.7741H0.0800676L0.0800676 38.4502Z" fill="#455A64"/>
<path d="M9.11572 6.77268L15.1949 1.69531L21.2757 6.78082L9.11572 6.77268Z" fill="#455A64"/>
<path d="M6.15891 1.69092H15.1946L9.11541 6.77317H0.078125L6.15891 1.69092Z" fill="#37474F"/>
<path d="M9.11541 38.4488V18.1459C7.87905 17.8706 6.56777 18.1003 5.45847 18.8528L5.02355 19.1477L4.78084 19.3122C2.33093 20.8255 0.078125 19.3155 0.078125 19.3155V38.4586L9.11378 38.4472L9.11541 38.4488Z" fill="white"/>
<path d="M9.11547 38.4489C9.08778 33.3862 9.05846 23.207 9.05031 18.146L9.10081 18.2095C8.33033 18.0401 7.51749 18.071 6.7633 18.304C5.98142 18.519 5.36731 19.0288 4.68642 19.4491C3.27577 20.2994 1.43183 20.2424 0.0342073 19.3823L0.158006 19.3155C0.143346 19.2976 0.184068 38.6509 0.0781878 38.4147L9.11384 38.4473L9.11547 38.4489ZM9.11547 38.4489C9.06823 38.4375 0.0781887 38.5124 0.0358366 38.5043C0.0211762 38.5043 0.00977356 19.3318 0 19.3172V19.1754C1.36015 20.0567 3.20573 20.1691 4.61149 19.322C5.28749 18.9083 5.93744 18.3822 6.72421 18.172C7.5175 17.9293 8.37431 17.9065 9.18063 18.0955C9.19366 18.1183 9.14968 28.2811 9.15782 28.3154L9.11547 38.4489Z" fill="#455A64"/>
<path d="M21.2753 38.4488L21.2704 18.1459C19.6089 17.8706 17.8464 18.1003 16.3543 18.8528L15.7712 19.1477L15.4454 19.3122C12.1517 20.8255 10.6319 18.7193 9.12354 18.1475L9.12842 38.4586L21.277 38.4505L21.2753 38.4488Z" fill="#EBEBEB"/>
<path d="M2.83135 14.2204V16.1018C2.83135 16.1979 2.75479 16.2777 2.66683 16.2777C2.57887 16.2777 2.50556 16.1979 2.50556 16.1018V14.7595L2.08367 15.3964C2.05109 15.4437 2.00385 15.4697 1.95173 15.4697H1.94521C1.89309 15.4697 1.84259 15.4437 1.81001 15.3964L1.38975 14.7595V16.1018C1.38975 16.1979 1.31645 16.2777 1.22523 16.2777C1.13401 16.2777 1.06396 16.1979 1.06396 16.1018V14.2204C1.06396 14.1243 1.13727 14.0444 1.22523 14.0444H1.23337C1.28061 14.0444 1.33274 14.0705 1.36206 14.1177L1.94521 14.9974L2.52837 14.1177C2.56095 14.0705 2.60819 14.0444 2.66031 14.0444H2.66357C2.75153 14.0477 2.82809 14.1243 2.82809 14.2204H2.83135Z" fill="white"/>
<path d="M3.5625 14.2204C3.5625 14.121 3.63254 14.0444 3.72376 14.0444C3.81498 14.0444 3.88829 14.121 3.88829 14.2204V16.1018C3.88829 16.2011 3.81173 16.2777 3.72376 16.2777C3.6358 16.2777 3.5625 16.2011 3.5625 16.1018V14.2204Z" fill="white"/>
<path d="M4.43701 16.1018V14.2204C4.43701 14.1243 4.50706 14.0444 4.59828 14.0444C4.68949 14.0444 4.7628 14.1243 4.7628 14.2204V15.9226H5.55771C5.64242 15.9226 5.71898 16.0024 5.71898 16.1018C5.71898 16.2011 5.64242 16.2777 5.55771 16.2777H4.59828C4.50706 16.2777 4.43701 16.1979 4.43701 16.1018Z" fill="white"/>
<path d="M6.08887 16.1016V14.2365C6.08887 14.1436 6.15891 14.0605 6.25013 14.0605C6.34135 14.0605 6.4114 14.1436 6.4114 14.2365V15.1519L7.36106 14.1159C7.42622 14.0459 7.52558 14.0459 7.58911 14.1159C7.65101 14.1827 7.65101 14.2951 7.58911 14.3652L6.94405 15.064L7.59562 15.9925C7.65427 16.0658 7.64286 16.1765 7.57282 16.2384C7.5435 16.2677 7.50766 16.2808 7.4702 16.2808C7.42622 16.2808 7.38223 16.258 7.34966 16.2172L6.716 15.3148L6.4114 15.6536V16.1065C6.4114 16.2026 6.34135 16.2824 6.25013 16.2824C6.15891 16.2824 6.08887 16.2026 6.08887 16.1065V16.1016Z" fill="white"/>
<path d="M11.8725 22.0359L18.5234 22.0405L18.5237 21.6072L11.8728 21.6026L11.8725 22.0359Z" fill="#C7C7C7"/>
<path d="M11.8706 23.7219L18.5215 23.7266L18.5218 23.2933L11.8709 23.2886L11.8706 23.7219Z" fill="#C7C7C7"/>
<path d="M11.8706 25.4094L18.5215 25.4141L18.5218 24.9808L11.8709 24.9761L11.8706 25.4094Z" fill="#C7C7C7"/>
<path d="M11.8676 28.7815L18.5186 28.7861L18.5189 28.3528L11.868 28.3482L11.8676 28.7815Z" fill="#C7C7C7"/>
<path d="M11.8652 32.4206L18.5161 32.4253L18.5164 31.992L11.8655 31.9874L11.8652 32.4206Z" fill="#C7C7C7"/>
<path d="M11.8647 33.8425L18.5156 33.8472L18.5159 33.4139L11.865 33.4092L11.8647 33.8425Z" fill="#C7C7C7"/>
<path d="M6.16243 1.68896L15.1948 1.68896V-0.00023222L6.16243 -0.00023222V1.68896Z" fill="#455A64"/>
<path opacity="0.1" d="M15.1948 1.69092V6.77806L21.2756 6.78131L15.1948 1.69092Z" fill="black"/>
<path d="M3.59861 2.58936L7.63672 2.58936V1.30413L3.59861 1.30413V2.58936Z" fill="#FFC727"/>
<path d="M4.05948 4.53125H7.17236V2.58631L4.05948 2.58631V4.53125Z" fill="#455A64"/>
<path d="M4.05786 4.53125H4.95703V2.58631H4.05786V4.53125Z" fill="#37474F"/>
</svg>
