<svg width="26" height="38" viewBox="0 0 26 38" fill="none" xmlns="http://www.w3.org/2000/svg">
<path d="M12.3554 14.5506C12.3554 14.5506 11.8213 13.5201 11.1725 13.1384C10.5238 12.7566 9.104 13.4054 9.104 13.4054C9.104 13.4054 9.9427 12.5291 10.6291 12.3392C11.3155 12.1492 12.3065 12.9484 12.3065 12.9484C12.2256 12.4178 12.0998 11.895 11.9304 11.3857C11.6257 10.4323 10.8641 9.28711 10.8641 9.28711C10.8641 9.28711 12.2369 10.1258 12.5415 10.6994C12.767 11.1666 12.9556 11.6507 13.1057 12.1473C13.1057 12.1473 13.3351 11.0792 13.525 10.737C13.715 10.3947 14.7079 10.0882 14.7079 10.0882C14.7079 10.0882 14.0591 10.9664 13.982 11.3463C13.9049 11.7261 13.8297 12.5667 13.8297 12.5667C14.1279 12.3335 14.4637 12.1529 14.8226 12.0326C15.2795 11.9198 15.8888 12.5667 15.8888 12.5667C15.5101 12.5294 15.1282 12.5943 14.7831 12.7547C14.2603 13.0199 13.6886 15.0884 13.6886 15.0884L12.5453 14.9737L12.3554 14.5506Z" fill="#32CD32"/>
<mask id="mask0_314_8667" style="mask-type:luminance" maskUnits="userSpaceOnUse" x="9" y="9" width="7" height="7">
<path d="M12.3554 14.5506C12.3554 14.5506 11.8213 13.5201 11.1725 13.1384C10.5238 12.7566 9.104 13.4054 9.104 13.4054C9.104 13.4054 9.9427 12.5291 10.6291 12.3392C11.3155 12.1492 12.3065 12.9484 12.3065 12.9484C12.2256 12.4178 12.0998 11.895 11.9304 11.3857C11.6257 10.4323 10.8641 9.28711 10.8641 9.28711C10.8641 9.28711 12.2369 10.1258 12.5415 10.6994C12.767 11.1666 12.9556 11.6507 13.1057 12.1473C13.1057 12.1473 13.3351 11.0792 13.525 10.737C13.715 10.3947 14.7079 10.0882 14.7079 10.0882C14.7079 10.0882 14.0591 10.9664 13.982 11.3463C13.9049 11.7261 13.8297 12.5667 13.8297 12.5667C14.1279 12.3335 14.4637 12.1529 14.8226 12.0326C15.2795 11.9198 15.8888 12.5667 15.8888 12.5667C15.5101 12.5294 15.1282 12.5943 14.7831 12.7547C14.2603 13.0199 13.6886 15.0884 13.6886 15.0884L12.5453 14.9737L12.3554 14.5506Z" fill="white"/>
</mask>
<g mask="url(#mask0_314_8667)">
<path opacity="0.37" d="M12.3554 14.5506C12.3554 14.5506 11.8213 13.5201 11.1725 13.1384C10.5238 12.7566 9.104 13.4054 9.104 13.4054C9.104 13.4054 9.9427 12.5291 10.6291 12.3392C11.3155 12.1492 12.3065 12.9484 12.3065 12.9484C12.2256 12.4178 12.0998 11.895 11.9304 11.3857C11.6257 10.4323 10.8641 9.28711 10.8641 9.28711C10.8641 9.28711 12.2369 10.1258 12.5415 10.6994C12.767 11.1666 12.9556 11.6507 13.1057 12.1473C13.1057 12.1473 13.3351 11.0792 13.525 10.737C13.715 10.3947 14.7079 10.0882 14.7079 10.0882C14.7079 10.0882 14.0591 10.9664 13.982 11.3463C13.9049 11.7261 13.8297 12.5667 13.8297 12.5667C14.1279 12.3335 14.4637 12.1529 14.8226 12.0326C15.2795 11.9198 15.8888 12.5667 15.8888 12.5667C15.5101 12.5294 15.1282 12.5943 14.7831 12.7547C14.2603 13.0199 13.6886 15.0884 13.6886 15.0884L12.5453 14.9737L12.3554 14.5506Z" fill="black"/>
</g>
<path d="M12.3554 14.5506C12.3554 14.5506 11.8213 13.5201 11.1725 13.1384C10.5238 12.7566 9.104 13.4054 9.104 13.4054C9.104 13.4054 9.9427 12.5291 10.6291 12.3392C11.3155 12.1492 12.3065 12.9484 12.3065 12.9484C12.2256 12.4178 12.0998 11.895 11.9304 11.3857C11.6257 10.4323 10.8641 9.28711 10.8641 9.28711C10.8641 9.28711 12.2369 10.1258 12.5415 10.6994C12.767 11.1666 12.9556 11.6507 13.1057 12.1473C13.1057 12.1473 13.3351 11.0792 13.525 10.737C13.715 10.3947 14.7079 10.0882 14.7079 10.0882C14.7079 10.0882 14.0591 10.9664 13.982 11.3463C13.9049 11.7261 13.8297 12.5667 13.8297 12.5667C14.1279 12.3335 14.4637 12.1529 14.8226 12.0326C15.2795 11.9198 15.8888 12.5667 15.8888 12.5667C15.5101 12.5294 15.1282 12.5943 14.7831 12.7547C14.2603 13.0199 13.6886 15.0884 13.6886 15.0884L12.5453 14.9737L12.3554 14.5506Z" stroke="#263238" stroke-width="0.188049" stroke-linecap="round" stroke-linejoin="round"/>
<path d="M12.3554 14.5507C12.3554 14.5507 12.1673 13.3679 11.7442 12.7586C11.3211 12.1493 9.7998 11.5758 9.7998 11.5758C9.7998 11.5758 11.1726 11.3087 11.9737 11.8804C12.7747 12.4521 13.1546 13.979 13.1546 13.979C13.1546 13.979 13.384 12.2998 14.108 11.5344C14.832 10.769 16.7012 11.7619 16.7012 11.7619C16.7012 11.7619 15.2908 11.3426 14.8339 12.029C14.4977 12.5929 14.2288 13.1944 14.0328 13.8211C14.0328 13.8211 14.9467 13.2569 15.4432 13.5164C15.9396 13.7759 16.1295 14.6222 16.1295 14.6222C16.1295 14.6222 15.1761 14.0129 14.6797 14.1652C14.1832 14.3175 13.384 15.5756 13.384 15.5756L12.5829 15.3085L12.3554 14.5507Z" fill="#32CD32" stroke="#263238" stroke-width="0.188049" stroke-linecap="round" stroke-linejoin="round"/>
<path d="M12.3273 15.9762C12.0853 15.5884 11.8631 15.1886 11.6617 14.7783C11.4322 14.2838 11.1276 13.9791 10.7082 14.0543C10.3447 14.1566 9.99762 14.3105 9.67773 14.5113C9.67773 14.5113 10.4412 13.4827 11.4322 13.5203C12.4233 13.5579 12.805 14.8178 12.805 14.8178C12.8071 14.5123 12.8755 14.2108 13.0053 13.9342C13.1352 13.6576 13.3235 13.4125 13.5572 13.2156C14.3583 12.5669 16.0018 12.9486 16.1899 13.2156C16.1899 13.2156 14.8547 13.1385 14.4354 13.635C14.1983 13.9018 14.0168 14.2131 13.9013 14.5508C13.9013 14.5508 14.6535 13.9867 15.2365 14.2067C15.8194 14.4267 16.0357 16.4952 16.0357 16.4952C16.0357 16.4952 14.8923 15.0078 14.5501 15.1225C14.2078 15.2372 13.5798 16.0966 13.5798 16.0966L12.3273 15.9762Z" fill="#32CD32" stroke="#263238" stroke-width="0.188049" stroke-linecap="round" stroke-linejoin="round"/>
<path d="M12.6205 25.2262C11.8016 25.2262 11.0162 24.9008 10.4371 24.3218C9.85803 23.7427 9.53271 22.9573 9.53271 22.1384V20.0698C9.53271 17.061 10.9149 15.6074 12.6205 15.6074C14.328 15.6074 15.7101 16.6379 15.7101 20.0698V22.1384C15.7101 22.544 15.6302 22.9457 15.4749 23.3205C15.3196 23.6952 15.092 24.0357 14.8051 24.3224C14.5182 24.6092 14.1775 24.8366 13.8027 24.9916C13.4279 25.1467 13.0261 25.2264 12.6205 25.2262Z" fill="white" stroke="#263238" stroke-width="0.188049" stroke-linecap="round" stroke-linejoin="round"/>
<path d="M15.4605 23.0471C15.3841 22.7424 15.3007 22.4422 15.2104 22.1463C15.3797 22.041 15.5452 21.9451 15.7106 21.8548V21.6404C15.5226 21.7364 15.3345 21.8417 15.1465 21.9564C15.06 21.6781 14.9697 21.3922 14.8757 21.1308C15.1457 20.9682 15.4251 20.8219 15.7125 20.6927V20.1661C15.6317 19.963 15.547 19.76 15.4605 19.5587L15.6956 19.4685C15.6956 19.3989 15.6956 19.3331 15.6824 19.2673C15.5828 19.3049 15.4831 19.3406 15.3834 19.382C15.2581 19.0861 15.1252 18.7965 14.9848 18.5132C15.1728 18.4229 15.3609 18.3421 15.5489 18.265C15.5358 18.201 15.5226 18.139 15.5076 18.0769C15.3063 18.1597 15.107 18.2462 14.9058 18.3439C14.7742 18.0694 14.6406 17.8061 14.509 17.5523C14.7366 17.4319 14.9678 17.3153 15.2067 17.2025L15.1221 17.0332C14.8832 17.1461 14.65 17.2645 14.4225 17.3868C14.2815 17.1179 14.1442 16.864 14.0144 16.6346C14.2119 16.5406 14.415 16.4465 14.6218 16.3638C14.5729 16.3149 14.5222 16.2679 14.4695 16.2246C14.2815 16.3036 14.0934 16.3845 13.9223 16.4691C13.7813 16.2171 13.6496 15.9877 13.533 15.7884L13.6026 15.762C13.4865 15.7276 13.3684 15.7 13.2491 15.6793L13.2622 15.6981C13.0197 15.8015 12.7884 15.9125 12.5646 16.0328C12.4837 15.888 12.4085 15.7601 12.3408 15.6436C12.2731 15.6436 12.2073 15.6624 12.1396 15.6736C12.2186 15.8053 12.3051 15.9538 12.3991 16.1212C12.1114 16.281 11.8349 16.4522 11.583 16.6308C11.4626 16.3882 11.3535 16.1757 11.2595 15.9952C11.205 16.0272 11.1523 16.061 11.0997 16.0968C11.1937 16.2848 11.3046 16.4954 11.4288 16.7418C11.1561 16.9298 10.9022 17.1423 10.6634 17.351C10.5581 17.1517 10.4622 16.9749 10.3776 16.8245C10.3381 16.8828 10.2986 16.9392 10.261 16.9994C10.3381 17.1404 10.4246 17.3003 10.5186 17.4789C10.2572 17.7159 10.0146 17.9584 9.79273 18.1973C9.79273 18.1841 9.77957 18.1709 9.77392 18.1559C9.73255 18.3045 9.69871 18.4605 9.66674 18.6223L9.74196 18.5339C9.83974 18.7483 9.95445 18.9946 10.0767 19.2691C9.88864 19.4572 9.70999 19.6622 9.54639 19.8502C9.54639 19.9311 9.54639 20.0063 9.54639 20.089V20.1455C9.73318 19.9223 9.94003 19.691 10.1669 19.4516C10.2723 19.6885 10.3813 19.9405 10.496 20.2038C10.2516 20.4294 10.0297 20.6438 9.83034 20.8412C9.72879 20.5893 9.63289 20.3598 9.54639 20.1605V20.6438L9.68742 20.9879C9.63665 21.0387 9.5934 21.0857 9.54639 21.1346V21.4073L9.76264 21.1778C9.85291 21.4016 9.95069 21.6405 10.0372 21.8887C9.86419 22.0504 9.70435 22.2046 9.55579 22.3494C9.55579 22.4303 9.57083 22.5092 9.58211 22.5882C9.74008 22.4321 9.91684 22.261 10.1087 22.0805C10.2309 22.4152 10.3531 22.7669 10.4697 23.126C10.2817 23.3273 10.1124 23.5172 9.96197 23.6902C9.99582 23.7504 10.0297 23.8087 10.0673 23.8651C10.2064 23.7052 10.3644 23.5303 10.5393 23.3423C10.6352 23.6545 10.7273 23.9685 10.8101 24.2825L10.622 24.4819C10.6709 24.5232 10.7198 24.5646 10.7706 24.6022L10.874 24.4988L10.9248 24.7169C10.9962 24.764 11.0715 24.8091 11.1486 24.8523C11.111 24.6831 11.0715 24.5138 11.0282 24.3427C11.2576 24.1114 11.5209 23.8557 11.8067 23.5905C11.8951 23.8632 11.9779 24.1321 12.0512 24.3935C11.8199 24.6041 11.6036 24.8034 11.4118 24.9859C11.4758 25.0141 11.5435 25.0385 11.5999 25.0611C11.7541 24.9163 11.9214 24.7621 12.1001 24.6003C12.1584 24.8128 12.2073 25.0178 12.2505 25.2153C12.3164 25.2153 12.3803 25.2284 12.4386 25.2322C12.3859 24.984 12.3258 24.7263 12.2505 24.4593C12.5288 24.2111 12.8278 23.9497 13.1419 23.6902C13.2397 24.023 13.3299 24.3578 13.407 24.6887C13.1776 24.8768 12.9632 25.0648 12.7677 25.236C12.8773 25.2305 12.9865 25.2192 13.0949 25.2021L13.4541 24.8975C13.4691 24.9708 13.4823 25.0423 13.4973 25.1156L13.6854 25.0554C13.6647 24.9576 13.6459 24.8674 13.6233 24.7621C13.864 24.5609 14.1141 24.3521 14.3755 24.1471C14.4169 24.3051 14.4564 24.4612 14.494 24.6192C14.5485 24.5778 14.603 24.5345 14.6557 24.4894C14.6162 24.3333 14.5767 24.1772 14.5353 24.0193C14.8137 23.7955 15.0995 23.5792 15.3628 23.3799C15.374 23.4307 15.3853 23.4852 15.3985 23.536C15.4893 23.3554 15.5624 23.1665 15.6166 22.9718L15.4605 23.0471ZM14.9885 22.0598C14.6971 22.2479 14.4037 22.4491 14.1141 22.6616C14.0238 22.387 13.9261 22.1125 13.832 21.8417C14.1254 21.6235 14.4225 21.4167 14.7177 21.2324C14.8118 21.5032 14.902 21.7796 14.9885 22.0598ZM12.92 19.5136C12.8053 19.2485 12.6925 18.989 12.5815 18.7388C12.8598 18.5508 13.1457 18.3477 13.4559 18.1578C13.5738 18.4085 13.6929 18.6674 13.8132 18.9344C13.5086 19.1187 13.2096 19.3124 12.9181 19.5136H12.92ZM13.8884 19.1074C14.0063 19.3795 14.1241 19.6615 14.242 19.9536C13.9355 20.1417 13.6346 20.3297 13.3431 20.5422C13.2284 20.2508 13.1099 19.9668 12.9933 19.6904C13.2848 19.4873 13.5838 19.2917 13.8866 19.1074H13.8884ZM12.7602 19.6246C12.5119 19.8013 12.2675 19.9819 12.0324 20.1643C11.9177 19.9048 11.803 19.6528 11.6901 19.4121C11.9214 19.224 12.1678 19.036 12.4235 18.8479C12.5345 19.1018 12.6473 19.3594 12.7602 19.6246ZM12.5006 18.5658C12.3709 18.2744 12.243 18.0017 12.1245 17.7384C12.3916 17.5504 12.6755 17.3623 12.9745 17.1743C13.1043 17.4244 13.2378 17.6933 13.3751 17.9772C13.0704 18.1741 12.779 18.3703 12.5006 18.5658ZM12.3464 18.6768C12.0888 18.8648 11.8406 19.0529 11.6074 19.2409C11.4758 18.9607 11.346 18.6918 11.2313 18.4417C11.4645 18.2437 11.7121 18.0481 11.9741 17.855C12.0888 18.1108 12.2148 18.3872 12.3464 18.6768ZM11.8782 20.2827C11.5811 20.5178 11.2934 20.7529 11.0226 20.9842C10.9191 20.7303 10.8138 20.4802 10.7104 20.2414C10.9643 20.0119 11.2407 19.7731 11.5397 19.5305C11.6525 19.7731 11.7635 20.0251 11.8782 20.2827ZM11.9553 20.4595C12.0807 20.7453 12.2023 21.0374 12.3201 21.3358C12.0192 21.5878 11.7334 21.8473 11.4645 22.1012C11.346 21.7852 11.2219 21.4731 11.0978 21.1609C11.3686 20.9353 11.6563 20.6964 11.9515 20.4595H11.9553ZM12.1076 20.341C12.3446 20.153 12.5871 19.9781 12.8354 19.8013C12.952 20.0778 13.0686 20.3655 13.1833 20.6551C12.9388 20.8431 12.7019 21.0199 12.4724 21.2192C12.3521 20.9183 12.2317 20.6231 12.1076 20.341ZM13.2585 20.8469C13.3776 21.149 13.4935 21.4568 13.6064 21.7702C13.3657 21.9583 13.1287 22.1463 12.8974 22.3344C12.7858 22.0197 12.6699 21.7107 12.5495 21.4073C12.779 21.2155 13.0159 21.0274 13.2679 20.8469H13.2585ZM13.4164 20.7322C13.7079 20.5216 14.0088 20.3203 14.3153 20.1379C14.4319 20.4332 14.5447 20.7378 14.6538 21.0481C14.3567 21.2361 14.0596 21.4355 13.7643 21.6536C13.6515 21.3415 13.5355 21.0337 13.4164 20.7303V20.7322ZM15.6505 20.514C15.3648 20.6418 15.0872 20.7868 14.8193 20.9484C14.709 20.64 14.5955 20.3379 14.4789 20.042C14.7441 19.8897 15.0149 19.7506 15.2875 19.6264C15.4135 19.9198 15.5358 20.2169 15.6505 20.514ZM15.2104 19.4516C14.9353 19.5736 14.6667 19.7098 14.4056 19.8596C14.2865 19.5675 14.1674 19.2842 14.0483 19.0096C14.299 18.8592 14.5541 18.7194 14.8136 18.5903C14.9472 18.8705 15.0807 19.1582 15.2104 19.4516ZM14.7328 18.421C14.4821 18.5464 14.2313 18.6849 13.9806 18.8366C13.8552 18.5658 13.7355 18.3057 13.6214 18.0562C13.8546 17.9133 14.0972 17.7723 14.3454 17.6369C14.4708 17.8889 14.5999 18.1503 14.7328 18.421ZM14.2514 17.4695C14.005 17.6049 13.7643 17.7441 13.533 17.887C13.3958 17.603 13.2604 17.336 13.1325 17.0859C13.3581 16.9543 13.5951 16.8283 13.8396 16.7098C13.9712 16.943 14.1085 17.2006 14.2514 17.4695ZM13.3525 15.8523C13.471 16.0535 13.6045 16.2848 13.7474 16.5424C13.5067 16.6628 13.2716 16.7888 13.046 16.9185C12.9049 16.6515 12.7714 16.407 12.6492 16.187C12.8749 16.0667 13.1099 15.9538 13.3525 15.8523ZM12.4837 16.2754C12.6078 16.4973 12.7432 16.7455 12.8843 17.0163C12.589 17.1931 12.307 17.3774 12.038 17.5654C11.9064 17.2871 11.7785 17.0257 11.6619 16.7907C11.9215 16.6101 12.196 16.4371 12.4837 16.2754ZM11.5059 16.9016C11.6243 17.1367 11.7503 17.3981 11.882 17.6783C11.6187 17.8701 11.368 18.0656 11.1298 18.265C10.9931 17.9904 10.864 17.7397 10.7424 17.5128C10.985 17.3022 11.237 17.0972 11.5059 16.9016ZM9.88299 18.3722C10.1049 18.1214 10.3481 17.8776 10.6126 17.6406C10.733 17.8663 10.8609 18.1183 10.9887 18.3928C10.7104 18.6335 10.4528 18.8761 10.214 19.1149C10.088 18.8329 9.97326 18.5846 9.88299 18.3722ZM10.3061 19.2955C10.5449 19.0529 10.8044 18.8065 11.0846 18.5621C11.21 18.8128 11.3354 19.0773 11.4607 19.3557C11.1655 19.5964 10.8966 19.8314 10.6371 20.059C10.5167 19.79 10.4039 19.5343 10.2967 19.2955H10.3061ZM9.90368 21.0236C10.1011 20.8243 10.323 20.6062 10.5713 20.3786C10.6728 20.6175 10.7762 20.8638 10.8797 21.1177C10.6314 21.332 10.3982 21.5427 10.182 21.742C10.071 21.4825 9.98454 21.2493 9.89428 21.0236H9.90368ZM10.2535 21.9319C10.4697 21.7307 10.7029 21.5182 10.953 21.3001C11.0784 21.6097 11.2037 21.9232 11.3291 22.2403C11.0733 22.4867 10.8364 22.7293 10.6183 22.9568C10.4866 22.6108 10.3663 22.2629 10.244 21.9319H10.2535ZM10.9492 24.1152C10.8646 23.8011 10.7725 23.4852 10.6728 23.1749C10.8909 22.9436 11.1316 22.6992 11.3893 22.4472C11.504 22.7575 11.6149 23.0659 11.7184 23.3724C11.4382 23.6357 11.1805 23.8876 10.9492 24.1152ZM11.5416 22.3024C11.8086 22.0466 12.1057 21.7852 12.3972 21.5295C12.5226 21.8341 12.6385 22.1438 12.7451 22.4585C12.4405 22.7161 12.1471 22.9756 11.8726 23.2276C11.7635 22.9229 11.6563 22.6108 11.5416 22.3043V22.3024ZM12.1904 24.2355C12.1133 23.9723 12.0286 23.7034 11.9403 23.4307C12.2148 23.1749 12.5044 22.9135 12.8128 22.654C12.9068 22.9248 13.0009 23.1975 13.078 23.4702C12.7658 23.7391 12.4668 23.9892 12.1904 24.2374V24.2355ZM12.967 22.5243C13.1983 22.3362 13.4352 22.1482 13.676 21.9601C13.7719 22.2309 13.864 22.5055 13.9543 22.78C13.7098 22.9681 13.4691 23.1561 13.2359 23.3442C13.1513 23.0696 13.061 22.7988 12.967 22.5262V22.5243ZM13.5631 24.5383C13.4841 24.2073 13.3939 23.8745 13.2961 23.5435C13.5312 23.3555 13.7719 23.158 14.0163 22.9794C14.1179 23.299 14.2138 23.6187 14.304 23.9384C14.052 24.1359 13.8019 24.3408 13.5631 24.5402V24.5383ZM14.462 23.8049C14.3736 23.4871 14.2739 23.1712 14.1762 22.8534C14.4658 22.639 14.7572 22.434 15.0468 22.2479C15.1352 22.5487 15.2198 22.8552 15.2969 23.1637C15.0261 23.363 14.7441 23.583 14.462 23.8068V23.8049Z" fill="#32CD32"/>
<path d="M15.7012 21.2228C15.7012 21.8447 15.4541 22.4412 15.0144 22.8809C14.5746 23.3207 13.9781 23.5678 13.3562 23.5678C12.7343 23.5678 12.1378 23.3207 11.6981 22.8809C11.2583 22.4412 11.0112 21.8447 11.0112 21.2228C11.0112 19.9271 11.9853 19.096 13.3637 19.1542C14.7948 19.2257 15.7012 19.9271 15.7012 21.2228Z" fill="white" stroke="#263238" stroke-width="0.188049" stroke-linecap="round" stroke-linejoin="round"/>
<path d="M9.60988 16.849L9.04574 15.5665C8.84992 15.115 8.73533 14.6324 8.70725 14.1411L8.64331 12.0537H7.32696L7.26867 14.1486C7.24059 14.6399 7.126 15.1225 6.93018 15.574L6.36603 16.8565C6.13723 17.3841 6.01945 17.9532 6.02002 18.5283V23.2295C6.02002 23.3573 6.07068 23.48 6.16091 23.5706C6.25113 23.6611 6.37358 23.7123 6.50143 23.7128H9.46696C9.59514 23.7128 9.71807 23.6619 9.8087 23.5712C9.89934 23.4806 9.95025 23.3577 9.95025 23.2295V18.5283C9.95358 17.951 9.83771 17.3793 9.60988 16.849Z" fill="#FFC727" stroke="#263238" stroke-width="0.188049" stroke-linecap="round" stroke-linejoin="round"/>
<path d="M7.33294 12.0537L7.33105 12.7194H8.6568L8.65116 12.0537H8.43114H7.55295H7.33294Z" fill="#32CD32" stroke="#263238" stroke-width="0.188049" stroke-linecap="round" stroke-linejoin="round"/>
<path d="M7.86116 17.1723C7.86116 17.1723 6.69525 16.1061 6.32856 16.0064C5.96186 15.9068 4.96332 15.8729 3.66389 15.9068C2.36447 15.9406 2.46602 16.1061 2.9982 16.3054C3.53038 16.5048 4.26377 16.2735 4.26377 16.2735C4.26377 16.2735 3.46456 16.2396 2.36635 17.1046C1.26815 17.9697 0.999236 18.4718 1.20045 18.5037C1.40166 18.5357 2.32874 17.8042 2.56569 17.6387C2.69845 17.5415 2.844 17.463 2.9982 17.4055C2.9982 17.4055 2.16514 18.3721 1.79844 19.2033C1.43175 20.0345 0.700237 21.4016 1.13275 21.6686C1.56526 21.9356 2.19899 20.0363 2.19899 20.0363C2.19899 20.0363 1.89999 21.6686 1.93196 22.4678C1.96393 23.267 2.43217 24.6003 2.59954 23.8669C2.7669 23.1335 3.0659 19.837 3.0659 19.7298C3.0659 19.6226 3.3649 20.4294 3.53038 19.9291C3.69586 19.4289 3.59808 17.4977 3.69774 17.4318C3.79741 17.366 4.03059 17.8305 4.29762 17.5973C4.56465 17.3641 5.59704 16.4991 5.59704 16.4991C5.59704 16.4991 4.99717 17.1987 5.42968 17.1987C5.86219 17.1987 6.32856 16.5988 6.46207 16.5311C6.59559 16.4634 7.86116 17.1723 7.86116 17.1723Z" fill="#32CD32" stroke="#263238" stroke-width="0.188049" stroke-linecap="round" stroke-linejoin="round"/>
<path d="M10.6348 21.7026C10.6348 21.7026 10.1365 19.9368 9.80172 18.8047C9.467 17.6727 8.90285 17.039 8.53615 16.9055C8.16945 16.7719 6.92081 17.0427 6.80422 17.872C6.68763 18.7013 7.1051 19.5363 7.40409 20.1042C7.7513 20.7193 8.06517 21.3527 8.34434 22.0016C8.57752 22.6015 8.74488 22.8685 8.87652 23.4684C9.00815 24.0683 9.64376 25.1326 9.91079 25.4993C10.1778 25.866 10.3095 26.2985 10.5765 26.4396C10.8435 26.5806 10.9752 26.1725 11.0428 25.6403C11.0848 24.9968 11.0735 24.3508 11.009 23.7091C10.9582 23.4684 10.6348 21.7026 10.6348 21.7026Z" fill="white" stroke="#263238" stroke-width="0.188049" stroke-linecap="round" stroke-linejoin="round"/>
<path d="M9.1644 19.6017C9.34554 19.8509 9.47583 20.1333 9.54782 20.4328C9.61982 20.7324 9.63211 21.0431 9.584 21.3474C9.53589 21.6517 9.42833 21.9435 9.26744 22.2062C9.10655 22.4689 8.8955 22.6973 8.64633 22.8785C8.39715 23.0596 8.11474 23.1899 7.81522 23.2619C7.5157 23.3339 7.20492 23.3462 6.90065 23.2981C6.59637 23.25 6.30455 23.1424 6.04185 22.9815C5.77915 22.8206 5.5507 22.6096 5.36956 22.3604C4.61737 21.3111 4.90884 20.0662 6.06347 19.3084C7.25946 18.5223 8.40468 18.5562 9.1644 19.6017Z" fill="white" stroke="#263238" stroke-width="0.188049" stroke-linecap="round" stroke-linejoin="round"/>
<path d="M6.47909 19.3761L6.12744 18.4377L6.4302 18.3418L6.69347 19.3855L6.47909 19.3761Z" fill="white" stroke="#263238" stroke-width="0.188049" stroke-linecap="round" stroke-linejoin="round"/>
<path d="M5.67233 20.476C5.68992 20.5001 5.69995 20.5289 5.70115 20.5587C5.70235 20.5885 5.69465 20.618 5.67905 20.6434C5.66345 20.6689 5.64064 20.6891 5.61352 20.7015C5.5864 20.7139 5.5562 20.718 5.52675 20.7133C5.4973 20.7085 5.46994 20.6951 5.44814 20.6747C5.42634 20.6543 5.41108 20.6279 5.40431 20.5989C5.39755 20.5698 5.39957 20.5394 5.41012 20.5115C5.42068 20.4836 5.43929 20.4595 5.46359 20.4422C5.47948 20.4306 5.49751 20.4222 5.51664 20.4177C5.53577 20.4131 5.55562 20.4123 5.57504 20.4155C5.59445 20.4186 5.61305 20.4256 5.62976 20.436C5.64646 20.4464 5.66093 20.46 5.67233 20.476Z" stroke="#263238" stroke-width="0.0940247" stroke-linecap="round" stroke-linejoin="round"/>
<path d="M6.33794 20.343C6.34955 20.3589 6.35789 20.3769 6.36248 20.396C6.36706 20.4152 6.3678 20.435 6.36465 20.4544C6.3615 20.4738 6.35453 20.4924 6.34413 20.5091C6.33374 20.5259 6.32013 20.5403 6.3041 20.5517C6.28 20.5693 6.25122 20.5793 6.22142 20.5805C6.19161 20.5817 6.16212 20.574 6.13669 20.5584C6.11127 20.5428 6.09105 20.52 6.07862 20.4929C6.06619 20.4658 6.06211 20.4356 6.06688 20.4061C6.07166 20.3767 6.08508 20.3493 6.10544 20.3275C6.1258 20.3057 6.15219 20.2905 6.18124 20.2837C6.2103 20.2769 6.24071 20.279 6.26861 20.2895C6.29651 20.3001 6.32064 20.3187 6.33794 20.343Z" stroke="#263238" stroke-width="0.0940247" stroke-linecap="round" stroke-linejoin="round"/>
<path d="M6.61426 20.8111C6.61994 20.819 6.62401 20.828 6.62623 20.8374C6.62846 20.8469 6.62879 20.8567 6.62722 20.8663C6.62565 20.876 6.6222 20.8852 6.61708 20.8934C6.61195 20.9017 6.60524 20.9089 6.59734 20.9146C6.58944 20.9202 6.58049 20.9243 6.57102 20.9265C6.56154 20.9288 6.55172 20.9291 6.54212 20.9275C6.53252 20.9259 6.52332 20.9225 6.51504 20.9174C6.50677 20.9122 6.49959 20.9055 6.49391 20.8976C6.48244 20.8817 6.47778 20.8618 6.48095 20.8424C6.48413 20.823 6.49488 20.8057 6.51084 20.7942C6.5268 20.7827 6.54666 20.7781 6.56605 20.7812C6.58545 20.7844 6.60279 20.7952 6.61426 20.8111Z" stroke="#263238" stroke-width="0.0940247" stroke-linecap="round" stroke-linejoin="round"/>
<path d="M6.01071 20.9707C6.0283 20.9948 6.03833 21.0235 6.03953 21.0534C6.04072 21.0832 6.03303 21.1127 6.01743 21.1381C6.00182 21.1635 5.97901 21.1837 5.9519 21.1961C5.92478 21.2086 5.89458 21.2127 5.86513 21.2079C5.83568 21.2031 5.80832 21.1897 5.78652 21.1693C5.76472 21.149 5.74946 21.1226 5.74269 21.0935C5.73592 21.0645 5.73795 21.0341 5.7485 21.0062C5.75906 20.9783 5.77767 20.9541 5.80197 20.9368C5.81785 20.9252 5.83588 20.9169 5.85501 20.9123C5.87414 20.9077 5.894 20.907 5.91341 20.9101C5.93283 20.9133 5.95143 20.9202 5.96813 20.9306C5.98484 20.941 5.99931 20.9546 6.01071 20.9707Z" stroke="#263238" stroke-width="0.0940247" stroke-linecap="round" stroke-linejoin="round"/>
<path d="M12.9966 21.6329C12.9966 22.2549 12.7495 22.8513 12.3098 23.2911C11.87 23.7309 11.2735 23.9779 10.6516 23.9779C10.0297 23.9779 9.43324 23.7309 8.99347 23.2911C8.5537 22.8513 8.30664 22.2549 8.30664 21.6329C8.30664 20.3373 9.28074 19.5061 10.6591 19.5644C12.0921 19.6377 12.9966 20.3373 12.9966 21.6329Z" fill="#8EB841" stroke="#263238" stroke-width="0.188049" stroke-linecap="round" stroke-linejoin="round"/>
<path d="M10.9585 19.8709L11.2255 18.9043L11.5245 19.004L11.1259 20.0025L10.9585 19.8709Z" fill="white" stroke="#263238" stroke-width="0.188049" stroke-linecap="round" stroke-linejoin="round"/>
<path d="M9.66074 20.2862C9.66074 20.3159 9.65192 20.345 9.63539 20.3698C9.61886 20.3945 9.59536 20.4138 9.56787 20.4252C9.54038 20.4366 9.51014 20.4395 9.48095 20.4337C9.45177 20.4279 9.42497 20.4136 9.40393 20.3926C9.38289 20.3715 9.36856 20.3447 9.36275 20.3155C9.35695 20.2863 9.35993 20.2561 9.37132 20.2286C9.3827 20.2011 9.40198 20.1776 9.42672 20.1611C9.45146 20.1446 9.48055 20.1357 9.5103 20.1357C9.5502 20.1357 9.58847 20.1516 9.61668 20.1798C9.64489 20.208 9.66074 20.2463 9.66074 20.2862Z" stroke="#263238" stroke-width="0.0940247" stroke-linecap="round" stroke-linejoin="round"/>
<path d="M10.2755 20.5701C10.2714 20.6068 10.2539 20.6408 10.2263 20.6654C10.1987 20.6901 10.163 20.7037 10.126 20.7037C10.089 20.7037 10.0533 20.6901 10.0258 20.6654C9.99818 20.6408 9.98066 20.6068 9.97653 20.5701C9.97416 20.549 9.97627 20.5277 9.9827 20.5076C9.98914 20.4874 9.99976 20.4688 10.0139 20.453C10.028 20.4372 10.0453 20.4246 10.0646 20.4159C10.0839 20.4073 10.1049 20.4028 10.126 20.4028C10.1472 20.4028 10.1681 20.4073 10.1875 20.4159C10.2068 20.4246 10.2241 20.4372 10.2382 20.453C10.2523 20.4688 10.2629 20.4874 10.2693 20.5076C10.2758 20.5277 10.2779 20.549 10.2755 20.5701Z" stroke="#263238" stroke-width="0.0940247" stroke-linecap="round" stroke-linejoin="round"/>
<path d="M10.2266 21.1065C10.2266 21.1264 10.2187 21.1455 10.2046 21.1597C10.1905 21.1738 10.1713 21.1817 10.1514 21.1817C10.1314 21.1817 10.1123 21.1738 10.0982 21.1597C10.0841 21.1455 10.0762 21.1264 10.0762 21.1065C10.0762 21.0865 10.0841 21.0674 10.0982 21.0533C10.1123 21.0392 10.1314 21.0312 10.1514 21.0312C10.1713 21.0312 10.1905 21.0392 10.2046 21.0533C10.2187 21.0674 10.2266 21.0865 10.2266 21.1065Z" stroke="#263238" stroke-width="0.0940247" stroke-linecap="round" stroke-linejoin="round"/>
<path d="M9.64414 20.8863C9.64414 20.916 9.63532 20.9451 9.61879 20.9699C9.60226 20.9946 9.57876 21.0139 9.55127 21.0253C9.52378 21.0367 9.49353 21.0396 9.46435 21.0338C9.43517 21.028 9.40836 21.0137 9.38733 20.9927C9.36629 20.9716 9.35196 20.9448 9.34615 20.9156C9.34035 20.8864 9.34333 20.8562 9.35471 20.8287C9.3661 20.8012 9.38538 20.7777 9.41012 20.7612C9.43486 20.7447 9.46395 20.7358 9.4937 20.7358C9.5336 20.7358 9.57186 20.7517 9.60008 20.7799C9.62829 20.8081 9.64414 20.8464 9.64414 20.8863Z" stroke="#263238" stroke-width="0.0940247" stroke-linecap="round" stroke-linejoin="round"/>
<path d="M19.1797 22.1217C19.1797 22.7436 18.9326 23.3401 18.4929 23.7799C18.0531 24.2196 17.4566 24.4667 16.8347 24.4667C16.2128 24.4667 15.6163 24.2196 15.1766 23.7799C14.7368 23.3401 14.4897 22.7436 14.4897 22.1217C14.4897 20.8261 15.462 19.9949 16.8404 20.0532C18.2733 20.1265 19.1797 20.8261 19.1797 22.1217Z" fill="white" stroke="#263238" stroke-width="0.188049" stroke-linecap="round" stroke-linejoin="round"/>
<path d="M17.1416 20.3596L17.4068 19.3931L17.7076 19.4927L17.3071 20.4913L17.1416 20.3596Z" stroke="#263238" stroke-width="0.188049" stroke-linecap="round" stroke-linejoin="round"/>
<path d="M15.8419 20.7754C15.8419 20.8153 15.826 20.8536 15.7978 20.8818C15.7696 20.91 15.7314 20.9259 15.6915 20.9259C15.6516 20.9259 15.6133 20.91 15.5851 20.8818C15.5569 20.8536 15.541 20.8153 15.541 20.7754C15.541 20.7355 15.5569 20.6973 15.5851 20.6691C15.6133 20.6408 15.6516 20.625 15.6915 20.625C15.7314 20.625 15.7696 20.6408 15.7978 20.6691C15.826 20.6973 15.8419 20.7355 15.8419 20.7754Z" stroke="#263238" stroke-width="0.0940247" stroke-linecap="round" stroke-linejoin="round"/>
<path d="M16.4645 21.0572C16.4645 21.0971 16.4486 21.1353 16.4204 21.1636C16.3922 21.1918 16.3539 21.2076 16.314 21.2076C16.2741 21.2076 16.2358 21.1918 16.2076 21.1636C16.1794 21.1353 16.1636 21.0971 16.1636 21.0572C16.1636 21.0173 16.1794 20.979 16.2076 20.9508C16.2358 20.9226 16.2741 20.9067 16.314 20.9067C16.3539 20.9067 16.3922 20.9226 16.4204 20.9508C16.4486 20.979 16.4645 21.0173 16.4645 21.0572Z" stroke="#263238" stroke-width="0.0940247" stroke-linecap="round" stroke-linejoin="round"/>
<path d="M16.4083 21.5987C16.4083 21.6135 16.4038 21.6281 16.3956 21.6404C16.3873 21.6528 16.3756 21.6625 16.3618 21.6682C16.3481 21.6738 16.333 21.6753 16.3184 21.6724C16.3038 21.6695 16.2904 21.6624 16.2798 21.6518C16.2693 21.6413 16.2622 21.6279 16.2593 21.6133C16.2564 21.5987 16.2578 21.5836 16.2635 21.5699C16.2692 21.5561 16.2789 21.5444 16.2912 21.5361C16.3036 21.5278 16.3182 21.5234 16.333 21.5234C16.353 21.5234 16.3721 21.5314 16.3862 21.5455C16.4003 21.5596 16.4083 21.5787 16.4083 21.5987Z" stroke="#263238" stroke-width="0.0940247" stroke-linecap="round" stroke-linejoin="round"/>
<path d="M15.8249 21.375C15.8249 21.3947 15.821 21.4142 15.8134 21.4323C15.8058 21.4505 15.7947 21.4669 15.7807 21.4808C15.7667 21.4946 15.7501 21.5055 15.7319 21.5128C15.7136 21.5202 15.6941 21.5239 15.6745 21.5236C15.6351 21.5236 15.5973 21.508 15.5694 21.4801C15.5415 21.4522 15.5259 21.4144 15.5259 21.375C15.5256 21.3554 15.5293 21.3359 15.5367 21.3176C15.544 21.2994 15.5549 21.2828 15.5687 21.2688C15.5826 21.2548 15.599 21.2437 15.6172 21.2361C15.6353 21.2285 15.6548 21.2246 15.6745 21.2246C15.7144 21.2246 15.7526 21.2405 15.7808 21.2687C15.809 21.2969 15.8249 21.3351 15.8249 21.375Z" stroke="#263238" stroke-width="0.0940247" stroke-linecap="round" stroke-linejoin="round"/>
<path d="M12.4254 22.8911C12.4254 22.8911 16.3745 13.797 18.774 12.4242C21.1735 11.0515 19.9192 15.4556 18.947 18.4869C17.9748 21.5183 15.7501 26.2082 13.7418 28.0963C11.7334 29.9843 10.1952 28.8391 12.4254 22.8911Z" fill="#FFE9A9" stroke="#263238" stroke-width="0.188049" stroke-linecap="round" stroke-linejoin="round"/>
<path d="M17.0586 14.8838L19.2851 15.7996C19.2851 15.7996 18.2602 14.1975 17.0586 14.8838Z" stroke="#263238" stroke-width="0.188049" stroke-linecap="round" stroke-linejoin="round"/>
<path d="M16.0283 16.7809L18.2605 17.6949C18.2605 17.6949 17.23 16.0852 16.0283 16.7809Z" stroke="#263238" stroke-width="0.188049" stroke-linecap="round" stroke-linejoin="round"/>
<path d="M14.8848 18.9434L17.115 19.8592C17.115 19.8592 16.0883 18.257 14.8848 18.9434Z" stroke="#263238" stroke-width="0.188049" stroke-linecap="round" stroke-linejoin="round"/>
<path d="M13.7979 21.5764L16.0281 22.4903C16.0281 22.4903 14.9995 20.89 13.7979 21.5764Z" stroke="#263238" stroke-width="0.188049" stroke-linecap="round" stroke-linejoin="round"/>
<path d="M12.5962 23.863L14.8283 24.7788C14.8283 24.7788 13.7978 23.1748 12.5962 23.863Z" stroke="#263238" stroke-width="0.188049" stroke-linecap="round" stroke-linejoin="round"/>
<path d="M11.7954 25.9802L14.02 26.8941C14.02 26.8941 12.997 25.2938 11.7954 25.9802Z" stroke="#263238" stroke-width="0.188049" stroke-linecap="round" stroke-linejoin="round"/>
<path d="M4.64568 20.8901L15.4002 23.2351L19.2853 21.6893C19.2853 21.6893 20.0375 28.2711 20.5434 30.727C21.0492 33.1829 20.8875 34.7889 20.3158 35.59C19.7442 36.391 16.8839 37.4705 15.8026 37.7619C14.7214 38.0534 11.7408 37.8766 10.3116 37.2486C8.88243 36.6205 5.67807 35.417 4.64756 34.7306C4.2805 34.5035 3.9809 34.1823 3.77985 33.8004C3.5788 33.4185 3.48363 32.9897 3.50422 32.5586C3.56251 32.0998 4.59114 23.7485 4.64756 22.9493C4.70397 22.1501 4.64568 20.8901 4.64568 20.8901Z" fill="#48AF44" stroke="#263238" stroke-width="0.188049" stroke-linecap="round" stroke-linejoin="round"/>
<path d="M15.7124 26.5596C15.7557 27.8646 15.7989 29.4593 15.7989 30.6083C15.7989 32.8968 16.5981 35.6988 16.0847 36.7293" stroke="#263238" stroke-width="0.188049" stroke-linecap="round" stroke-linejoin="round"/>
<path d="M15.6274 24.2637C15.6274 24.2637 15.65 24.7695 15.6763 25.5255" stroke="#263238" stroke-width="0.188049" stroke-linecap="round" stroke-linejoin="round"/>
<path d="M24.6744 1.65065C24.8541 1.65065 24.9998 1.505 24.9998 1.32532C24.9998 1.14565 24.8541 1 24.6744 1C24.4948 1 24.3491 1.14565 24.3491 1.32532C24.3491 1.505 24.4948 1.65065 24.6744 1.65065Z" fill="white" stroke="#263238" stroke-width="0.141037" stroke-linecap="round" stroke-linejoin="round"/>
</svg>
