<svg width="99" height="57" viewBox="0 0 99 57" fill="none" xmlns="http://www.w3.org/2000/svg">
<rect x="0.505102" y="0.505102" width="97.9898" height="55.5612" rx="7.4949" stroke="#E1D7D7" stroke-width="1.0102"/>
<g clip-path="url(#clip0_163_341)">
<path d="M39.033 37.3776H42.8892V28.0126L40.3641 23.6033L37.3804 23.8809V35.725C37.3804 36.6381 38.1199 37.3776 39.033 37.3776Z" fill="#0085F7"/>
<path d="M56.1106 37.3776H59.9668C60.8799 37.3776 61.6195 36.6381 61.6195 35.725V23.8809L58.64 23.6033L56.1106 28.0126V37.3776H56.1106Z" fill="#00A94B"/>
<path d="M56.1106 20.8509L53.8455 25.1734L56.1106 28.0125L61.6195 23.8808V21.6773C61.6195 19.6349 59.2879 18.4684 57.6531 19.6941L56.1106 20.8509Z" fill="#FFBC00"/>
<path fill-rule="evenodd" clip-rule="evenodd" d="M42.8892 28.0126L40.7307 23.4531L42.8892 20.8511L49.4998 25.809L56.1104 20.8511V28.0126L49.4998 32.9706L42.8892 28.0126Z" fill="#FF4131"/>
<path d="M37.3804 21.6773V23.8808L42.8892 28.0125V20.8509L41.3468 19.6941C39.712 18.4684 37.3804 19.6349 37.3804 21.6773Z" fill="#E51C19"/>
</g>
<defs>
<clipPath id="clip0_163_341">
<rect width="24.2449" height="24.2449" fill="white" transform="translate(37.3774 16.1633)"/>
</clipPath>
</defs>
</svg>
