<svg width="98" height="57" viewBox="0 0 98 57" fill="none" xmlns="http://www.w3.org/2000/svg">
<rect x="0.5" y="0.785645" width="97" height="55" rx="7.5" stroke="#E1D7D7"/>
<g clip-path="url(#clip0_163_349)">
<path d="M53.4988 16.2856C52.2193 16.3741 50.7238 17.1931 49.8523 18.2596C49.0573 19.2271 48.4033 20.6641 48.6583 22.0606C50.0563 22.1041 51.5008 21.2656 52.3378 20.1811C53.1208 19.1716 53.7133 17.7436 53.4988 16.2856Z" fill="#242424"/>
<path d="M58.5553 24.3376C57.3268 22.7971 55.6003 21.9031 53.9698 21.9031C51.8174 21.9031 50.9069 22.9336 49.4114 22.9336C47.8694 22.9336 46.6979 21.9061 44.8364 21.9061C43.0079 21.9061 41.0609 23.0236 39.8264 24.9346C38.0909 27.6255 38.3879 32.685 41.2004 36.9945C42.2069 38.5365 43.5509 40.2705 45.3089 40.2855C46.8734 40.3005 47.3144 39.282 49.4339 39.2715C51.5534 39.2595 51.9554 40.299 53.5169 40.2825C55.2763 40.269 56.6938 38.3475 57.7003 36.8055C58.4218 35.7 58.6903 35.1435 59.2498 33.8955C55.1803 32.346 54.5278 26.559 58.5553 24.3376Z" fill="#242424"/>
</g>
<defs>
<clipPath id="clip0_163_349">
<rect width="24" height="24" fill="white" transform="translate(37 16.2856)"/>
</clipPath>
</defs>
</svg>
