<svg width="99" height="57" viewBox="0 0 99 57" fill="none" xmlns="http://www.w3.org/2000/svg">
<rect x="0.505102" y="0.505102" width="97.9898" height="55.5612" rx="7.4949" stroke="#E1D7D7" stroke-width="1.0102"/>
<g clip-path="url(#clip0_88_3287)">
<path d="M60.594 26.1993L50.8046 26.1989C50.3724 26.1989 50.022 26.5492 50.022 26.9815V30.1087C50.022 30.5409 50.3724 30.8914 50.8046 30.8914H56.3174C55.7137 32.458 54.587 33.77 53.1496 34.6036L55.5002 38.6728C59.2709 36.492 61.5002 32.6656 61.5002 28.3823C61.5002 27.7724 61.4553 27.3364 61.3653 26.8455C61.297 26.4725 60.9732 26.1993 60.594 26.1993Z" fill="#167EE6"/>
<path d="M49.4998 35.5901C46.8019 35.5901 44.4467 34.116 43.1818 31.9348L39.1128 34.2802C41.1835 37.869 45.0626 40.2857 49.4998 40.2857C51.6765 40.2857 53.7304 39.6997 55.4998 38.6783V38.6727L53.1491 34.6035C52.0739 35.2271 50.8297 35.5901 49.4998 35.5901Z" fill="#12B347"/>
<path d="M55.5 38.6783V38.6727L53.1494 34.6035C52.0741 35.2271 50.83 35.5901 49.5 35.5901V40.2858C51.6767 40.2858 53.7308 39.6997 55.5 38.6783Z" fill="#0F993E"/>
<path d="M42.1957 28.2858C42.1957 26.956 42.5586 25.7119 43.182 24.6367L39.113 22.2914C38.086 24.0551 37.5 26.1035 37.5 28.2858C37.5 30.4681 38.086 32.5165 39.113 34.2802L43.182 31.9349C42.5586 30.8597 42.1957 29.6156 42.1957 28.2858Z" fill="#FFD500"/>
<path d="M49.4998 20.9814C51.259 20.9814 52.875 21.6065 54.1372 22.6464C54.4486 22.9029 54.9012 22.8844 55.1864 22.5991L57.4022 20.3833C57.7258 20.0597 57.7028 19.53 57.3571 19.2301C55.2423 17.3954 52.4907 16.2858 49.4998 16.2858C45.0626 16.2858 41.1835 18.7025 39.1128 22.2913L43.1818 24.6367C44.4467 22.4555 46.8019 20.9814 49.4998 20.9814Z" fill="#FF4B26"/>
<path d="M54.1374 22.6464C54.4488 22.9029 54.9015 22.8844 55.1866 22.5991L57.4024 20.3833C57.726 20.0597 57.7029 19.53 57.3573 19.2301C55.2425 17.3954 52.491 16.2858 49.5 16.2858V20.9814C51.2592 20.9814 52.8752 21.6065 54.1374 22.6464Z" fill="#D93F21"/>
</g>
<defs>
<clipPath id="clip0_88_3287">
<rect width="24" height="24" fill="white" transform="translate(37.5 16.2858)"/>
</clipPath>
</defs>
</svg>
