<svg width="90" height="84" viewBox="0 0 90 84" fill="none" xmlns="http://www.w3.org/2000/svg">
<mask id="mask0_58_2198" style="mask-type:luminance" maskUnits="userSpaceOnUse" x="0" y="-6" width="90" height="90">
<rect width="90" height="90" rx="14" transform="matrix(-1 0 0 1 90 -6)" fill="white"/>
</mask>
<g mask="url(#mask0_58_2198)">
<mask id="mask1_58_2198" style="mask-type:luminance" maskUnits="userSpaceOnUse" x="42" y="33" width="20" height="27">
<path fill-rule="evenodd" clip-rule="evenodd" d="M53.4506 58.8127L61.7119 33.3252H42.2903L50.5533 58.8127C50.7584 59.446 51.3429 59.8743 52.002 59.8743C52.6611 59.8743 53.2455 59.446 53.4506 58.8127Z" fill="white"/>
</mask>
<g mask="url(#mask1_58_2198)">
<path d="M53.4506 58.8127L61.7119 33.3252H42.2903L50.5533 58.8127C50.7584 59.446 51.3429 59.8743 52.002 59.8743C52.6611 59.8743 53.2455 59.446 53.4506 58.8127Z" fill="#ECB370"/>
<g style="mix-blend-mode:multiply">
<path d="M41.8429 27.1932C40.7208 25.7433 40.5151 23.7734 41.3128 22.1186C42.1105 20.4638 43.772 19.414 45.5927 19.4144C45.6607 19.4144 45.7278 19.417 45.7944 19.4195C45.199 17.897 45.7106 15.9851 47.9944 13.9203C49.3461 12.6905 51.0056 11.8591 52.7922 11.5166C52.4605 12.4282 52.336 13.6328 55.3364 14.4163C57.8391 15.0701 59.3731 17.3449 58.2719 19.4195C58.3185 19.4195 58.365 19.4157 58.4116 19.4157C60.1057 19.4141 61.6728 20.3234 62.526 21.8032C63.3792 23.283 63.3897 25.1099 62.5535 26.5996L68.1008 29.0647C68.1008 29.0647 68.3566 43.4608 68.3964 43.7923C68.4362 44.1239 52.8186 72.743 52.8186 72.743L50.1691 59.4358C50.1691 59.4358 52.0525 60.0387 52.2861 57.7343C52.4169 56.4458 53.0367 48.5462 53.5584 41.8284C53.6622 40.2525 53.1554 38.6976 52.1452 37.493C52.0961 37.4328 52.0487 37.3708 52.0026 37.3081C51.0311 38.6368 49.4196 39.3231 47.8006 39.0976C46.1817 38.872 44.8138 37.7705 44.234 36.2256C42.0998 36.1673 40.2575 34.6971 39.7056 32.6119C39.1537 30.5266 40.0235 28.3227 41.8437 27.1944L41.8429 27.1932Z" fill="#EFE6D9"/>
</g>
</g>
<path d="M40.1766 29.8744C39.4749 26.8755 40.6697 23.749 43.1836 22.0063C45.6974 20.2635 49.0124 20.2635 51.5263 22.0063C54.0401 23.749 55.2349 26.8755 54.5332 29.8744C55.5391 30.7091 55.9178 32.0928 55.4795 33.3316C55.0411 34.5704 53.8803 35.3972 52.579 35.3974C52.375 35.3974 52.1715 35.3771 51.9714 35.3368C51.4276 36.0431 50.6096 36.4786 49.726 36.5323C48.8424 36.5861 47.9787 36.2528 47.3551 35.6175C46.7315 36.2528 45.8677 36.5861 44.984 36.5324C44.1004 36.4786 43.2823 36.0431 42.7385 35.3368C42.5385 35.3771 42.3351 35.3974 42.1312 35.3974C40.8299 35.3974 39.6689 34.5707 39.2305 33.3318C38.792 32.093 39.1707 30.7092 40.1766 29.8744Z" fill="#7A443A"/>
<path d="M44.9405 26.7404L44.9442 26.7667C44.9581 26.9028 44.9744 27.0406 44.9966 27.1818C45.0029 27.2212 45.0105 27.2598 45.0176 27.2988C45.1015 28.0705 45.0944 29.2636 44.0565 29.6876C42.7066 30.2388 40.874 29.3107 40.9633 27.6126C41.121 24.698 43.5742 21.5095 46.8003 21.3887C45.4055 22.7924 44.7206 24.7631 44.9405 26.7404Z" fill="#835444"/>
<path d="M40.8825 30.7454C41.6461 30.2468 42.6392 30.9031 44.2596 31.2779C45.9097 31.5952 47.6035 31.6034 49.2566 31.3021C51.0523 31.1681 52.1455 33.1728 51.1307 34.5148C50.1159 35.8567 48.321 35.6201 46.7581 34.5148C45.3524 36.0937 43.1177 35.2746 42.942 34.0611C40.2581 34.8747 39.0378 31.9491 40.8825 30.7454Z" fill="#835444"/>
<path d="M49.4707 29.8746C48.7677 26.8751 49.9622 23.7474 52.4765 22.0039C54.9908 20.2604 58.3068 20.2604 60.8211 22.0039C63.3354 23.7474 64.5299 26.8751 63.8269 29.8746C64.8333 30.7091 65.2123 32.0931 64.7739 33.3321C64.3355 34.5712 63.1742 35.3979 61.8727 35.3977C61.6688 35.3976 61.4654 35.3773 61.2655 35.337C60.7217 36.0433 59.9036 36.4789 59.0199 36.5326C58.1362 36.5863 57.2724 36.253 56.6488 35.6177C56.0252 36.253 55.1614 36.5863 54.2777 36.5326C53.394 36.4789 52.576 36.0433 52.0321 35.337C51.8322 35.3773 51.6288 35.3976 51.4249 35.3977C50.1234 35.3979 48.9621 34.5712 48.5237 33.3321C48.0853 32.0931 48.4644 30.7091 49.4707 29.8746Z" fill="#FCDC87"/>
<path d="M54.2344 26.7409L54.2382 26.7672C54.252 26.9033 54.2684 27.0411 54.2906 27.1823C54.2969 27.2217 54.3049 27.2603 54.3116 27.2993C54.3954 28.071 54.3883 29.2641 53.3508 29.6881C52.0009 30.2393 50.1679 29.3112 50.2572 27.6131C50.4153 24.6985 52.8686 21.51 56.0942 21.3892C54.6992 22.7928 54.0144 24.7635 54.2344 26.7409Z" fill="#FCEAB1"/>
<path d="M50.1759 30.7459C50.9395 30.2473 51.933 30.9036 53.553 31.2784C55.2031 31.5957 56.8969 31.6039 58.55 31.3026C60.3461 31.1686 61.4389 33.1733 60.4241 34.5152C59.4092 35.8572 57.6144 35.6206 56.0515 34.5152C54.6462 36.0942 52.4111 35.2751 52.2353 34.0616C49.5527 34.8752 48.3316 31.9496 50.1759 30.7459Z" fill="#FCEAB1"/>
<path d="M43.6924 17.7162C42.8792 14.2442 44.2621 10.6241 47.1725 8.60621C50.0828 6.5883 53.921 6.5883 56.8314 8.60621C59.7417 10.6241 61.1246 14.2442 60.3114 17.7162C61.4787 18.6817 61.9187 20.2853 61.4103 21.7208C60.9018 23.1563 59.555 24.1129 58.0469 24.1097C57.8108 24.1096 57.5752 24.0861 57.3436 24.0393C56.7143 24.8571 55.7673 25.3614 54.7444 25.4235C53.7214 25.4857 52.7215 25.0997 51.9998 24.3641C51.2781 25.0999 50.2781 25.486 49.255 25.4238C48.232 25.3616 47.2849 24.8572 46.6556 24.0393C45.0489 24.3698 43.4265 23.5496 42.7241 22.0517C42.0217 20.5539 42.4204 18.7647 43.6903 17.7162H43.6924Z" fill="#FF7F8D"/>
<path d="M49.2069 14.0886L49.2111 14.1182C49.2274 14.276 49.2463 14.4358 49.2719 14.5991C49.279 14.6448 49.2883 14.6894 49.2962 14.7343C49.3943 15.6281 49.3851 17.0091 48.1837 17.4996C46.6212 18.1382 44.4996 17.0638 44.6028 15.0981C44.7856 11.7239 47.6255 8.03299 51.3599 7.89307C49.745 9.51803 48.9522 11.7995 49.2069 14.0886Z" fill="#FFA5A8"/>
<path d="M44.5094 18.7247C45.3934 18.148 46.5428 18.9074 48.4186 19.3416C50.3288 19.7087 52.2895 19.7182 54.2032 19.3696C56.2819 19.2144 57.5475 21.5349 56.3725 23.0885C55.1975 24.642 53.1183 24.3677 51.3109 23.0885C49.6838 24.9163 47.0964 23.9683 46.8934 22.5631C43.7877 23.5048 42.374 20.1183 44.5094 18.7247Z" fill="#FFA5A8"/>
<path d="M44.4614 65.6899L42.0023 80.47C41.8506 81.2807 41.2445 81.9388 40.4353 82.1713C36.863 83.2658 33.0335 83.2658 29.4612 82.1713C28.6519 81.9388 28.0456 81.2807 27.8938 80.47L25.4346 65.6899L44.4614 65.6899Z" fill="#ECB370"/>
<mask id="mask2_58_2198" style="mask-type:luminance" maskUnits="userSpaceOnUse" x="25" y="65" width="20" height="18">
<path fill-rule="evenodd" clip-rule="evenodd" d="M44.4614 65.6899L42.0023 80.47C41.8506 81.2807 41.2445 81.9388 40.4353 82.1713C36.863 83.2658 33.0335 83.2658 29.4612 82.1713C28.6519 81.9388 28.0456 81.2807 27.8938 80.47L25.4346 65.6899L44.4614 65.6899Z" fill="white"/>
</mask>
<g mask="url(#mask2_58_2198)">
<g style="mix-blend-mode:multiply">
<path d="M30.3371 65.0275C29.9637 64.655 29.6727 64.2113 29.4822 63.7242C27.6238 63.6732 26.0204 62.4354 25.5398 60.6805C25.0591 58.9257 25.8153 57.0708 27.3991 56.1195C26.4213 54.8987 26.2419 53.2398 26.937 51.8462C27.6321 50.4526 29.0799 49.5687 30.6665 49.5692C30.7254 49.5692 30.7839 49.5713 30.8424 49.5734C30.3224 48.2913 30.77 46.6806 32.759 44.9428C33.9368 43.9071 35.3827 43.2069 36.9394 42.9185C36.6504 43.6861 36.542 44.7006 39.1563 45.3603C41.3369 45.9108 42.6737 47.8268 41.713 49.5721C41.7533 49.5721 41.7936 49.5692 41.8348 49.5692C43.3108 49.5679 44.6762 50.3338 45.4196 51.5798C46.1629 52.8259 46.172 54.3642 45.4436 55.6186L50.2765 57.6934C50.2765 57.6934 50.4997 69.816 50.5365 70.095C50.5734 70.3741 36.9619 94.4745 36.9619 94.4745L34.6306 82.9862C34.6306 82.9862 36.2097 83.1936 36.4133 81.2531C36.4848 80.5714 36.8098 78.2735 37.0911 74.823C37.2607 72.6904 35.6387 70.8231 33.4576 70.64C30.9587 70.4242 28.5043 69.8601 26.1689 68.9649C25.6334 68.7573 25.2559 68.2815 25.1835 67.723L24.8256 65.0279L30.3371 65.0275Z" fill="#EFE6D9"/>
</g>
</g>
<path d="M46.3452 63.8545L45.8685 66.6313C45.7677 67.2052 45.365 67.6848 44.8086 67.8935C38.4602 70.269 31.4374 70.269 25.0889 67.8935C24.5326 67.6848 24.1298 67.2052 24.029 66.6313L23.5523 63.8545H46.3452Z" fill="#ECB370"/>
<mask id="mask3_58_2198" style="mask-type:luminance" maskUnits="userSpaceOnUse" x="23" y="63" width="24" height="7">
<path fill-rule="evenodd" clip-rule="evenodd" d="M46.3452 63.8545L45.8685 66.6313C45.7677 67.2052 45.365 67.6848 44.8086 67.8935C38.4602 70.269 31.4374 70.269 25.0889 67.8935C24.5326 67.6848 24.1298 67.2052 24.029 66.6313L23.5523 63.8545H46.3452Z" fill="white"/>
</mask>
<g mask="url(#mask3_58_2198)">
<g style="mix-blend-mode:multiply">
<path d="M25.1013 57.9887C23.9419 56.5407 23.7294 54.5733 24.5538 52.9207C25.3782 51.2681 27.0951 50.2198 28.9766 50.2201C29.0464 50.2201 29.1157 50.2227 29.185 50.2256C28.5693 48.7047 29.0984 46.7959 31.4583 44.7338C32.855 43.5054 34.5698 42.675 36.4161 42.333C36.0729 43.2434 35.9442 44.4463 39.0447 45.2288C41.6308 45.8817 43.2164 48.1538 42.078 50.2252C42.1261 50.2252 42.1738 50.2214 42.2223 50.2214C43.9728 50.2202 45.5919 51.1284 46.4734 52.6061C47.355 54.0839 47.366 55.9081 46.5023 57.3959L52.234 59.8572C52.234 59.8572 52.4988 74.2342 52.54 74.5648C52.5811 74.8955 36.4425 103.477 36.4425 103.477L33.7047 90.1871C33.7047 90.1871 35.6508 90.7892 35.8926 88.4879C36.0274 87.2015 36.6683 79.3123 37.2073 72.604C37.3142 71.0302 36.7905 69.4774 35.747 68.274C35.6961 68.2139 35.6469 68.1524 35.5992 68.0894C34.5955 69.4164 32.9303 70.1018 31.2574 69.8765C29.5845 69.6512 28.1711 68.5512 27.5722 67.0084C25.3668 66.9502 23.4631 65.482 22.8928 63.3996C22.3225 61.3172 23.2213 59.1162 25.1022 57.9895L25.1013 57.9887Z" fill="#EFE6D9"/>
</g>
</g>
<path d="M22.0712 60.6183C22.0703 58.9238 22.9715 57.3509 24.4502 56.4658C23.2907 55.0179 23.0781 53.0505 23.9026 51.3979C24.727 49.7454 26.444 48.6971 28.3255 48.6977C28.3953 48.6977 28.4646 48.7002 28.5339 48.7027C27.9182 47.1822 28.4473 45.273 30.8072 43.2114C32.2038 41.983 33.9184 41.1526 35.7645 40.8105C35.4218 41.7209 35.2931 42.9239 38.3936 43.7063C40.9797 44.3593 42.5653 46.6313 41.4269 48.7027C41.475 48.7027 41.5227 48.6989 41.5712 48.6989C43.4526 48.6985 45.1695 49.7468 45.9938 51.3994C46.8181 53.052 46.6055 55.0192 45.4461 56.4671C47.3269 57.5938 48.2257 59.7947 47.6554 61.8772C47.0851 63.9596 45.1814 65.4277 42.9761 65.486C42.377 67.0288 40.9635 68.1287 39.2906 68.354C37.6177 68.5793 35.9524 67.8939 34.9486 66.567C33.9449 67.8939 32.2796 68.5794 30.6067 68.3541C28.9339 68.1288 27.5204 67.0288 26.9215 65.486C24.222 65.4155 22.0712 63.257 22.0712 60.6183Z" fill="#FCDC87"/>
<path d="M38.7313 51.3944C38.2267 51.48 37.7341 51.623 37.2636 51.8204C34.2952 52.8006 31.8278 52.7549 29.5762 51.1239C29.1118 50.7668 28.5825 50.4986 28.0162 50.3333C25.7499 49.7118 23.5096 52.6808 26.0155 55.4623C28.2507 57.9444 34.6926 60.1301 39.8822 56.7867C43.0165 54.7695 41.0665 51.1586 38.7313 51.3944Z" fill="#FCEAB1"/>
<path d="M40.8979 59.7563C39.8171 58.9594 38.9977 59.039 37.4143 59.4277C33.6673 60.3469 30.7323 60.2322 28.3741 58.7735C27.8983 58.437 27.3721 58.1746 26.8141 57.9957C24.5478 57.3838 22.3386 60.2822 24.8134 63.0437C25.4351 63.6524 26.3136 63.9399 27.185 63.8199C28.1449 66.86 32.5688 67.5845 34.9122 65.0749C36.2643 65.7596 37.8459 65.8676 39.2824 65.3734C41.6896 64.5367 42.925 61.2501 40.8979 59.7563Z" fill="#FCEAB1"/>
<path d="M34.9482 41.6113C33.2189 42.2143 31.753 43.3776 30.7943 44.9077C28.9981 47.6383 30.0385 50.6205 32.7417 51.0727C35.6181 51.5537 37.4386 49.0936 36.2083 47.6464C34.2761 45.3696 32.795 43.9939 34.9482 41.6113Z" fill="#FCEAB1"/>
<path d="M23.2997 52.7651C24.1954 49.5149 26.9986 48.458 28.5144 48.6232C27.9246 47.1094 28.4646 45.2159 30.8024 43.1728C32.199 41.9446 33.9137 41.1143 35.7597 40.7725C35.417 41.6828 35.2883 42.8858 38.3888 43.6683C40.9749 44.3212 42.5605 46.5928 41.4221 48.6646C41.4702 48.6646 41.5179 48.6608 41.5664 48.6608C43.7933 48.6608 46.5697 50.2131 46.8574 53.8575C46.886 54.22 46.6061 55.1324 45.7645 55.0058C44.9139 54.8788 45.3962 53.6255 44.6522 53.4603C44.2357 53.368 43.9103 53.78 43.8028 54.1238C43.6577 54.5917 43.8544 55.0884 43.9445 55.5478C44.1296 56.4853 43.9359 57.4956 42.8486 57.4177C41.7883 57.3427 42.0686 56.2185 42.3074 55.6871C42.5182 55.198 42.4696 54.639 42.1774 54.1916C41.9564 53.8728 41.5792 53.6922 41.1859 53.7169C40.1485 53.7313 39.5904 54.7192 39.3625 55.5872C39.1392 56.5882 39.2224 57.6312 39.6017 58.5863C39.9423 59.536 40.2395 60.7856 39.9687 61.7345C39.7633 62.4543 39.0401 63.1144 38.2354 62.6165C37.1347 61.9356 37.7045 60.1784 37.9264 59.4598C38.5742 57.3639 38.1756 54.5388 36.2754 53.2516C35.111 52.4856 33.5994 52.4431 32.3919 53.1424C30.2369 54.366 30.2083 57.211 30.4852 59.3303C30.5498 59.8274 30.7686 60.2859 30.8492 60.7843C30.9359 61.3246 30.9675 62.0292 30.3578 62.2599C29.8441 62.4193 29.2849 62.2229 28.9924 61.7806C28.3515 60.8224 28.5638 59.6614 28.7757 58.6083C28.9603 57.7182 29.1917 56.8381 29.469 55.9712C29.7542 55.0634 30.3491 54.0434 29.4257 53.2647C29.0869 52.9839 28.6467 52.8481 28.2044 52.888C27.762 52.9278 27.3546 53.1399 27.074 53.4764C26.317 54.2627 26.4673 55.1333 26.7312 56.0974C26.8062 56.3727 26.7373 56.9866 26.4535 57.1615C25.8836 57.5095 24.7986 57.0091 24.8384 55.5601C24.9071 54.8937 25.148 54.2552 25.5383 53.7047C25.7467 53.2952 26.0739 52.9641 26.2654 52.5585C26.399 52.308 26.391 52.0079 26.2442 51.7645C25.8975 51.2696 25.1314 51.5994 24.8623 52.6668C24.6573 53.4794 24.2773 53.8351 23.8015 53.8101C23.4058 53.7919 23.1367 53.3625 23.2997 52.7651Z" fill="#7A443A"/>
<path d="M35.1249 38.8032C37.083 38.8032 38.6704 40.3543 38.6704 42.2677C38.6704 44.181 37.083 45.7321 35.1249 45.7321C33.1667 45.7321 31.5793 44.181 31.5793 42.2677C31.5793 41.3488 31.9529 40.4676 32.6178 39.8179C33.2827 39.1682 34.1845 38.8032 35.1249 38.8032Z" fill="#EE6254"/>
<g style="mix-blend-mode:multiply">
<path fill-rule="evenodd" clip-rule="evenodd" d="M38.6704 42.2677C38.6704 40.3543 37.083 38.8032 35.1249 38.8032C34.1845 38.8032 33.2827 39.1682 32.6178 39.8179C31.9529 40.4676 31.5793 41.3488 31.5793 42.2677C31.5793 44.181 33.1667 45.7321 35.1249 45.7321C37.083 45.7321 38.6704 44.181 38.6704 42.2677ZM35.7055 42.7469C35.4137 43.4354 34.7262 43.8843 33.9635 43.8843V43.8856C33.4633 43.8857 32.9835 43.6915 32.6299 43.3458C32.2763 43.0001 32.0778 42.5312 32.0781 42.0424C32.0779 41.2972 32.5372 40.6253 33.2417 40.34C33.9462 40.0547 34.7573 40.2123 35.2966 40.7391C35.8359 41.266 35.9973 42.0584 35.7055 42.7469Z" fill="#F1F1F1"/>
</g>
<g style="mix-blend-mode:multiply">
<ellipse cx="0.550767" cy="0.322225" rx="0.550767" ry="0.322225" transform="matrix(-1 0 0 1 35.6069 39.1953)" fill="#F1F1F1"/>
</g>
<path d="M35.0163 39.627C35.0838 39.6401 35.1499 39.5985 35.1654 39.533C35.4939 37.6072 34.2905 36.312 32.7058 36.3149C32.513 36.3149 32.6291 36.7384 32.7283 36.7595C33.0529 36.8222 35.1494 36.9137 34.911 39.5076C34.9079 39.5689 34.9539 39.622 35.0163 39.6291V39.627Z" fill="#835444"/>
<path d="M12.2012 0.436523L9.67695 1.13181L17.2129 28.5956L19.7371 27.9003L12.2012 0.436523Z" fill="#FCDC87"/>
<path d="M10.4232 3.85169L13.3379 4.57887L12.8919 2.95326L9.97721 2.22607L10.4232 3.85169Z" fill="#7A443A"/>
<path d="M11.4393 7.55482L14.354 8.282L13.908 6.65638L10.9933 5.9292L11.4393 7.55482Z" fill="#7A443A"/>
<path d="M12.4555 11.2579L15.3701 11.9851L14.9241 10.359L12.0094 9.63184L12.4555 11.2579Z" fill="#7A443A"/>
<path d="M13.4716 14.9616L16.3862 15.6887L15.9402 14.0631L13.0256 13.3359L13.4716 14.9616Z" fill="#7A443A"/>
<path d="M14.4877 18.6647L17.4023 19.3919L16.9563 17.7662L14.0417 17.0391L14.4877 18.6647Z" fill="#7A443A"/>
<path d="M15.5043 22.3678L18.4189 23.095L17.9729 21.4694L15.0583 20.7422L15.5043 22.3678Z" fill="#7A443A"/>
<path d="M16.5214 26.0709L19.436 26.7981L18.99 25.1725L16.0754 24.4453L16.5214 26.0709Z" fill="#7A443A"/>
<path d="M5.42773 2.17725L3.03697 3.24582L14.6189 29.2576L17.0097 28.1891L5.42773 2.17725Z" fill="#FCDC87"/>
<path d="M4.18404 5.82222L7.1748 6.10082L6.48898 4.56083L3.49821 4.28223L4.18404 5.82222Z" fill="#7A443A"/>
<path d="M5.74556 9.32905L8.73633 9.60766L8.0505 8.06767L5.05974 7.78906L5.74556 9.32905Z" fill="#7A443A"/>
<path d="M7.30709 12.8369L10.2979 13.1155L9.61202 11.5755L6.62126 11.2969L7.30709 12.8369Z" fill="#7A443A"/>
<path d="M8.86763 16.3442L11.8584 16.6228L11.1726 15.0828L8.18181 14.8042L8.86763 16.3442Z" fill="#7A443A"/>
<path d="M10.4306 19.852L13.4214 20.1306L12.7356 18.5906L9.74479 18.312L10.4306 19.852Z" fill="#7A443A"/>
<path d="M11.9926 23.3593L14.9834 23.6379L14.298 22.0979L11.3072 21.8193L11.9926 23.3593Z" fill="#7A443A"/>
<path d="M13.5542 26.8667L16.5449 27.1453L15.8591 25.6053L12.8683 25.3267L13.5542 26.8667Z" fill="#7A443A"/>
<mask id="mask4_58_2198" style="mask-type:luminance" maskUnits="userSpaceOnUse" x="8" y="31" width="21" height="28">
<path fill-rule="evenodd" clip-rule="evenodd" d="M20.0926 57.0204L28.4688 31.4131H8.77706L17.1532 57.0204C17.3604 57.658 17.9536 58.0896 18.6229 58.0896C19.2922 58.0896 19.8854 57.658 20.0926 57.0204Z" fill="white"/>
</mask>
<g mask="url(#mask4_58_2198)">
<path d="M20.0926 57.0204L28.4688 31.4131H8.77706L17.1532 57.0204C17.3604 57.658 17.9536 58.0896 18.6229 58.0896C19.2922 58.0896 19.8854 57.658 20.0926 57.0204Z" fill="#ECB370"/>
<g style="mix-blend-mode:multiply">
<path d="M8.32171 25.2485C7.18408 23.7919 6.97545 21.8127 7.78428 20.1501C8.5931 18.4874 10.2777 17.4327 12.1237 17.4331C12.1926 17.4331 12.2606 17.4357 12.3287 17.4383C11.7245 15.9085 12.2436 13.9877 14.5588 11.913C15.9293 10.6773 17.6118 9.84201 19.4233 9.49805C19.087 10.4139 18.9607 11.6242 22.003 12.4115C24.5405 13.0684 26.0958 15.3538 24.9793 17.4383C25.0265 17.4383 25.0737 17.4349 25.1208 17.4349C26.8385 17.4332 28.4274 18.3468 29.2925 19.8336C30.1576 21.3204 30.1682 23.1559 29.3204 24.6526L34.9448 27.1293C34.9448 27.1293 35.2042 41.5933 35.2446 41.9264C35.2849 42.2596 19.4501 71.0137 19.4501 71.0137L16.7638 57.6437C16.7638 57.6437 18.6733 58.2495 18.9101 55.9342C19.0428 54.6396 19.6717 46.7023 20.2002 39.9532C20.3054 38.3699 19.7915 36.8077 18.7673 35.5974C18.7175 35.5369 18.6695 35.4747 18.6227 35.4116C17.6378 36.7466 16.0038 37.4362 14.3623 37.2095C12.7208 36.9829 11.3339 35.8762 10.7461 34.324C8.58224 34.2655 6.71435 32.7884 6.15476 30.6933C5.59517 28.5982 6.47709 26.3838 8.32256 25.2502L8.32171 25.2485Z" fill="#EFE6D9"/>
</g>
</g>
<path d="M5.98713 27.4957C5.98643 25.791 6.8708 24.2086 8.32183 23.3184C7.1842 21.8617 6.97557 19.8825 7.7844 18.2199C8.59322 16.5573 10.2778 15.5026 12.1238 15.503C12.1927 15.503 12.2608 15.5055 12.3288 15.5081C11.7246 13.9783 12.2438 12.0575 14.5589 9.98287C15.9294 8.74715 17.612 7.91183 19.4235 7.56787C19.0871 8.48377 18.9609 9.69361 22.0031 10.4813C24.5406 11.1382 26.0959 13.4237 24.9794 15.5081C25.0266 15.5081 25.0738 15.5047 25.121 15.5047C26.9671 15.5041 28.6518 16.5587 29.4608 18.2214C30.2697 19.884 30.0611 21.8634 28.9234 23.3201C30.7689 24.4536 31.6508 26.668 31.0912 28.7631C30.5316 30.8582 28.6637 32.3353 26.4998 32.3939C25.912 33.946 24.5251 35.0527 22.8837 35.2794C21.2422 35.506 19.6082 34.8165 18.6233 33.4815C17.6383 34.8165 16.0043 35.506 14.3629 35.2794C12.7214 35.0527 11.3345 33.946 10.7467 32.3939C8.09746 32.3232 5.98665 30.1509 5.98713 27.4957Z" fill="#92B754"/>
<path d="M22.3342 18.2163C21.8391 18.3022 21.3557 18.446 20.8941 18.6449C17.9811 19.6307 15.5605 19.5851 13.3508 17.9437C12.8952 17.5845 12.3758 17.3148 11.8202 17.1488C9.59602 16.5234 7.39822 19.5105 9.85708 22.3089C12.0498 24.8061 18.371 27.0051 23.4631 23.6415C26.538 21.6116 24.626 17.9782 22.3342 18.2163Z" fill="#A5C966"/>
<path d="M24.4601 26.6286C23.3996 25.8269 22.5956 25.907 21.042 26.2976C17.365 27.2225 14.4856 27.1096 12.1717 25.6399C11.7048 25.3015 11.1885 25.0374 10.6411 24.8569C8.41733 24.2418 6.24973 27.1573 8.67797 29.9361C9.28795 30.5485 10.1499 30.8378 11.005 30.717C11.9464 33.7756 16.2875 34.5045 18.587 31.9792C19.9135 32.6683 21.4655 32.7772 22.875 32.28C25.2373 31.4382 26.4487 28.1316 24.4601 26.6286Z" fill="#A5C966"/>
<path d="M18.6225 8.37109C16.9256 8.978 15.4871 10.1485 14.5462 11.6879C12.7842 14.4352 13.8047 17.4355 16.4574 17.8905C19.2798 18.3744 21.0656 15.8989 19.8589 14.4433C17.963 12.1544 16.5093 10.7703 18.6225 8.37109Z" fill="#A5C966"/>
<path d="M-3.47781 33.2728L-6.04744 33.9644L1.62407 61.2818L4.1937 60.5902L-3.47781 33.2728Z" fill="#FCDC87"/>
<path d="M-2.18389 47.721L0.783203 48.4443L0.329158 46.8273L-2.63793 46.104L-2.18389 47.721Z" fill="#7A443A"/>
<path d="M-1.14971 51.4041L1.81738 52.1274L1.36334 50.5104L-1.60375 49.7871L-1.14971 51.4041Z" fill="#7A443A"/>
<path d="M-0.115039 55.0877L2.85205 55.811L2.39801 54.194L-0.569083 53.4707L-0.115039 55.0877Z" fill="#7A443A"/>
<path d="M0.919141 58.771L3.88623 59.4943L3.43219 57.8773L0.465096 57.1523L0.919141 58.771Z" fill="#7A443A"/>
<path d="M-10.3732 35.0049L-12.807 36.0678L-1.01671 61.9409L1.41707 60.878L-10.3732 35.0049Z" fill="#FCDC87"/>
<path d="M-2.10023 59.563L0.944336 59.8401L0.246605 58.3084L-2.79796 58.0312L-2.10023 59.563Z" fill="#7A443A"/>
<path d="M12.5615 65.2764L10.1052 80.0675C9.95336 80.8787 9.34786 81.5372 8.53961 81.77C4.97141 82.8654 1.14624 82.8654 -2.42195 81.77C-3.23015 81.5371 -3.83561 80.8787 -3.98752 80.0675L-6.44386 65.2764L12.5615 65.2764Z" fill="#ECB370"/>
<mask id="mask5_58_2198" style="mask-type:luminance" maskUnits="userSpaceOnUse" x="-7" y="65" width="20" height="18">
<path fill-rule="evenodd" clip-rule="evenodd" d="M12.5615 65.2764L10.1052 80.0675C9.95336 80.8787 9.34786 81.5372 8.53961 81.77C4.97141 82.8654 1.14624 82.8654 -2.42195 81.77C-3.23015 81.5371 -3.83561 80.8787 -3.98752 80.0675L-6.44386 65.2764L12.5615 65.2764Z" fill="white"/>
</mask>
<g mask="url(#mask5_58_2198)">
<g style="mix-blend-mode:multiply">
<path d="M-1.54732 64.6138C-1.92019 64.2407 -2.21085 63.7966 -2.40131 63.3091C-4.25756 63.2581 -5.85908 62.0193 -6.3392 60.2632C-6.81932 58.5071 -6.06399 56.6509 -4.48195 55.6989C-5.45869 54.4772 -5.6379 52.8171 -4.94359 51.4225C-4.24927 50.028 -2.80311 49.1434 -1.21837 49.1439C-1.15907 49.1439 -1.10107 49.146 -1.04264 49.1485C-1.56204 47.865 -1.11449 46.2536 0.871796 44.5142C2.04818 43.4778 3.49245 42.7773 5.04736 42.4888C4.75866 43.257 4.65045 44.2718 7.26175 44.932C9.43978 45.4828 10.7751 47.4002 9.81548 49.1472C9.85617 49.1472 9.89642 49.1439 9.93711 49.1439C11.4115 49.1426 12.7753 49.909 13.5178 51.156C14.2603 52.4029 14.2694 53.9423 13.5418 55.1977L18.3696 57.2739C18.3696 57.2739 18.5921 69.4053 18.6293 69.6845C18.6665 69.9638 5.07117 94.0807 5.07117 94.0807L2.74251 82.5837C2.74251 82.5837 4.31977 82.7913 4.5232 80.8494C4.59462 80.1672 4.91924 77.868 5.20015 74.4146C5.36956 72.2805 3.74941 70.4118 1.57083 70.2286C-0.924995 70.0126 -3.37643 69.4483 -5.70904 68.5528C-6.24395 68.3449 -6.62115 67.8688 -6.69374 67.31L-7.05126 64.6129L-1.54732 64.6138Z" fill="#EFE6D9"/>
</g>
</g>
<path d="M14.4419 63.4399L13.9658 66.2188C13.8649 66.7929 13.4627 67.2727 12.9071 67.4815C6.56596 69.859 -0.448901 69.859 -6.79 67.4815C-7.3456 67.2727 -7.74785 66.7929 -7.84872 66.2188L-8.32484 63.4399L14.4419 63.4399Z" fill="#ECB370"/>
<mask id="mask6_58_2198" style="mask-type:luminance" maskUnits="userSpaceOnUse" x="-9" y="63" width="24" height="7">
<path fill-rule="evenodd" clip-rule="evenodd" d="M14.4419 63.4399L13.9658 66.2188C13.8649 66.7929 13.4627 67.2727 12.9071 67.4815C6.56596 69.859 -0.448901 69.859 -6.79 67.4815C-7.3456 67.2727 -7.74785 66.7929 -7.84872 66.2188L-8.32484 63.4399L14.4419 63.4399Z" fill="white"/>
</mask>
<g mask="url(#mask6_58_2198)">
<g style="mix-blend-mode:multiply">
<path d="M-6.77638 57.5694C-7.93484 56.1206 -8.14742 54.1517 -7.32398 52.4978C-6.50054 50.8439 -4.78539 49.7949 -2.90597 49.7956C-2.83585 49.7956 -2.76659 49.7977 -2.69777 49.8007C-3.31283 48.2791 -2.78434 46.3685 -0.427114 44.305C0.968018 43.0758 2.68088 42.245 4.52496 41.9028C4.18215 42.8134 4.05404 44.0172 7.15098 44.8007C9.73414 45.4537 11.3175 47.7274 10.1808 49.8007C10.2289 49.8007 10.2765 49.7973 10.325 49.7973C12.0734 49.7959 13.6907 50.7048 14.5713 52.1835C15.4519 53.6622 15.4628 55.4878 14.6001 56.9766L20.3256 59.4401C20.3256 59.4401 20.5897 73.827 20.6308 74.1583C20.6719 74.4897 4.55223 103.091 4.55223 103.091L1.81714 89.7918C1.81714 89.7918 3.76101 90.3944 4.00253 88.091C4.13714 86.8037 4.7773 78.9088 5.31575 72.1956C5.42274 70.6208 4.89962 69.067 3.85709 67.863C3.80645 67.8024 3.75711 67.741 3.70993 67.6783C2.70726 69.0061 1.04389 69.692 -0.627108 69.4666C-2.2981 69.2411 -3.70996 68.1404 -4.30835 66.5965C-6.51116 66.5382 -8.41266 65.069 -8.98232 62.9851C-9.55197 60.9011 -8.65418 58.6986 -6.77552 57.5711L-6.77638 57.5694Z" fill="#EFE6D9"/>
</g>
</g>
<path d="M-9.80341 60.201C-9.80422 58.5054 -8.90411 56.9315 -7.42715 56.0459C-8.58528 54.597 -8.79763 52.6282 -7.97415 50.9744C-7.15066 49.3206 -5.43564 48.2716 -3.55629 48.2722C-3.48617 48.2722 -3.41692 48.2743 -3.3481 48.2773C-3.96316 46.7557 -3.43467 44.8451 -1.07744 42.7815C0.317687 41.5524 2.03055 40.7215 3.87463 40.3794C3.53183 41.29 3.40371 42.4938 6.50065 43.2769C9.08381 43.9302 10.6671 46.204 9.5305 48.2769C9.57854 48.2769 9.62615 48.2735 9.67463 48.2735C11.554 48.2729 13.269 49.3219 14.0925 50.9757C14.916 52.6295 14.7036 54.5982 13.5455 56.0472C15.4241 57.1747 16.3219 59.3773 15.7523 61.4612C15.1826 63.5451 13.2811 65.0143 11.0783 65.0726C10.4801 66.6165 9.06828 67.7173 7.39732 67.9428C5.72636 68.1682 4.06303 67.4823 3.06047 66.1544C2.0578 67.4823 0.394425 68.1682 -1.27657 67.9427C-2.94757 67.7173 -4.35942 66.6165 -4.95782 65.0726C-7.65468 65.0026 -9.80366 62.8421 -9.80341 60.201Z" fill="#FF7F8D"/>
<path d="M6.83806 50.9708C6.33387 51.0562 5.84168 51.1992 5.37161 51.3971C2.40668 52.3776 -0.0574503 52.3322 -2.3069 50.6996C-2.7709 50.3424 -3.29954 50.074 -3.86511 49.9085C-6.12884 49.2869 -8.3666 52.2577 -5.86351 55.0411C-3.63094 57.5254 2.80359 59.7127 7.98724 56.367C11.1171 54.3479 9.17104 50.7339 6.83806 50.9708Z" fill="#FFA5A8"/>
<path d="M9.00179 59.3385C7.92186 58.5415 7.1038 58.6212 5.52222 59.0097C1.77906 59.9297 -1.15254 59.8148 -3.50803 58.3555C-3.98328 58.0187 -4.5089 57.756 -5.06624 57.5767C-7.3304 56.9648 -9.537 59.8648 -7.06464 62.6288C-6.44382 63.2379 -5.56643 63.5254 -4.69617 63.4051C-3.73743 66.4479 0.681386 67.1729 3.02216 64.661C4.37261 65.3465 5.95248 65.4547 7.38731 64.9602C9.79258 64.1229 11.0262 60.8339 9.00179 59.3385Z" fill="#FFA5A8"/>
<path d="M-8.57122 52.3807C-7.67655 49.1277 -4.87697 48.0705 -3.36248 48.2358C-3.95157 46.7205 -3.41225 44.8256 -1.07754 42.7815C0.317595 41.5524 2.03045 40.7215 3.87454 40.3794C3.53173 41.29 3.40361 42.4938 6.50055 43.2769C9.08372 43.9302 10.667 46.204 9.5304 48.2769C9.57845 48.2769 9.62606 48.2735 9.67454 48.2735C11.8993 48.2735 14.6725 49.8269 14.9595 53.4739C14.988 53.8366 14.7084 54.7493 13.8683 54.623C13.0186 54.4959 13.5004 53.2417 12.7568 53.076C12.3408 52.9841 12.0157 53.3959 11.9088 53.7404C11.7634 54.2065 11.9599 54.7057 12.0504 55.165C12.2348 56.1035 12.0413 57.1141 10.9557 57.0366C9.89615 56.9616 10.1766 55.8366 10.4147 55.3044C10.6253 54.8151 10.5768 54.2557 10.2848 53.8082C10.0641 53.4892 9.68731 53.3084 9.29451 53.3332C8.2583 53.3476 7.70037 54.3358 7.4727 55.2044C7.2496 56.2063 7.33285 57.2503 7.71206 58.2061C8.05227 59.1565 8.34876 60.4065 8.07824 61.3565C7.87308 62.0769 7.15067 62.7374 6.3469 62.2387C5.24749 61.5578 5.81667 59.7993 6.03829 59.0802C6.68538 56.9824 6.28717 54.1557 4.38918 52.8675C3.22632 52.101 1.71652 52.0584 0.510539 52.7582C-1.64239 53.9824 -1.67052 56.8298 -1.39394 58.9506C-1.32944 59.448 -1.11086 59.9069 -1.02992 60.4057C-0.943357 60.9459 -0.912192 61.6514 -1.52119 61.8824C-2.03426 62.0418 -2.59285 61.8451 -2.88462 61.4023C-3.52522 60.4438 -3.31313 59.2815 -3.10104 58.2281C-2.91687 57.3374 -2.68571 56.4565 -2.40851 55.5891C-2.1237 54.6802 -1.52985 53.6599 -2.45179 52.8807C-2.79015 52.5996 -3.22985 52.4636 -3.67176 52.5035C-4.11367 52.5433 -4.5206 52.7556 -4.80079 53.0925C-5.55695 53.8794 -5.4046 54.7502 -5.14273 55.7154C-5.06828 55.9908 -5.13667 56.6052 -5.42018 56.7802C-5.98979 57.1285 -7.07361 56.6277 -7.03336 55.1777C-6.96477 54.5107 -6.7244 53.8717 -6.33476 53.3205C-6.12657 52.9112 -5.79977 52.5794 -5.60803 52.1735C-5.47499 51.9228 -5.48301 51.6229 -5.62924 51.3794C-5.97551 50.8836 -6.74076 51.2137 -7.00998 52.2824C-7.21428 53.0955 -7.59431 53.4514 -8.06956 53.4264C-8.46734 53.4082 -8.73613 52.9785 -8.57122 52.3807Z" fill="#EE6254"/>
<path d="M3.05817 41.1777C1.33068 41.7812 -0.133713 42.9455 -1.09142 44.4769C-2.88553 47.2091 -1.84629 50.1938 0.854172 50.646C3.72734 51.1273 5.54525 48.6654 4.31686 47.2171C2.38728 44.9413 0.907844 43.5642 3.05817 41.1777Z" fill="#FF7F6E"/>
<path d="M78.8066 66.3164L76.3745 81.0705C76.2242 81.8798 75.6246 82.5366 74.8244 82.7688C71.2915 83.8615 67.5041 83.8615 63.9712 82.7688C63.1709 82.5366 62.5714 81.8798 62.4211 81.0705L59.9889 66.3164L78.8066 66.3164Z" fill="#ECB370"/>
<mask id="mask7_58_2198" style="mask-type:luminance" maskUnits="userSpaceOnUse" x="59" y="66" width="20" height="18">
<path fill-rule="evenodd" clip-rule="evenodd" d="M78.8066 66.3164L76.3745 81.0705C76.2242 81.8798 75.6246 82.5366 74.8244 82.7688C71.2915 83.8615 67.5041 83.8615 63.9712 82.7688C63.1709 82.5366 62.5714 81.8798 62.4211 81.0705L59.9889 66.3164L78.8066 66.3164Z" fill="white"/>
</mask>
<g mask="url(#mask7_58_2198)">
<g style="mix-blend-mode:multiply">
<path d="M64.837 65.6562C64.4679 65.284 64.1803 64.841 63.9918 64.3548C62.1538 64.304 60.5679 63.0684 60.0924 61.3166C59.6169 59.5648 60.3647 57.713 61.9312 56.7634C60.9644 55.5446 60.7872 53.8887 61.4747 52.4977C62.1623 51.1066 63.594 50.2242 65.1631 50.2246C65.2214 50.2246 65.2792 50.2267 65.3371 50.2292C64.8228 48.9489 65.2655 47.3415 67.2327 45.6063C68.3974 44.5725 69.8275 43.8736 71.3671 43.5859C71.0812 44.3523 70.9737 45.3646 73.5592 46.0235C75.7162 46.573 77.0384 48.4852 76.0878 50.2279C76.1277 50.2279 76.1675 50.2246 76.2078 50.2246C77.6676 50.2233 79.018 50.9878 79.7532 52.2317C80.4884 53.4756 80.4974 55.0112 79.777 56.2634L84.5572 58.3345C84.5572 58.3345 84.778 70.4359 84.8144 70.7144C84.8508 70.993 71.3902 95.0502 71.3902 95.0502L69.0841 83.5821C69.0841 83.5821 70.6462 83.7888 70.8477 81.8516C70.9184 81.1711 71.2394 78.8776 71.5175 75.4328C71.6853 73.3041 70.0813 71.4401 67.9244 71.2571C65.4526 71.0424 63.0248 70.48 60.7145 69.5871C60.1851 69.3797 59.8117 68.9048 59.74 68.3474L59.386 65.657L64.837 65.6562Z" fill="#EFE6D9"/>
</g>
</g>
<path d="M80.6689 64.4839L80.1975 67.2558C80.0976 67.8287 79.6991 68.3073 79.1488 68.5154C72.8703 70.8871 65.9247 70.8871 59.6462 68.5154C59.0959 68.3073 58.6975 67.8287 58.5975 67.2558L58.1261 64.4839L80.6689 64.4839Z" fill="#ECB370"/>
<mask id="mask8_58_2198" style="mask-type:luminance" maskUnits="userSpaceOnUse" x="58" y="64" width="23" height="7">
<path fill-rule="evenodd" clip-rule="evenodd" d="M80.6689 64.4839L80.1975 67.2558C80.0976 67.8287 79.6991 68.3073 79.1488 68.5154C72.8703 70.8871 65.9247 70.8871 59.6462 68.5154C59.0959 68.3073 58.6975 67.8287 58.5975 67.2558L58.1261 64.4839L80.6689 64.4839Z" fill="white"/>
</mask>
<g mask="url(#mask8_58_2198)">
<g style="mix-blend-mode:multiply">
<path d="M59.6592 58.6273C58.5121 57.1821 58.3016 55.218 59.1171 53.5682C59.9325 51.9183 61.6309 50.872 63.4919 50.8728C63.5609 50.8728 63.6294 50.875 63.698 50.8779C63.089 49.3601 63.6123 47.4542 65.9463 45.3958C67.3275 44.1698 69.0234 43.3411 70.8492 43C70.5102 43.9088 70.3829 45.1092 73.4493 45.8907C76.007 46.5421 77.5752 48.8102 76.4493 50.8783C76.4969 50.8783 76.544 50.875 76.592 50.875C78.3233 50.8735 79.9247 51.78 80.7966 53.2552C81.6684 54.7303 81.6791 56.5514 80.8246 58.0364L86.4937 60.4939C86.4937 60.4939 86.7552 74.8452 86.7963 75.1757C86.8375 75.5062 70.8757 104.035 70.8757 104.035L68.168 90.7692C68.168 90.7692 70.0927 91.3703 70.3314 89.0726C70.4652 87.7885 71.099 79.9131 71.6322 73.2166C71.7379 71.6456 71.2198 70.0956 70.1875 68.8947C70.1372 68.8344 70.0886 68.7729 70.0417 68.7104C69.0489 70.035 67.402 70.7192 65.7474 70.4943C64.0929 70.2694 62.6949 69.1714 62.1024 67.6313C59.9213 67.5732 58.0386 66.1076 57.4745 64.0288C56.9105 61.95 57.7994 59.7529 59.6596 58.6282L59.6592 58.6273Z" fill="#EFE6D9"/>
</g>
</g>
<path d="M57.8797 57.9061C56.7528 53.2118 58.6697 48.3174 62.7037 45.5891C66.7376 42.8609 72.0576 42.8609 76.0915 45.5891C80.1255 48.3174 82.0424 53.2118 80.9155 57.9061C82.6684 59.3266 83.2161 61.7414 82.2441 63.7632C81.272 65.7849 79.0296 66.8948 76.805 66.4552C75.9326 67.5608 74.62 68.2427 73.2021 68.3269C71.7842 68.411 70.3981 67.8893 69.3976 66.8948C68.3971 67.8893 67.011 68.411 65.5931 68.3269C64.1752 68.2427 62.8626 67.5608 61.9902 66.4552C59.7651 66.8965 57.5212 65.7869 56.5487 63.7643C55.5763 61.7418 56.1252 59.326 57.8797 57.9061Z" fill="#8ACBA0"/>
<path d="M65.5239 53.001H65.5213C65.5213 53.0137 65.5256 53.0281 65.5273 53.0433C65.5496 53.2568 65.5761 53.4723 65.613 53.693C65.6229 53.7547 65.6353 53.8151 65.6464 53.8764C65.7823 55.0844 65.7699 56.9518 64.1036 57.6154C61.9376 58.4785 58.9971 57.0258 59.1403 54.368C59.3936 49.806 63.33 44.8154 68.5059 44.6265C66.2689 46.8234 65.1709 49.9071 65.5239 53.001Z" fill="#95DBB2"/>
<path d="M59.0121 59.2694C60.2373 58.4891 61.8312 59.5162 64.4305 60.1033C66.4019 60.548 69.0972 60.6418 72.4486 60.141C75.3303 59.9296 77.084 63.0689 75.4555 65.1709C73.8269 67.2729 70.9452 66.9009 68.4398 65.1709C66.1846 67.6423 62.5983 66.3603 62.3163 64.4603C58.0143 65.7322 56.0523 61.1537 59.0121 59.2694Z" fill="#95DBB2"/>
<path d="M57.898 51.816C58.3403 50.1955 60.7982 43.4795 69.6263 43.4795C78.0876 43.4795 81.0542 51.0844 81.1978 52.9053C81.226 53.2671 80.9496 54.178 80.1173 54.052C79.276 53.9252 79.753 52.6736 79.0168 52.5088C78.6049 52.4166 78.283 52.8279 78.1772 53.1711C78.0332 53.6361 78.2278 54.134 78.3173 54.5926C78.4999 55.5288 78.3088 56.5369 77.2335 56.4592C76.1843 56.3843 76.462 55.2621 76.6978 54.7317C76.9062 54.2434 76.8582 53.6853 76.5692 53.2388C76.3507 52.9205 75.9775 52.7404 75.5886 52.7654C74.5626 52.7793 74.0102 53.7654 73.7848 54.6319C73.5641 55.6312 73.6465 56.6724 74.0218 57.6258C74.3586 58.5738 74.6522 59.8212 74.3843 60.7684C74.1812 61.4869 73.4659 62.1459 72.67 61.6488C71.5819 60.9692 72.145 59.215 72.3649 58.4982C73.0052 56.4055 72.6109 53.5854 70.7316 52.3004C69.5802 51.5357 68.0853 51.4933 66.8912 52.1914C64.7595 53.4129 64.7316 56.2529 65.0055 58.3684C65.0693 58.8646 65.2858 59.3228 65.3659 59.8199C65.4516 60.3592 65.4829 61.063 64.8795 61.2929C64.3716 61.4521 63.8185 61.2561 63.5295 60.8145C62.8952 59.8579 63.1052 58.7011 63.3152 57.6477C63.4978 56.7592 63.7267 55.8806 64.0009 55.0153C64.2829 54.1091 64.8709 53.0908 63.958 52.3135C63.623 52.0332 63.1876 51.8977 62.7501 51.9374C62.3126 51.9772 61.9097 52.1889 61.6322 52.5249C60.8839 53.3098 61.0348 54.1788 61.2936 55.1417C61.3673 55.416 61.2996 56.0293 61.0189 56.2034C60.4549 56.5509 59.3818 56.0513 59.4216 54.6049C59.4896 53.9397 59.7276 53.3024 60.1133 52.7527C60.3195 52.3439 60.643 52.0134 60.8329 51.6085C60.9648 51.3584 60.9569 51.0589 60.8119 50.816C60.469 50.3218 59.7113 50.6511 59.4452 51.7167C59.2425 52.5278 58.8666 52.8829 58.3956 52.8579C58.0009 52.8414 57.7352 52.4128 57.898 51.816Z" fill="#7A443A"/>
<g style="mix-blend-mode:multiply">
<path d="M63.8063 59.3101L64.2104 61.0883L63.2702 60.8347L62.4713 60.1516L62.857 59.3278L63.8063 59.3101Z" fill="#F1F1F1"/>
<path d="M59.9904 53.418L61.1343 55.2583L59.9771 56.0817L59.1423 55.4447L59.2417 53.7265L59.9904 53.418Z" fill="#F1F1F1"/>
<path d="M77.881 54.6316L78.0713 55.5915L77.2094 56.3135L76.7183 55.4546L76.7337 54.6304L77.881 54.6316Z" fill="#F1F1F1"/>
<path d="M63.4858 46.3315L63.4203 47.668H62.006L61.4574 46.9253L62.1431 46.1831L63.4858 46.3315Z" fill="#F1F1F1"/>
<path d="M72.6115 59.8486L73.1772 61.8094L72.1131 62.0631L71.4235 61.257L71.9344 60.4007L72.6115 59.8486Z" fill="#F1F1F1"/>
<path d="M73.1123 44.5308L74.0723 44.6597L74.4648 45.3051L73.7667 46.295L72.8504 45.7354L73.1123 44.5308Z" fill="#F1F1F1"/>
<path d="M73.6572 53.4179V54.8812L72.9591 55.2684L72.1735 54.4936L72.7191 53.4175L73.6572 53.4179Z" fill="#F1F1F1"/>
<path d="M71.7908 48.7954L72.2656 50.2156L71.3686 50.861L70.5831 50.0863L70.9323 49.0532L71.7908 48.7954Z" fill="#F1F1F1"/>
<path d="M59.2734 49.9215L58.5316 51.1182L58.1609 51.0091L58.868 49.6143L59.2734 49.9215Z" fill="#F1F1F1"/>
<path d="M66.2229 48.8604L66.8657 49.8503L65.958 51.0088L64.6564 50.0654L65.4403 48.8604L66.2229 48.8604Z" fill="#F1F1F1"/>
<path d="M80.2665 51.2045L80.5283 52.2806L79.9609 52.8833L79.219 52.1086L79.2619 51.1187L80.2665 51.2045Z" fill="#F1F1F1"/>
<path d="M65.0472 52.9686L65.3091 54.0447L64.7417 54.647L63.9998 53.8722L64.0427 52.8823L65.0472 52.9686Z" fill="#F1F1F1"/>
<path d="M75.4695 48.8105L76.166 50.3292L77.1328 49.1748L76.5602 48.2936L75.8184 47.9922L75.4695 48.8105Z" fill="#F1F1F1"/>
<path d="M69.0449 44.385L68.5911 45.1615L67.1562 44.8424V43.9995L67.9889 43.5562L69.0449 44.385Z" fill="#F1F1F1"/>
</g>
<path d="M64.2858 58.9878L64.6899 60.766L63.7497 60.5124L62.9508 59.8293L63.3365 59.0055L64.2858 58.9878Z" fill="#D27B38"/>
<path d="M60.4699 53.0952L61.6138 54.9335L60.4566 55.7568L59.6218 55.1199L59.7212 53.4017L60.4699 53.0952Z" fill="#D27B38"/>
<path d="M78.3601 54.3099L78.5508 55.2698L77.6889 55.9917L77.1978 55.1328L77.2132 54.3086L78.3601 54.3099Z" fill="#D27B38"/>
<path d="M63.9653 46.0097L63.8998 47.3462H62.4855L61.9369 46.604L62.6226 45.8613L63.9653 46.0097Z" fill="#D27B38"/>
<path d="M73.091 59.5273L73.6567 61.4882L72.5926 61.7418L71.903 60.9357L72.4139 60.0794L73.091 59.5273Z" fill="#D27B38"/>
<path d="M73.5918 44.208L74.5518 44.3369L74.9443 44.9824L74.2462 45.9723L73.3299 45.4126L73.5918 44.208Z" fill="#D27B38"/>
<path d="M74.1372 53.0952V54.5585L73.4391 54.9461L72.6535 54.1714L73.1991 53.0956L74.1372 53.0952Z" fill="#D27B38"/>
<path d="M72.2703 48.4731L72.7451 49.8934L71.8481 50.5388L71.0625 49.7632L71.4114 48.7301L72.2703 48.4731Z" fill="#D27B38"/>
<path d="M59.7529 49.5993L59.0111 50.7959L58.1265 50.4155L58.8979 48.9463L59.7529 49.5993Z" fill="#D27B38"/>
<path d="M66.7019 48.5376L67.3447 49.5275L66.4366 50.6861L65.135 49.7427L65.9189 48.5376L66.7019 48.5376Z" fill="#D27B38"/>
<path d="M80.7455 50.8817L81.0073 51.9578L80.4399 52.5606L79.698 51.7858L79.7409 50.7959L80.7455 50.8817Z" fill="#D27B38"/>
<path d="M65.5262 52.6464L65.7881 53.7225L65.2207 54.3252L64.4788 53.5505L64.5217 52.5605L65.5262 52.6464Z" fill="#D27B38"/>
<path d="M75.949 48.4887L76.6454 50.0074L77.6123 48.8531L77.0397 47.9718L76.2979 47.6704L75.949 48.4887Z" fill="#D27B38"/>
<path d="M69.5244 44.0631L69.0706 44.8396L67.6357 44.5205V43.6768L68.4684 43.2334L69.5244 44.0631Z" fill="#D27B38"/>
</g>
</svg>
