<svg width="207" height="72" viewBox="0 0 207 72" fill="none" xmlns="http://www.w3.org/2000/svg">
<path d="M48.4828 18.4755C47.9998 18.1756 47.3573 18.2349 46.8124 18.221C46.3284 18.2086 45.844 18.1976 45.36 18.1888C44.8053 18.1789 44.2315 18.1233 43.6783 18.158C43.4158 18.1745 43.1778 18.2404 42.9138 18.2379C42.659 18.2353 42.4041 18.2273 42.1493 18.2221C41.6144 18.2111 41.0791 18.1998 40.5438 18.1892C39.4984 18.1676 38.4557 18.2803 37.4092 18.2426C36.3646 18.2053 35.32 18.1606 34.2747 18.1423C33.7171 18.1324 33.1525 18.0973 32.5949 18.1174C32.1617 18.1331 31.7293 18.228 31.4331 18.5678C31.2017 18.8339 31.1135 19.1906 31.0476 19.5424C30.5419 20.6961 30.4702 22.4254 30.2977 23.2822C29.509 27.1944 28.7471 31.1121 27.957 35.0239C27.5539 37.0197 27.1441 39.0141 26.7198 41.0052C26.4873 42.0955 25.602 43.786 26.302 44.8533C27.5549 46.7616 32.0072 46.141 33.9492 46.2161C35.2966 46.2681 36.644 46.3226 37.9921 46.3655C39.4922 46.4131 40.993 46.4475 42.4938 46.4746C43.0262 46.4841 43.5706 46.152 43.727 45.6233C44.196 44.035 44.5072 42.406 44.8433 40.7855C45.1802 39.1606 45.5211 37.5364 45.8334 35.9063C46.372 33.0958 47.0391 30.3095 47.7102 27.5283C48.2847 25.1473 49.3835 22.2837 49.2191 19.809C49.1828 19.2722 48.9514 18.7666 48.4828 18.4755Z" fill="#C98D65"/>
<path d="M47.9458 24.3513C47.4515 23.8208 46.7445 23.9174 46.1081 23.9182C45.377 23.9193 44.6458 23.9203 43.9146 23.9214C42.4522 23.9236 40.9899 23.9258 39.5279 23.928C36.6024 23.9324 33.6792 24.0159 30.7541 24.0265C30.4392 24.0254 30.2821 24.2942 30.2828 24.5629C30.2821 24.8317 30.4388 25.1004 30.7541 25.0993C33.6792 25.1099 36.6024 25.1934 39.5279 25.1978C40.9902 25.2 42.4526 25.2022 43.9146 25.2044C44.6154 25.2055 45.3162 25.2066 46.0166 25.2073C46.6764 25.2084 47.4314 25.3267 47.9458 24.7746C48.0501 24.6625 48.0501 24.4633 47.9458 24.3513Z" fill="#FFBA95"/>
<path d="M21.1217 22.6191C19.0826 23.3554 18.6499 25.3644 19.0156 27.313C19.3829 29.2685 20.325 31.126 21.668 32.5924C22.331 33.3162 23.116 33.8793 23.8652 34.5054C24.2009 34.7859 24.5345 35.0964 24.7739 35.4655C25.0793 35.9363 25.1302 36.4661 25.2228 37.0065C25.8427 40.6192 30.5923 42.0845 32.3819 45.0905C32.7118 45.6449 33.7711 45.5753 33.74 44.8042C33.6898 43.5575 33.64 42.3108 33.5898 41.0641C33.5492 40.0484 33.6546 38.8512 32.9703 38.0112C32.4021 37.3137 31.3663 37.0659 31.3827 36.0286C31.3989 35.0356 31.8737 34.1045 31.8507 33.1009C31.8291 32.1501 31.4801 31.2329 30.8866 30.4922C30.2162 29.6555 29.3225 29.4263 28.4569 28.8819C27.6847 28.396 27.4251 27.4536 27.1505 26.6378C26.8518 25.7514 26.5065 24.9177 25.9188 24.1788C24.7769 22.7421 22.8993 21.9772 21.1217 22.6191Z" fill="#4F965E"/>
<path d="M29.9529 36.5456C29.478 36.056 29.0185 35.5526 28.57 35.0385C27.7004 34.0423 26.8653 33.0226 26.0975 31.945C25.3359 30.8759 24.627 29.7654 23.9673 28.6307C23.2833 27.4551 22.6902 26.231 21.9509 25.0905C21.8854 24.9891 21.7349 25.0543 21.7591 25.1714C22.0322 26.4906 22.5884 27.7077 23.1947 28.9068C23.8223 30.148 24.5311 31.3405 25.3106 32.4924C26.0693 33.6132 26.8832 34.7086 27.7689 35.7327C28.2148 36.2483 28.6791 36.7484 29.1547 37.2365C29.6124 37.7059 30.073 38.2763 30.7588 38.3792C30.9506 38.4081 31.1117 38.2716 31.0685 38.0694C30.9298 37.4196 30.3934 36.9996 29.9529 36.5456Z" fill="#356942"/>
<path d="M10.1717 27.9944C8.23661 29.8306 8.74042 32.3083 10.1149 34.3242C11.4942 36.3472 13.4724 37.9754 15.7099 38.9654C16.8145 39.4542 17.977 39.701 19.1307 40.0371C19.6474 40.1876 20.1768 40.3725 20.6286 40.6705C21.2053 41.0506 21.5238 41.6225 21.8951 42.1856C24.3768 45.9514 30.4529 45.259 33.9535 47.7634C34.599 48.2251 35.7586 47.6243 35.343 46.7704C34.6715 45.3901 33.9997 44.0097 33.3282 42.6294C32.7812 41.5046 32.3092 40.103 31.1236 39.4941C30.1387 38.9885 28.8492 39.2202 28.356 38.0427C27.884 36.9154 27.9595 35.6317 27.4388 34.5121C26.9453 33.451 26.0995 32.5895 25.0644 32.0476C23.896 31.4358 22.7753 31.6185 21.5312 31.4321C20.421 31.2655 19.6635 30.3315 18.951 29.5476C18.1769 28.6959 17.3762 27.9267 16.3492 27.384C14.3515 26.3292 11.8585 26.3936 10.1717 27.9944Z" fill="#356942"/>
<path d="M25.8539 38.4872C25.3464 37.9772 24.5827 37.7396 23.9258 37.4935C23.3089 37.2621 22.6802 37.0637 22.0662 36.8235C20.8246 36.3384 19.6489 35.7203 18.5271 35.002C17.3902 34.2741 16.32 33.4484 15.3281 32.5327C14.8423 32.0842 14.3751 31.6152 13.9291 31.1271C13.7065 30.8836 13.4853 30.6405 13.2591 30.4007C13.0427 30.1711 12.8677 29.9236 12.5488 29.8463C12.4788 29.8295 12.4213 29.8786 12.4158 29.9474C12.3723 30.5171 12.9658 31.1315 13.299 31.5573C13.7369 32.1168 14.2 32.6565 14.6866 33.1742C15.6595 34.2085 16.7268 35.1473 17.8625 35.9986C18.9943 36.8469 20.2044 37.6125 21.4547 38.2734C22.6205 38.8896 24.2352 39.7933 25.6031 39.4381C26.0198 39.3297 26.152 38.7871 25.8539 38.4872Z" fill="#4F965E"/>
<path d="M65.3606 33.213C64.7422 30.7386 62.5559 28.7549 60.0362 28.3697C58.7763 28.1771 57.5607 28.3851 56.3653 28.8003C55.2654 29.1821 54.1655 29.7669 52.9898 29.8628C51.4194 29.9913 49.9095 29.4289 48.3402 29.8416C47.0843 30.1718 45.9493 30.992 45.183 32.0314C44.4811 32.9834 44.0908 34.099 43.9883 35.2344C43.6946 36.256 43.6078 37.3394 43.7796 38.3953C44.7337 44.258 51.1569 46.3695 56.3045 44.8211C61.1844 43.3532 66.7823 38.9024 65.3606 33.213Z" fill="#FF6873"/>
<path d="M54.6888 29.616C54.6657 29.5358 54.4365 28.9006 54.5526 29.2144C54.5024 29.0785 54.453 28.9427 54.4116 28.8039C54.338 28.5583 54.2765 28.306 54.2161 28.0566C54.1813 27.9124 54.1513 27.767 54.126 27.6206C54.1202 27.5861 54.115 27.5517 54.1095 27.5173C54.1077 27.499 54.1051 27.4752 54.1011 27.4393C54.0649 26.7968 54.0704 26.1421 54.0165 25.5024C53.9576 24.8038 53.7434 23.9207 53.0979 23.5165C52.1104 22.8985 51.362 24.5428 51.2485 25.2568C51.1101 26.1289 51.2035 27.0585 51.3803 27.9186C51.518 28.5894 51.7435 29.2499 52.0965 29.8386C52.4875 30.4911 53.1451 31.297 53.9931 31.2512C54.3267 31.2333 54.7063 31.0143 54.7744 30.6562C54.855 30.2311 54.8158 30.0594 54.6888 29.616Z" fill="#4D3630"/>
<path d="M62.5276 24.0635C60.5098 23.388 58.403 23.172 56.4197 24.0664C54.9009 24.7511 53.2994 26.1498 53.1965 27.9263C55.3187 27.6964 57.2812 28.6161 59.455 27.9314C61.0352 27.4338 62.3757 26.32 62.8992 24.7189C62.9922 24.4344 62.7898 24.1514 62.5276 24.0635Z" fill="#4F965E"/>
<path d="M61.2649 25.2809C60.8054 24.8925 59.982 24.7317 59.3973 24.7508C58.6602 24.7746 57.9096 24.8917 57.1986 25.0869C56.5132 25.2751 55.8171 25.5347 55.2273 25.9392C54.9432 26.1344 54.6715 26.3559 54.413 26.5833C54.1853 26.7836 53.9118 26.9945 53.8063 27.2866C53.7873 27.3397 53.8382 27.4093 53.8953 27.4034C54.1702 27.3767 54.4174 27.2138 54.6649 27.1003C54.96 26.9644 55.2621 26.8546 55.5682 26.7477C56.2027 26.5258 56.8299 26.2827 57.4816 26.1135C58.1125 25.9495 58.7466 25.8492 59.3973 25.8096C59.7147 25.7902 60.0296 25.7415 60.3419 25.6808C60.6356 25.6236 60.9651 25.5943 61.2404 25.4699C61.3081 25.4395 61.3202 25.3278 61.2649 25.2809Z" fill="#356942"/>
<path d="M61.5198 32.7128C61.4996 32.7048 61.4791 32.6978 61.459 32.6887C61.515 32.7114 61.5344 32.7194 61.5198 32.7128Z" fill="#FF928F"/>
<path d="M63.0464 31.468C62.8476 30.7837 62.3409 30.3666 61.7188 30.0616C61.1769 29.7958 60.3641 29.5593 59.8211 29.9705C59.4469 30.2535 59.3323 30.6343 59.5326 31.0714C59.7167 31.4731 60.181 31.7367 60.5303 31.9718C60.5501 31.9853 60.5636 31.9937 60.5728 31.9996C60.5801 32.0058 60.5852 32.0106 60.597 32.0201C60.6764 32.0864 60.75 32.1589 60.8232 32.2321C60.8822 32.2911 60.9367 32.3533 60.999 32.4093C61.1062 32.525 61.2337 32.6067 61.3805 32.6546C61.4599 32.6876 61.5061 32.707 61.5204 32.7132C61.9066 32.8706 62.3105 32.8827 62.6598 32.6045C62.9922 32.3386 63.1695 31.892 63.0464 31.468Z" fill="#FF928F"/>
<path d="M61.4585 72H15.7232C13.5201 72 11.6748 70.1752 11.4537 67.7777L9.21763 43.5337C8.9628 40.7697 10.9469 38.3697 13.4872 38.3697H63.6945C66.2348 38.3697 68.2189 40.7697 67.964 43.5337L65.728 67.7777C65.5069 70.1755 63.6619 72 61.4585 72Z" fill="#01AC66"/>
<path d="M20.4259 67.785H20.3721C19.3172 67.785 18.4619 66.9297 18.4619 65.8748V51.9026C18.4619 50.8477 19.3172 49.9924 20.3721 49.9924H20.4259C21.4807 49.9924 22.336 50.8477 22.336 51.9026V65.8748C22.336 66.9301 21.4807 67.785 20.4259 67.785Z" fill="#00462A"/>
<path d="M32.5416 67.785H32.4878C31.4329 67.785 30.5776 66.9297 30.5776 65.8748V51.9026C30.5776 50.8477 31.4326 49.9924 32.4878 49.9924H32.5416C33.5965 49.9924 34.4518 50.8477 34.4518 51.9026V65.8748C34.4518 66.9301 33.5965 67.785 32.5416 67.785Z" fill="#00462A"/>
<path d="M45.4075 67.785H45.3536C44.2988 67.785 43.4435 66.9297 43.4435 65.8748V51.9026C43.4435 50.8477 44.2988 49.9924 45.3536 49.9924H45.4075C46.4623 49.9924 47.3176 50.8477 47.3176 51.9026V65.8748C47.3176 66.9301 46.4623 67.785 45.4075 67.785Z" fill="#00462A"/>
<path d="M57.0038 67.785H56.9503C55.8955 67.785 55.0402 66.9297 55.0402 65.8748V51.9026C55.0402 50.8477 55.8955 49.9924 56.9503 49.9924H57.0041C58.059 49.9924 58.9143 50.8477 58.9143 51.9026V65.8748C58.9139 66.9301 58.0586 67.785 57.0038 67.785Z" fill="#00462A"/>
<path d="M68.7604 46.412H8.38797C6.04871 46.412 4.15247 44.5157 4.15247 42.1764V42.0575C4.15247 39.7182 6.04871 37.8219 8.38797 37.8219H68.7604C71.0997 37.8219 72.9959 39.7182 72.9959 42.0575V42.1764C72.9959 44.5157 71.0997 46.412 68.7604 46.412Z" fill="#00462A"/>
<path d="M68.7774 44.6863H8.40457C6.0653 44.6863 4.16907 42.7901 4.16907 40.4508V40.3318C4.16907 37.9926 6.0653 36.0963 8.40457 36.0963H68.7774C71.1166 36.0963 73.0129 37.9926 73.0129 40.3318V40.4508C73.0129 42.7901 71.1166 44.6863 68.7774 44.6863Z" fill="#01AC66"/>
<path d="M36.6974 41.5826L17.9372 20.7668C16.7802 19.4831 16.883 17.5041 18.1667 16.3471L18.2319 16.2882C19.5156 15.1312 21.4946 15.234 22.6516 16.5177L41.4119 37.3335C42.5689 38.6172 42.466 40.5962 41.1823 41.7532L41.1171 41.8121C39.8331 42.9691 37.8544 42.8666 36.6974 41.5826Z" fill="#4D3630"/>
<path d="M40.3217 39.4348C40.3217 40.1037 39.7794 40.6464 39.1101 40.6464C38.4408 40.6464 37.8986 40.1037 37.8986 39.4348C37.8986 38.7659 38.4408 38.2233 39.1101 38.2233C39.7794 38.2233 40.3217 38.7655 40.3217 39.4348Z" fill="#01AC66"/>
<path d="M66.6584 38.5242H60.6918C60.1536 38.5242 59.7413 38.7194 59.4521 39.0174C58.8728 39.4304 58.7432 40.2912 59.0486 40.9638C59.2598 41.6111 59.8065 42.134 60.6918 42.134H66.6584C68.9809 42.134 68.9849 38.5242 66.6584 38.5242Z" fill="#01AC66"/>
<path d="M57.0713 40.3289C57.042 39.6743 56.6835 39.2001 56.1511 38.9735C55.9241 38.8387 55.6627 38.7549 55.3727 38.7549H54.1758C53.3524 38.7549 52.5637 39.4787 52.6018 40.3289C52.6399 41.1817 53.2934 41.903 54.1758 41.903H55.3727C55.539 41.903 55.7019 41.8667 55.8586 41.8125C56.5279 41.6975 57.1013 40.9949 57.0713 40.3289Z" fill="#01AC66"/>
<path d="M39.6205 1.65063C39.4243 0.881007 38.8501 0.00849775 37.9403 7.65299e-05C37.0055 -0.00834469 36.3652 0.852815 36.1502 1.65063C35.9177 2.51436 36.0737 3.34769 36.1956 4.21105C36.2905 4.88402 36.5306 5.48778 36.7921 6.11205C37.0275 6.67481 37.1747 7.37743 37.5771 7.84682C37.6763 7.96252 37.9117 7.96289 38.0106 7.84682C38.3859 7.40562 38.5239 6.76781 38.7542 6.24423C39.0479 5.57749 39.3397 4.92795 39.4766 4.21068C39.6384 3.36856 39.8376 2.50337 39.6205 1.65063Z" fill="#00462A"/>
<path d="M55.3191 6.24092C55.5183 5.47203 55.4352 4.43109 54.6421 3.98513C53.8271 3.52709 52.8509 3.97305 52.2783 4.56876C51.6584 5.21353 51.3937 6.01904 51.0843 6.83443C50.8434 7.46969 50.7628 8.11446 50.6907 8.78779C50.6259 9.39448 50.4165 10.081 50.5428 10.6862C50.5739 10.8356 50.7801 10.9491 50.9228 10.8953C51.4644 10.6899 51.8924 10.1974 52.3468 9.8496C52.9253 9.40693 53.4939 8.97855 53.96 8.41579C54.507 7.75491 55.0983 7.09256 55.3191 6.24092Z" fill="#00462A"/>
<path d="M67.7368 15.5229C68.1257 14.8302 68.3109 13.8024 67.6577 13.169C66.9866 12.5184 65.9288 12.7007 65.2233 13.1306C64.4595 13.5959 63.9978 14.307 63.4907 15.0166C63.0956 15.5694 62.8533 16.1721 62.612 16.8048C62.3945 17.3749 62.017 17.9852 61.9844 18.6025C61.9764 18.7548 62.147 18.9174 62.2986 18.9013C62.8745 18.8405 63.4142 18.4737 63.9421 18.2532C64.6144 17.9728 65.2734 17.7037 65.8677 17.2786C66.5652 16.7795 67.3062 16.2904 67.7368 15.5229Z" fill="#00462A"/>
<path d="M75.6721 32.4994C76.3407 32.0702 76.9866 31.2497 76.7072 30.3838C76.4201 29.4941 75.4004 29.1587 74.5759 29.207C73.6832 29.2594 72.9414 29.6706 72.1608 30.059C71.5523 30.3618 71.0554 30.7803 70.5454 31.2256C70.0859 31.6269 69.466 31.9882 69.1475 32.5184C69.0688 32.6491 69.1431 32.8728 69.2844 32.9299C69.8216 33.1467 70.47 33.076 71.0397 33.1295C71.765 33.1972 72.4731 33.269 73.1974 33.1727C74.0479 33.0592 74.9318 32.975 75.6721 32.4994Z" fill="#00462A"/>
<path d="M21.4549 6.24092C21.2557 5.47203 21.3388 4.43109 22.1319 3.98513C22.9469 3.52709 23.9231 3.97305 24.4957 4.56876C25.1156 5.21353 25.3803 6.01904 25.6897 6.83443C25.9306 7.46969 26.0112 8.11446 26.0833 8.78779C26.1481 9.39448 26.3575 10.081 26.2312 10.6862C26.2001 10.8356 25.9939 10.9491 25.8512 10.8953C25.3096 10.6899 24.8816 10.1974 24.4272 9.8496C23.8487 9.40693 23.2801 8.97855 22.8144 8.41579C22.267 7.75491 21.6757 7.09256 21.4549 6.24092Z" fill="#00462A"/>
<path d="M9.03728 15.5229C8.64844 14.8302 8.46318 13.8024 9.11637 13.169C9.7875 12.5184 10.8453 12.7007 11.5508 13.1306C12.3146 13.5959 12.7763 14.307 13.2834 15.0166C13.6785 15.5694 13.9209 16.1721 14.1621 16.8048C14.3796 17.3749 14.7571 17.9852 14.7897 18.6025C14.7978 18.7548 14.6271 18.9174 14.4756 18.9013C13.8996 18.8405 13.3599 18.4737 12.832 18.2532C12.1597 17.9728 11.5007 17.7037 10.9068 17.2786C10.2089 16.7795 9.46786 16.2904 9.03728 15.5229Z" fill="#00462A"/>
<path d="M1.10185 32.4994C0.433283 32.0702 -0.212592 31.2497 0.0667728 30.3838C0.353826 29.4941 1.37353 29.1587 2.19807 29.207C3.09072 29.2594 3.83252 29.6706 4.61313 30.059C5.22166 30.3618 5.71851 30.7803 6.22854 31.2256C6.68805 31.6269 7.30792 31.9882 7.62646 32.5184C7.70518 32.6491 7.63086 32.8728 7.48953 32.9299C6.9524 33.1467 6.30397 33.076 5.73425 33.1295C5.00893 33.1972 4.30081 33.269 3.57659 33.1727C2.72605 33.0592 1.84219 32.975 1.10185 32.4994Z" fill="#00462A"/>
<path d="M98.1633 64.936C96.9047 64.936 95.7313 64.7547 94.6433 64.392C93.5767 64.0293 92.638 63.528 91.8273 62.888C91.0167 62.2693 90.3767 61.512 89.9073 60.616C89.4593 59.7413 89.2353 58.7707 89.2353 57.704C89.2353 57.2773 89.2673 56.7227 89.3313 56.04C89.4167 55.336 89.5127 54.5467 89.6193 53.672C89.7473 52.7973 89.886 51.9013 90.0353 50.984L92.7233 51.368C92.51 52.776 92.3287 54.056 92.1793 55.208C92.0513 56.36 91.9873 57.1813 91.9873 57.672C91.9873 58.6107 92.2433 59.4427 92.7553 60.168C93.2887 60.8933 94.014 61.4587 94.9313 61.864C95.87 62.2693 96.9473 62.472 98.1633 62.472H107.219C108.819 62.472 110.025 62.0347 110.835 61.16C111.667 60.3067 112.083 59.0053 112.083 57.256C112.083 56.4027 111.945 55.7307 111.667 55.24C111.411 54.7493 110.953 54.344 110.291 54.024C109.63 53.6827 108.691 53.3307 107.475 52.968C106.345 52.648 105.331 52.3387 104.435 52.04C103.561 51.72 102.814 51.3573 102.195 50.952C101.577 50.5253 101.107 50.0027 100.787 49.384C100.467 48.744 100.307 47.912 100.307 46.888C100.307 45.5653 100.585 44.4667 101.139 43.592C101.694 42.7173 102.483 42.0667 103.507 41.64C104.553 41.2133 105.811 41 107.283 41L107.187 43.464C106.227 43.464 105.438 43.5813 104.819 43.816C104.201 44.0507 103.742 44.4133 103.443 44.904C103.145 45.3733 102.995 45.992 102.995 46.76C102.995 47.3787 103.102 47.8907 103.315 48.296C103.529 48.68 103.859 49 104.307 49.256C104.755 49.512 105.299 49.7467 105.939 49.96C106.601 50.152 107.358 50.3653 108.211 50.6C109.235 50.8987 110.153 51.2187 110.963 51.56C111.774 51.9013 112.457 52.3173 113.011 52.808C113.587 53.2987 114.025 53.9173 114.323 54.664C114.622 55.3893 114.771 56.296 114.771 57.384C114.771 58.856 114.473 60.1573 113.875 61.288C113.299 62.44 112.446 63.336 111.315 63.976C110.206 64.616 108.841 64.936 107.219 64.936H98.1633ZM107.187 43.464L107.283 41H117.363V43.464H107.187ZM117.363 57V41H120.115V57H117.363ZM120.115 57V54.536H123.571C124.275 54.536 124.819 54.4293 125.203 54.216C125.587 54.0027 125.854 53.576 126.003 52.936C126.153 52.296 126.227 51.3573 126.227 50.12V42.6H128.979V50.12C128.979 51.8053 128.787 53.16 128.403 54.184C128.041 55.1867 127.465 55.912 126.675 56.36C125.886 56.7867 124.851 57 123.571 57H120.115ZM130.515 57C129.769 57 129.033 56.8613 128.307 56.584C127.603 56.2853 126.91 55.8373 126.227 55.24L128.019 53.384C128.489 53.7893 128.915 54.088 129.299 54.28C129.705 54.4507 130.11 54.536 130.515 54.536H136.243L135.123 55.688V48.104C135.123 47.7413 135.081 47.208 134.995 46.504C134.91 45.8 134.793 45.0107 134.643 44.136C134.515 43.24 134.366 42.344 134.195 41.448L136.851 41C137.001 41.7467 137.15 42.5787 137.299 43.496C137.449 44.4133 137.566 45.288 137.651 46.12C137.758 46.952 137.811 47.6133 137.811 48.104V57H130.515ZM126.323 33.8V31.016H128.819V33.8H126.323ZM123.923 38.12V35.144H126.643V38.12H123.923ZM128.499 38.12V35.144H131.219V38.12H128.499ZM98.3873 69.704V66.728H101.107V69.704H98.3873ZM102.963 69.704V66.728H105.683V69.704H102.963ZM145.997 57V54.536H149.869V57H145.997ZM143.277 57V34.088H145.997V57H143.277ZM149.869 57V54.536C149.997 54.536 150.103 54.568 150.189 54.632C150.274 54.6747 150.338 54.7493 150.381 54.856C150.423 54.9627 150.455 55.0907 150.477 55.24C150.498 55.3893 150.509 55.56 150.509 55.752C150.509 55.944 150.498 56.1253 150.477 56.296C150.455 56.4453 150.423 56.5733 150.381 56.68C150.338 56.7867 150.274 56.872 150.189 56.936C150.103 56.9787 149.997 57 149.869 57ZM168.102 57V54.536H171.558V57H168.102ZM149.862 57C149.734 57 149.627 56.9787 149.542 56.936C149.456 56.872 149.392 56.7867 149.35 56.68C149.307 56.5733 149.275 56.4453 149.254 56.296C149.232 56.1253 149.222 55.944 149.222 55.752C149.222 55.496 149.243 55.2827 149.286 55.112C149.307 54.9413 149.371 54.8027 149.478 54.696C149.563 54.5893 149.691 54.536 149.862 54.536V57ZM149.862 57V54.536H167.238L165.382 55.88V49.16C165.382 47.7093 165.211 46.568 164.87 45.736C164.55 44.904 163.984 44.3173 163.174 43.976C162.384 43.6347 161.307 43.464 159.942 43.464C159.046 43.464 158.16 43.528 157.286 43.656C156.411 43.7627 155.728 43.9227 155.238 44.136L156.902 42.472C156.774 42.984 156.646 43.6347 156.518 44.424C156.39 45.192 156.283 46.024 156.198 46.92C156.112 47.7947 156.07 48.6693 156.07 49.544C156.07 50.44 156.112 51.3253 156.198 52.2C156.283 53.0747 156.379 53.832 156.486 54.472C156.592 55.0907 156.678 55.528 156.742 55.784L154.15 56.52C154.064 56.2427 153.958 55.7627 153.83 55.08C153.702 54.3973 153.584 53.576 153.478 52.616C153.392 51.656 153.35 50.632 153.35 49.544C153.35 48.4987 153.403 47.4853 153.51 46.504C153.616 45.5013 153.734 44.5947 153.862 43.784C154.011 42.9733 154.15 42.3227 154.278 41.832C154.747 41.64 155.494 41.448 156.518 41.256C157.563 41.064 158.704 40.968 159.942 40.968C161.755 40.968 163.27 41.2347 164.486 41.768C165.702 42.3013 166.608 43.1653 167.206 44.36C167.803 45.5547 168.102 47.1547 168.102 49.16V57H149.862ZM171.558 57V54.536C171.686 54.536 171.792 54.568 171.878 54.632C171.963 54.6747 172.027 54.7493 172.07 54.856C172.112 54.9627 172.144 55.0907 172.166 55.24C172.187 55.3893 172.198 55.56 172.198 55.752C172.198 55.944 172.187 56.1253 172.166 56.296C172.144 56.4453 172.112 56.5733 172.07 56.68C172.027 56.7867 171.963 56.872 171.878 56.936C171.792 56.9787 171.686 57 171.558 57ZM175.389 57V34.088H178.141V57H175.389ZM171.549 57V54.536H175.389V57H171.549ZM171.549 57C171.421 57 171.314 56.9787 171.229 56.936C171.144 56.872 171.08 56.7867 171.037 56.68C170.994 56.5733 170.962 56.4453 170.941 56.296C170.92 56.1253 170.909 55.944 170.909 55.752C170.909 55.496 170.93 55.2827 170.973 55.112C170.994 54.9413 171.058 54.8027 171.165 54.696C171.25 54.5893 171.378 54.536 171.549 54.536V57ZM186.309 57V54.536H190.181V57H186.309ZM183.589 57V34.088H186.309V57H183.589ZM190.181 57V54.536C190.309 54.536 190.416 54.568 190.501 54.632C190.586 54.6747 190.65 54.7493 190.693 54.856C190.736 54.9627 190.768 55.0907 190.789 55.24C190.81 55.3893 190.821 55.56 190.821 55.752C190.821 55.944 190.81 56.1253 190.789 56.296C190.768 56.4453 190.736 56.5733 190.693 56.68C190.65 56.7867 190.586 56.872 190.501 56.936C190.416 56.9787 190.309 57 190.181 57ZM196.99 56.84C195.838 55.8587 194.963 54.7387 194.366 53.48C193.769 52.2213 193.47 50.888 193.47 49.48C193.47 48.264 193.683 47.144 194.11 46.12C194.558 45.0747 195.155 44.168 195.902 43.4C196.67 42.632 197.566 42.0453 198.59 41.64C199.614 41.2133 200.713 41 201.886 41C202.526 41 203.198 41.064 203.902 41.192C204.606 41.32 205.289 41.5013 205.95 41.736L205.054 44.04C204.521 43.8693 203.987 43.7307 203.454 43.624C202.921 43.5173 202.419 43.464 201.95 43.464C200.841 43.464 199.849 43.72 198.974 44.232C198.099 44.744 197.417 45.4587 196.926 46.376C196.457 47.272 196.222 48.3067 196.222 49.48C196.222 50.5467 196.435 51.5493 196.862 52.488C197.31 53.4267 197.961 54.2693 198.814 55.016L196.99 56.84ZM190.174 57V54.536H206.334V57H190.174ZM190.174 57C190.046 57 189.939 56.9787 189.854 56.936C189.769 56.872 189.705 56.7867 189.662 56.68C189.619 56.5733 189.587 56.4453 189.566 56.296C189.545 56.1253 189.534 55.944 189.534 55.752C189.534 55.496 189.555 55.2827 189.598 55.112C189.619 54.9413 189.683 54.8027 189.79 54.696C189.875 54.5893 190.003 54.536 190.174 54.536V57Z" fill="#242424"/>
</svg>
