<svg width="210" height="72" viewBox="0 0 210 72" fill="none" xmlns="http://www.w3.org/2000/svg">
<path d="M48.4828 18.4755C47.9998 18.1757 47.3573 18.235 46.8124 18.2211C46.3284 18.2086 45.844 18.1976 45.36 18.1889C44.8053 18.179 44.2315 18.1233 43.6783 18.1581C43.4158 18.1746 43.1778 18.2405 42.9138 18.2379C42.659 18.2354 42.4041 18.2273 42.1493 18.2222C41.6144 18.2112 41.0791 18.1998 40.5438 18.1892C39.4984 18.1676 38.4557 18.2804 37.4092 18.2427C36.3646 18.2053 35.32 18.1607 34.2747 18.1424C33.7171 18.1325 33.1525 18.0973 32.5949 18.1175C32.1617 18.1332 31.7293 18.228 31.4331 18.5678C31.2017 18.834 31.1135 19.1906 31.0476 19.5425C30.5419 20.6962 30.4702 22.4255 30.2977 23.2822C29.509 27.1944 28.7471 31.1121 27.957 35.024C27.5539 37.0198 27.1441 39.0142 26.7198 41.0052C26.4873 42.0956 25.602 43.7861 26.302 44.8534C27.5549 46.7617 32.0072 46.1411 33.9492 46.2161C35.2966 46.2681 36.644 46.3227 37.9921 46.3655C39.4922 46.4131 40.993 46.4475 42.4938 46.4746C43.0262 46.4841 43.5706 46.1521 43.727 45.6233C44.196 44.035 44.5072 42.4061 44.8433 40.7855C45.1802 39.1606 45.5211 37.5364 45.8334 35.9064C46.372 33.0959 47.0391 30.3095 47.7102 27.5283C48.2847 25.1473 49.3835 22.2838 49.2191 19.809C49.1828 19.2723 48.9514 18.7666 48.4828 18.4755Z" fill="#C98D65"/>
<path d="M47.9459 24.3514C47.4516 23.8208 46.7446 23.9175 46.1083 23.9182C45.3771 23.9193 44.6459 23.9204 43.9147 23.9215C42.4523 23.9237 40.99 23.9259 39.528 23.9281C36.6025 23.9325 33.6793 24.016 30.7542 24.0266C30.4393 24.0255 30.2822 24.2943 30.283 24.563C30.2822 24.8317 30.4389 25.1005 30.7542 25.0994C33.6793 25.11 36.6025 25.1935 39.528 25.1979C40.9904 25.2001 42.4527 25.2023 43.9147 25.2045C44.6155 25.2056 45.3163 25.2067 46.0167 25.2074C46.6765 25.2085 47.4315 25.3268 47.9459 24.7746C48.0503 24.6626 48.0503 24.4634 47.9459 24.3514Z" fill="#FFBA95"/>
<path d="M21.1218 22.619C19.0828 23.3553 18.65 25.3643 19.0158 27.3129C19.383 29.2685 20.3251 31.1259 21.6681 32.5923C22.3312 33.3162 23.1162 33.8793 23.8653 34.5054C24.201 34.7859 24.5346 35.0963 24.7741 35.4654C25.0794 35.9363 25.1303 36.4661 25.2229 37.0065C25.8428 40.6192 30.5924 42.0845 32.3821 45.0905C32.712 45.6448 33.7712 45.5753 33.7401 44.8042C33.6899 43.5575 33.6401 42.3108 33.59 41.0641C33.5493 40.0484 33.6548 38.8511 32.9705 38.0112C32.4022 37.3137 31.3664 37.0658 31.3829 36.0285C31.399 35.0356 31.8739 34.1045 31.8508 33.1009C31.8292 32.15 31.4803 31.2328 30.8868 30.4921C30.2164 29.6555 29.3226 29.4263 28.457 28.8819C27.6849 28.396 27.4253 27.4535 27.1507 26.6378C26.8519 25.7514 26.5066 24.9177 25.919 24.1788C24.777 22.7421 22.8994 21.9772 21.1218 22.619Z" fill="#4F965E"/>
<path d="M29.953 36.5455C29.4782 36.056 29.0187 35.5526 28.5701 35.0385C27.7005 34.0422 26.8654 33.0225 26.0976 31.945C25.336 30.8759 24.6272 29.7653 23.9674 28.6307C23.2834 27.455 22.6903 26.231 21.9511 25.0905C21.8855 24.9891 21.735 25.0542 21.7592 25.1714C22.0323 26.4906 22.5885 27.7076 23.1948 28.9067C23.8224 30.148 24.5312 31.3405 25.3107 32.4924C26.0694 33.6131 26.8833 34.7086 27.769 35.7327C28.215 36.2482 28.6792 36.7484 29.1549 37.2364C29.6125 37.7058 30.0731 38.2763 30.7589 38.3792C30.9508 38.4081 31.1119 38.2715 31.0687 38.0694C30.9299 37.4195 30.3935 36.9995 29.953 36.5455Z" fill="#356942"/>
<path d="M10.1718 27.9943C8.23673 29.8305 8.74054 32.3082 10.115 34.3242C11.4943 36.3471 13.4725 37.9753 15.71 38.9654C16.8147 39.4542 17.9772 39.7009 19.1309 40.037C19.6475 40.1875 20.1769 40.3724 20.6287 40.6705C21.2054 41.0505 21.5239 41.6224 21.8952 42.1856C24.3769 45.9513 30.453 45.2589 33.9537 47.7633C34.5992 48.225 35.7587 47.6242 35.3432 46.7704C34.6717 45.39 33.9998 44.0097 33.3283 42.6293C32.7813 41.5045 32.3093 40.103 31.1238 39.4941C30.1389 38.9884 28.8493 39.2202 28.3561 38.0427C27.8842 36.9153 27.9596 35.6317 27.4389 34.512C26.9454 33.4509 26.0996 32.5894 25.0645 32.0475C23.8962 31.4357 22.7754 31.6184 21.5313 31.432C20.4211 31.2654 19.6636 30.3314 18.9511 29.5475C18.1771 28.6959 17.3763 27.9266 16.3493 27.384C14.3516 26.3291 11.8586 26.3936 10.1718 27.9943Z" fill="#356942"/>
<path d="M25.8539 38.4871C25.3464 37.9771 24.5827 37.7395 23.9258 37.4934C23.3089 37.262 22.6802 37.0636 22.0662 36.8234C20.8246 36.3383 19.6489 35.7202 18.5271 35.0018C17.3902 34.274 16.32 33.4483 15.3281 32.5326C14.8423 32.0841 14.3751 31.615 13.9291 31.127C13.7065 30.8835 13.4853 30.6404 13.2591 30.4006C13.0427 30.171 12.8677 29.9235 12.5488 29.8462C12.4788 29.8294 12.4213 29.8784 12.4158 29.9473C12.3723 30.517 12.9658 31.1314 13.299 31.5572C13.7369 32.1167 14.2 32.6564 14.6866 33.1741C15.6595 34.2084 16.7268 35.1472 17.8625 35.9985C18.9943 36.8468 20.2044 37.6124 21.4547 38.2733C22.6205 38.8895 24.2352 39.7932 25.6031 39.438C26.0198 39.3296 26.152 38.787 25.8539 38.4871Z" fill="#4F965E"/>
<path d="M65.3607 33.2129C64.7423 30.7386 62.5561 28.7548 60.0363 28.3696C58.7764 28.1771 57.5608 28.385 56.3654 28.8002C55.2655 29.1821 54.1656 29.7668 52.9899 29.8628C51.4196 29.9913 49.9096 29.4289 48.3403 29.8415C47.0845 30.1718 45.9494 30.9919 45.1831 32.0314C44.4812 32.9834 44.0909 34.099 43.9884 35.2344C43.6947 36.2559 43.608 37.3393 43.7797 38.3953C44.7338 44.2579 51.157 46.3694 56.3046 44.821C61.1845 43.3532 66.7824 38.9024 65.3607 33.2129Z" fill="#FF6873"/>
<path d="M54.689 29.616C54.6659 29.5358 54.4368 28.9006 54.5528 29.2144C54.5027 29.0785 54.4532 28.9427 54.4119 28.8039C54.3383 28.5582 54.2767 28.306 54.2163 28.0566C54.1815 27.9124 54.1515 27.767 54.1263 27.6205C54.1204 27.5861 54.1153 27.5517 54.1098 27.5173C54.1079 27.499 54.1054 27.4752 54.1014 27.4393C54.0651 26.7967 54.0706 26.1421 54.0168 25.5024C53.9578 24.8038 53.7436 23.9207 53.0981 23.5165C52.1107 22.8984 51.3623 24.5428 51.2488 25.2568C51.1104 26.1289 51.2037 27.0585 51.3806 27.9186C51.5183 28.5894 51.7438 29.2499 52.0967 29.8386C52.4878 30.4911 53.1454 31.297 53.9934 31.2512C54.3269 31.2333 54.7066 31.0143 54.7747 30.6562C54.8552 30.2311 54.8161 30.0594 54.689 29.616Z" fill="#4D3630"/>
<path d="M62.5279 24.0635C60.5101 23.388 58.4033 23.1719 56.4199 24.0664C54.9012 24.7511 53.2997 26.1498 53.1968 27.9263C55.3189 27.6963 57.2814 28.6161 59.4552 27.9314C61.0355 27.4338 62.3759 26.32 62.8995 24.7189C62.9925 24.4344 62.79 24.1514 62.5279 24.0635Z" fill="#4F965E"/>
<path d="M61.2652 25.2809C60.8057 24.8925 59.9822 24.7317 59.3975 24.7508C58.6605 24.7746 57.9099 24.8917 57.1988 25.0869C56.5134 25.2751 55.8174 25.5347 55.2275 25.9393C54.9434 26.1344 54.6717 26.3559 54.4132 26.5833C54.1855 26.7836 53.912 26.9945 53.8066 27.2867C53.7875 27.3397 53.8384 27.4093 53.8955 27.4035C54.1705 27.3767 54.4176 27.2138 54.6652 27.1003C54.9603 26.9645 55.2623 26.8546 55.5684 26.7477C56.2029 26.5258 56.8301 26.2827 57.4819 26.1135C58.1127 25.9495 58.7469 25.8492 59.3975 25.8096C59.715 25.7902 60.0298 25.7415 60.3422 25.6808C60.6358 25.6236 60.9653 25.5944 61.2407 25.4699C61.3084 25.4395 61.3205 25.3278 61.2652 25.2809Z" fill="#356942"/>
<path d="M61.52 32.7128C61.4999 32.7047 61.4794 32.6978 61.4592 32.6886C61.5152 32.7113 61.5346 32.7194 61.52 32.7128Z" fill="#FF928F"/>
<path d="M63.0466 31.4679C62.8477 30.7836 62.341 30.3665 61.7189 30.0616C61.177 29.7957 60.3642 29.5592 59.8212 29.9704C59.447 30.2534 59.3324 30.6342 59.5327 31.0714C59.7169 31.473 60.1811 31.7366 60.5304 31.9717C60.5502 31.9852 60.5638 31.9937 60.5729 31.9995C60.5802 32.0058 60.5854 32.0105 60.5971 32.02C60.6765 32.0863 60.7501 32.1588 60.8234 32.232C60.8823 32.291 60.9368 32.3532 60.9991 32.4092C61.1064 32.5249 61.2338 32.6066 61.3806 32.6546C61.4601 32.6875 61.5062 32.7069 61.5205 32.7131C61.9068 32.8706 62.3106 32.8827 62.6599 32.6044C62.9924 32.3386 63.1696 31.8919 63.0466 31.4679Z" fill="#FF928F"/>
<path d="M61.4585 71.9999H15.7232C13.5201 71.9999 11.6748 70.1751 11.4537 67.7776L9.21763 43.5337C8.9628 40.7697 10.9469 38.3696 13.4872 38.3696H63.6945C66.2348 38.3696 68.2189 40.7697 67.964 43.5337L65.728 67.7776C65.5069 70.1755 63.6619 71.9999 61.4585 71.9999Z" fill="#01AC66"/>
<path d="M20.4259 67.785H20.3721C19.3172 67.785 18.4619 66.9297 18.4619 65.8748V51.9026C18.4619 50.8477 19.3172 49.9924 20.3721 49.9924H20.4259C21.4807 49.9924 22.336 50.8477 22.336 51.9026V65.8748C22.336 66.9301 21.4807 67.785 20.4259 67.785Z" fill="#00462A"/>
<path d="M32.5416 67.785H32.4878C31.4329 67.785 30.5776 66.9297 30.5776 65.8748V51.9026C30.5776 50.8477 31.4326 49.9924 32.4878 49.9924H32.5416C33.5965 49.9924 34.4518 50.8477 34.4518 51.9026V65.8748C34.4518 66.9301 33.5965 67.785 32.5416 67.785Z" fill="#00462A"/>
<path d="M45.4073 67.785H45.3535C44.2987 67.785 43.4434 66.9297 43.4434 65.8748V51.9026C43.4434 50.8477 44.2987 49.9924 45.3535 49.9924H45.4073C46.4622 49.9924 47.3175 50.8477 47.3175 51.9026V65.8748C47.3175 66.9301 46.4622 67.785 45.4073 67.785Z" fill="#00462A"/>
<path d="M57.0039 67.785H56.9504C55.8956 67.785 55.0403 66.9297 55.0403 65.8748V51.9026C55.0403 50.8477 55.8956 49.9924 56.9504 49.9924H57.0043C58.0591 49.9924 58.9144 50.8477 58.9144 51.9026V65.8748C58.914 66.9301 58.0587 67.785 57.0039 67.785Z" fill="#00462A"/>
<path d="M68.7605 46.4119H8.3881C6.04883 46.4119 4.15259 44.5157 4.15259 42.1764V42.0574C4.15259 39.7181 6.04883 37.8219 8.3881 37.8219H68.7605C71.0998 37.8219 72.996 39.7181 72.996 42.0574V42.1764C72.996 44.5157 71.0998 46.4119 68.7605 46.4119Z" fill="#00462A"/>
<path d="M68.7775 44.6863H8.40469C6.06543 44.6863 4.16919 42.7901 4.16919 40.4508V40.3318C4.16919 37.9925 6.06543 36.0963 8.40469 36.0963H68.7775C71.1168 36.0963 73.013 37.9925 73.013 40.3318V40.4508C73.013 42.7901 71.1168 44.6863 68.7775 44.6863Z" fill="#01AC66"/>
<path d="M36.6976 41.5825L17.9373 20.7667C16.7803 19.4831 16.8832 17.5041 18.1669 16.3471L18.232 16.2881C19.5157 15.1311 21.4947 15.234 22.6517 16.5177L41.412 37.3335C42.569 38.6172 42.4661 40.5961 41.1824 41.7531L41.1172 41.8121C39.8332 42.9691 37.8546 42.8666 36.6976 41.5825Z" fill="#4D3630"/>
<path d="M40.3218 39.4348C40.3218 40.1038 39.7795 40.6464 39.1102 40.6464C38.4409 40.6464 37.8987 40.1038 37.8987 39.4348C37.8987 38.7659 38.4409 38.2233 39.1102 38.2233C39.7795 38.2233 40.3218 38.7655 40.3218 39.4348Z" fill="#01AC66"/>
<path d="M66.6584 38.5242H60.6918C60.1536 38.5242 59.7413 38.7193 59.4521 39.0174C58.8728 39.4304 58.7432 40.2912 59.0486 40.9638C59.2598 41.6111 59.8065 42.1339 60.6918 42.1339H66.6584C68.9809 42.1339 68.9849 38.5242 66.6584 38.5242Z" fill="#01AC66"/>
<path d="M57.0711 40.3289C57.0418 39.6743 56.6834 39.2001 56.151 38.9735C55.924 38.8387 55.6626 38.7549 55.3726 38.7549H54.1757C53.3523 38.7549 52.5636 39.4787 52.6017 40.3289C52.6397 41.1817 53.2933 41.903 54.1757 41.903H55.3726C55.5388 41.903 55.7018 41.8667 55.8585 41.8125C56.5278 41.6975 57.1012 40.9949 57.0711 40.3289Z" fill="#01AC66"/>
<path d="M39.6205 1.65062C39.4243 0.880992 38.8501 0.00848249 37.9403 6.12711e-05C37.0055 -0.00835995 36.3652 0.852799 36.1502 1.65062C35.9177 2.51434 36.0737 3.34768 36.1956 4.21104C36.2905 4.884 36.5306 5.48777 36.7921 6.11203C37.0275 6.67479 37.1747 7.37741 37.5771 7.8468C37.6763 7.9625 37.9117 7.96287 38.0106 7.8468C38.3859 7.40561 38.5239 6.76779 38.7542 6.24421C39.0479 5.57747 39.3397 4.92794 39.4766 4.21067C39.6384 3.36855 39.8376 2.50336 39.6205 1.65062Z" fill="#00462A"/>
<path d="M55.319 6.24087C55.5181 5.47198 55.435 4.43104 54.642 3.98509C53.8269 3.52704 52.8508 3.973 52.2782 4.56871C51.6583 5.21349 51.3936 6.01899 51.0842 6.83439C50.8433 7.46964 50.7627 8.11441 50.6906 8.78774C50.6258 9.39444 50.4164 10.081 50.5427 10.6862C50.5738 10.8356 50.7799 10.9491 50.9227 10.8952C51.4642 10.6898 51.8923 10.1974 52.3466 9.84955C52.9251 9.40689 53.4938 8.9785 53.9599 8.41575C54.5069 7.75486 55.0982 7.09252 55.319 6.24087Z" fill="#00462A"/>
<path d="M67.7368 15.5229C68.1257 14.8302 68.3109 13.8024 67.6577 13.169C66.9866 12.5183 65.9288 12.7007 65.2233 13.1305C64.4595 13.5959 63.9978 14.3069 63.4907 15.0165C63.0956 15.5694 62.8533 16.1721 62.612 16.8047C62.3945 17.3748 62.017 17.9852 61.9844 18.6025C61.9764 18.7548 62.147 18.9174 62.2986 18.9013C62.8745 18.8405 63.4142 18.4736 63.9421 18.2532C64.6144 17.9727 65.2734 17.7036 65.8677 17.2785C66.5652 16.7795 67.3062 16.2903 67.7368 15.5229Z" fill="#00462A"/>
<path d="M75.6721 32.4994C76.3407 32.0702 76.9866 31.2497 76.7072 30.3838C76.4201 29.4941 75.4004 29.1587 74.5759 29.207C73.6832 29.2594 72.9414 29.6706 72.1608 30.059C71.5523 30.3618 71.0554 30.7803 70.5454 31.2256C70.0859 31.6269 69.466 31.9882 69.1475 32.5184C69.0688 32.6491 69.1431 32.8728 69.2844 32.9299C69.8216 33.1467 70.47 33.076 71.0397 33.1295C71.765 33.1972 72.4731 33.269 73.1974 33.1727C74.0479 33.0592 74.9318 32.975 75.6721 32.4994Z" fill="#00462A"/>
<path d="M21.4549 6.24087C21.2557 5.47198 21.3388 4.43104 22.1319 3.98509C22.9469 3.52704 23.9231 3.973 24.4957 4.56871C25.1156 5.21349 25.3803 6.01899 25.6897 6.83439C25.9306 7.46964 26.0112 8.11441 26.0833 8.78774C26.1481 9.39444 26.3575 10.081 26.2312 10.6862C26.2001 10.8356 25.9939 10.9491 25.8512 10.8952C25.3096 10.6898 24.8816 10.1974 24.4272 9.84955C23.8487 9.40689 23.2801 8.9785 22.8144 8.41575C22.267 7.75486 21.6757 7.09252 21.4549 6.24087Z" fill="#00462A"/>
<path d="M9.03728 15.5229C8.64844 14.8302 8.46318 13.8024 9.11637 13.169C9.7875 12.5183 10.8453 12.7007 11.5508 13.1305C12.3146 13.5959 12.7763 14.3069 13.2834 15.0165C13.6785 15.5694 13.9209 16.1721 14.1621 16.8047C14.3796 17.3748 14.7571 17.9852 14.7897 18.6025C14.7978 18.7548 14.6271 18.9174 14.4756 18.9013C13.8996 18.8405 13.3599 18.4736 12.832 18.2532C12.1597 17.9727 11.5007 17.7036 10.9068 17.2785C10.2089 16.7795 9.46786 16.2903 9.03728 15.5229Z" fill="#00462A"/>
<path d="M1.10185 32.4994C0.433283 32.0702 -0.212592 31.2497 0.0667728 30.3838C0.353826 29.4941 1.37353 29.1587 2.19807 29.207C3.09072 29.2594 3.83252 29.6706 4.61313 30.059C5.22166 30.3618 5.71851 30.7803 6.22854 31.2256C6.68805 31.6269 7.30792 31.9882 7.62646 32.5184C7.70518 32.6491 7.63086 32.8728 7.48953 32.9299C6.9524 33.1467 6.30397 33.076 5.73425 33.1295C5.00893 33.1972 4.30081 33.269 3.57659 33.1727C2.72605 33.0592 1.84219 32.975 1.10185 32.4994Z" fill="#00462A"/>
<path d="M98.1633 64.936C96.9047 64.936 95.7313 64.7547 94.6433 64.392C93.5767 64.0293 92.638 63.528 91.8273 62.888C91.0167 62.2693 90.3767 61.512 89.9073 60.616C89.4593 59.7413 89.2353 58.7707 89.2353 57.704C89.2353 57.2773 89.2673 56.7227 89.3313 56.04C89.4167 55.336 89.5127 54.5467 89.6193 53.672C89.7473 52.7973 89.886 51.9013 90.0353 50.984L92.7233 51.368C92.51 52.776 92.3287 54.056 92.1793 55.208C92.0513 56.36 91.9873 57.1813 91.9873 57.672C91.9873 58.6107 92.2433 59.4427 92.7553 60.168C93.2887 60.8933 94.014 61.4587 94.9313 61.864C95.87 62.2693 96.9473 62.472 98.1633 62.472H107.219C108.819 62.472 110.025 62.0347 110.835 61.16C111.667 60.3067 112.083 59.0053 112.083 57.256C112.083 56.4027 111.945 55.7307 111.667 55.24C111.411 54.7493 110.953 54.344 110.291 54.024C109.63 53.6827 108.691 53.3307 107.475 52.968C106.345 52.648 105.331 52.3387 104.435 52.04C103.561 51.72 102.814 51.3573 102.195 50.952C101.577 50.5253 101.107 50.0027 100.787 49.384C100.467 48.744 100.307 47.912 100.307 46.888C100.307 45.5653 100.585 44.4667 101.139 43.592C101.694 42.7173 102.483 42.0667 103.507 41.64C104.553 41.2133 105.811 41 107.283 41L107.187 43.464C106.227 43.464 105.438 43.5813 104.819 43.816C104.201 44.0507 103.742 44.4133 103.443 44.904C103.145 45.3733 102.995 45.992 102.995 46.76C102.995 47.3787 103.102 47.8907 103.315 48.296C103.529 48.68 103.859 49 104.307 49.256C104.755 49.512 105.299 49.7467 105.939 49.96C106.601 50.152 107.358 50.3653 108.211 50.6C109.235 50.8987 110.153 51.2187 110.963 51.56C111.774 51.9013 112.457 52.3173 113.011 52.808C113.587 53.2987 114.025 53.9173 114.323 54.664C114.622 55.3893 114.771 56.296 114.771 57.384C114.771 58.856 114.473 60.1573 113.875 61.288C113.299 62.44 112.446 63.336 111.315 63.976C110.206 64.616 108.841 64.936 107.219 64.936H98.1633ZM107.187 43.464L107.283 41H117.363V43.464H107.187ZM117.363 57V41H120.115V57H117.363ZM120.115 57V54.536H123.571C124.275 54.536 124.819 54.4293 125.203 54.216C125.587 54.0027 125.854 53.576 126.003 52.936C126.153 52.296 126.227 51.3573 126.227 50.12V42.6H128.979V50.12C128.979 51.8053 128.787 53.16 128.403 54.184C128.041 55.1867 127.465 55.912 126.675 56.36C125.886 56.7867 124.851 57 123.571 57H120.115ZM130.515 57C129.769 57 129.033 56.8613 128.307 56.584C127.603 56.2853 126.91 55.8373 126.227 55.24L128.019 53.384C128.489 53.7893 128.915 54.088 129.299 54.28C129.705 54.4507 130.11 54.536 130.515 54.536H136.243L135.123 55.688V48.104C135.123 47.7413 135.081 47.208 134.995 46.504C134.91 45.8 134.793 45.0107 134.643 44.136C134.515 43.24 134.366 42.344 134.195 41.448L136.851 41C137.001 41.7467 137.15 42.5787 137.299 43.496C137.449 44.4133 137.566 45.288 137.651 46.12C137.758 46.952 137.811 47.6133 137.811 48.104V57H130.515ZM126.323 33.8V31.016H128.819V33.8H126.323ZM123.923 38.12V35.144H126.643V38.12H123.923ZM128.499 38.12V35.144H131.219V38.12H128.499ZM98.3873 69.704V66.728H101.107V69.704H98.3873ZM102.963 69.704V66.728H105.683V69.704H102.963ZM145.997 57V54.536H149.869V57H145.997ZM143.277 57V34.088H145.997V57H143.277ZM149.869 57V54.536C149.997 54.536 150.103 54.568 150.189 54.632C150.274 54.6747 150.338 54.7493 150.381 54.856C150.423 54.9627 150.455 55.0907 150.477 55.24C150.498 55.3893 150.509 55.56 150.509 55.752C150.509 55.944 150.498 56.1253 150.477 56.296C150.455 56.4453 150.423 56.5733 150.381 56.68C150.338 56.7867 150.274 56.872 150.189 56.936C150.103 56.9787 149.997 57 149.869 57ZM168.102 57V54.536H171.558V57H168.102ZM149.862 57C149.734 57 149.627 56.9787 149.542 56.936C149.456 56.872 149.392 56.7867 149.35 56.68C149.307 56.5733 149.275 56.4453 149.254 56.296C149.232 56.1253 149.222 55.944 149.222 55.752C149.222 55.496 149.243 55.2827 149.286 55.112C149.307 54.9413 149.371 54.8027 149.478 54.696C149.563 54.5893 149.691 54.536 149.862 54.536V57ZM149.862 57V54.536H167.238L165.382 55.88V49.16C165.382 47.7093 165.211 46.568 164.87 45.736C164.55 44.904 163.984 44.3173 163.174 43.976C162.384 43.6347 161.307 43.464 159.942 43.464C159.046 43.464 158.16 43.528 157.286 43.656C156.411 43.7627 155.728 43.9227 155.238 44.136L156.902 42.472C156.774 42.984 156.646 43.6347 156.518 44.424C156.39 45.192 156.283 46.024 156.198 46.92C156.112 47.7947 156.07 48.6693 156.07 49.544C156.07 50.44 156.112 51.3253 156.198 52.2C156.283 53.0747 156.379 53.832 156.486 54.472C156.592 55.0907 156.678 55.528 156.742 55.784L154.15 56.52C154.064 56.2427 153.958 55.7627 153.83 55.08C153.702 54.3973 153.584 53.576 153.478 52.616C153.392 51.656 153.35 50.632 153.35 49.544C153.35 48.4987 153.403 47.4853 153.51 46.504C153.616 45.5013 153.734 44.5947 153.862 43.784C154.011 42.9733 154.15 42.3227 154.278 41.832C154.747 41.64 155.494 41.448 156.518 41.256C157.563 41.064 158.704 40.968 159.942 40.968C161.755 40.968 163.27 41.2347 164.486 41.768C165.702 42.3013 166.608 43.1653 167.206 44.36C167.803 45.5547 168.102 47.1547 168.102 49.16V57H149.862ZM171.558 57V54.536C171.686 54.536 171.792 54.568 171.878 54.632C171.963 54.6747 172.027 54.7493 172.07 54.856C172.112 54.9627 172.144 55.0907 172.166 55.24C172.187 55.3893 172.198 55.56 172.198 55.752C172.198 55.944 172.187 56.1253 172.166 56.296C172.144 56.4453 172.112 56.5733 172.07 56.68C172.027 56.7867 171.963 56.872 171.878 56.936C171.792 56.9787 171.686 57 171.558 57ZM175.389 57V34.088H178.141V57H175.389ZM171.549 57V54.536H175.389V57H171.549ZM171.549 57C171.421 57 171.314 56.9787 171.229 56.936C171.144 56.872 171.08 56.7867 171.037 56.68C170.994 56.5733 170.962 56.4453 170.941 56.296C170.92 56.1253 170.909 55.944 170.909 55.752C170.909 55.496 170.93 55.2827 170.973 55.112C170.994 54.9413 171.058 54.8027 171.165 54.696C171.25 54.5893 171.378 54.536 171.549 54.536V57ZM186.309 57V54.536H190.181V57H186.309ZM183.589 57V34.088H186.309V57H183.589ZM190.181 57V54.536C190.309 54.536 190.416 54.568 190.501 54.632C190.586 54.6747 190.65 54.7493 190.693 54.856C190.736 54.9627 190.768 55.0907 190.789 55.24C190.81 55.3893 190.821 55.56 190.821 55.752C190.821 55.944 190.81 56.1253 190.789 56.296C190.768 56.4453 190.736 56.5733 190.693 56.68C190.65 56.7867 190.586 56.872 190.501 56.936C190.416 56.9787 190.309 57 190.181 57ZM196.99 56.84C195.838 55.8587 194.963 54.7387 194.366 53.48C193.769 52.2213 193.47 50.888 193.47 49.48C193.47 48.264 193.683 47.144 194.11 46.12C194.558 45.0747 195.155 44.168 195.902 43.4C196.67 42.632 197.566 42.0453 198.59 41.64C199.614 41.2133 200.713 41 201.886 41C202.526 41 203.198 41.064 203.902 41.192C204.606 41.32 205.289 41.5013 205.95 41.736L205.054 44.04C204.521 43.8693 203.987 43.7307 203.454 43.624C202.921 43.5173 202.419 43.464 201.95 43.464C200.841 43.464 199.849 43.72 198.974 44.232C198.099 44.744 197.417 45.4587 196.926 46.376C196.457 47.272 196.222 48.3067 196.222 49.48C196.222 50.5467 196.435 51.5493 196.862 52.488C197.31 53.4267 197.961 54.2693 198.814 55.016L196.99 56.84ZM190.174 57V54.536H206.334V57H190.174ZM190.174 57C190.046 57 189.939 56.9787 189.854 56.936C189.769 56.872 189.705 56.7867 189.662 56.68C189.619 56.5733 189.587 56.4453 189.566 56.296C189.545 56.1253 189.534 55.944 189.534 55.752C189.534 55.496 189.555 55.2827 189.598 55.112C189.619 54.9413 189.683 54.8027 189.79 54.696C189.875 54.5893 190.003 54.536 190.174 54.536V57Z" fill="white"/>
</svg>
