<svg width="6" height="8" viewBox="0 0 6 8" fill="none" xmlns="http://www.w3.org/2000/svg">
<path fill-rule="evenodd" clip-rule="evenodd" d="M1.9209 3C1.9209 2.44772 2.35088 2 2.88129 2C3.13601 2 3.38029 2.10536 3.5604 2.29289C3.74051 2.48043 3.84169 2.73478 3.84169 3C3.84169 3.55228 3.41171 4 2.88129 4C2.35088 4 1.9209 3.55228 1.9209 3ZM2.4011 3C2.4011 3.27614 2.61609 3.5 2.88129 3.5C3.1465 3.5 3.36149 3.27614 3.36149 3C3.36149 2.72386 3.1465 2.5 2.88129 2.5C2.61609 2.5 2.4011 2.72386 2.4011 3Z" fill="#474749"/>
<path fill-rule="evenodd" clip-rule="evenodd" d="M0 3.11836C0 1.39614 1.28995 0 2.88119 0C4.47242 0 5.76238 1.39614 5.76238 3.11836C5.76238 5.78597 3.14311 7.80156 3.03049 7.88661L2.88119 8L2.73189 7.88661C2.61926 7.80156 0 5.78597 0 3.11836ZM0.523852 3.11836C0.523852 5.14529 2.339 6.84054 2.88119 7.29979C3.42338 6.84054 5.23852 5.14529 5.23852 3.11836C5.23852 1.70927 4.18311 0.566974 2.88119 0.566974C1.57927 0.566974 0.523852 1.70927 0.523852 3.11836Z" fill="#474749"/>
</svg>
