<svg width="300" height="300" viewBox="0 0 300 300" fill="none" xmlns="http://www.w3.org/2000/svg">
<path d="M300 229.44H0V229.59H300V229.44Z" fill="#EBEBEB"/>
<path d="M44.2021 235.152H31.4761V235.302H44.2021V235.152Z" fill="#EBEBEB"/>
<path d="M153.666 233.526H102.684V233.676H153.666V233.526Z" fill="#EBEBEB"/>
<path d="M63.4681 240.726H40.6021V240.876H63.4681V240.726Z" fill="#EBEBEB"/>
<path d="M269.94 239.718H244.026V239.868H269.94V239.718Z" fill="#EBEBEB"/>
<path d="M242.064 239.718H234.882V239.868H242.064V239.718Z" fill="#EBEBEB"/>
<path d="M222.534 237.186H208.734V237.336H222.534V237.186Z" fill="#EBEBEB"/>
<path d="M201.798 237.186H172.734V237.336H201.798V237.186Z" fill="#EBEBEB"/>
<path d="M142.2 202.68H26.3458C25.4382 202.678 24.5683 202.317 23.9271 201.674C23.2859 201.032 22.9258 200.162 22.9258 199.254V36.396C22.9337 35.4936 23.2973 34.6308 23.9376 33.9949C24.578 33.3591 25.4434 33.0015 26.3458 33H142.2C143.108 33 143.98 33.361 144.622 34.0035C145.265 34.646 145.626 35.5174 145.626 36.426V199.254C145.626 200.163 145.265 201.034 144.622 201.677C143.98 202.319 143.108 202.68 142.2 202.68ZM26.3458 33.12C25.478 33.1216 24.6463 33.4674 24.0332 34.0816C23.4201 34.6958 23.0758 35.5282 23.0758 36.396V199.254C23.0758 200.122 23.4201 200.954 24.0332 201.568C24.6463 202.183 25.478 202.528 26.3458 202.53H142.2C143.068 202.528 143.9 202.183 144.515 201.569C145.129 200.955 145.474 200.122 145.476 199.254V36.396C145.474 35.5276 145.129 34.6953 144.515 34.0813C143.9 33.4672 143.068 33.1216 142.2 33.12H26.3458Z" fill="#EBEBEB"/>
<path d="M271.986 202.68H156.126C155.218 202.678 154.348 202.317 153.705 201.675C153.063 201.033 152.702 200.162 152.7 199.254V36.396C152.71 35.4931 153.075 34.6302 153.716 33.9946C154.357 33.3589 155.223 33.0015 156.126 33H271.986C272.888 33.0031 273.751 33.3613 274.39 33.997C275.03 34.6327 275.392 35.4947 275.4 36.396V199.254C275.4 200.161 275.041 201.03 274.401 201.672C273.761 202.314 272.893 202.677 271.986 202.68ZM156.126 33.12C155.258 33.1216 154.425 33.4672 153.811 34.0813C153.197 34.6953 152.852 35.5276 152.85 36.396V199.254C152.852 200.122 153.197 200.955 153.811 201.569C154.425 202.183 155.258 202.528 156.126 202.53H271.986C272.855 202.528 273.687 202.183 274.301 201.569C274.915 200.955 275.261 200.122 275.262 199.254V36.396C275.261 35.5276 274.915 34.6953 274.301 34.0813C273.687 33.4672 272.855 33.1216 271.986 33.12H156.126Z" fill="#EBEBEB"/>
<path d="M32.1717 229.44H52.4277L52.4277 144.852H32.1717L32.1717 229.44Z" fill="#E6E6E6"/>
<path d="M35.538 229.44H32.166V221.826H39.072L35.538 229.44Z" fill="#F0F0F0"/>
<path d="M166.314 229.44H186.57V144.852H166.314V229.44Z" fill="#E6E6E6"/>
<path d="M32.1719 226.518L169.254 226.518V144.852H32.1719V226.518Z" fill="#F0F0F0"/>
<path d="M34.7882 170.868L166.638 170.868V148.47L34.7882 148.47V170.868Z" fill="#E6E6E6"/>
<path d="M34.7882 151.524L166.638 151.524V148.476L34.7882 148.476V151.524Z" fill="#E0E0E0"/>
<path d="M165.882 229.44H169.254V221.826H162.342L165.882 229.44Z" fill="#F0F0F0"/>
<path d="M34.7882 196.884L166.638 196.884V174.486L34.7882 174.486V196.884Z" fill="#E6E6E6"/>
<path d="M34.7882 177.54L166.638 177.54V174.492L34.7882 174.492V177.54Z" fill="#E0E0E0"/>
<path d="M34.7882 222.894L166.638 222.894V200.496L34.7882 200.496V222.894Z" fill="#E6E6E6"/>
<path d="M34.7882 203.55L166.638 203.55V200.502L34.7882 200.502V203.55Z" fill="#E0E0E0"/>
<path d="M214.812 229.44H261.78L265.95 81.912H218.982L214.812 229.44Z" fill="#E6E6E6"/>
<path d="M213.378 229.44H260.346L264.516 81.912H217.548L213.378 229.44Z" fill="#F0F0F0"/>
<path d="M257.532 225.246L261.462 86.106H220.362L216.432 225.246H257.532Z" fill="#FAFAFA"/>
<path d="M48.6961 121.89L184.164 121.89V46.338L48.6961 46.338V121.89Z" fill="#F0F0F0"/>
<path d="M43.8241 121.89L181.89 121.89V46.338L43.8241 46.338V121.89Z" fill="#F5F5F5"/>
<path d="M175.05 115.602V52.614L50.6458 52.614V115.602H175.05Z" fill="white"/>
<path d="M50.334 141.468C52.9121 141.468 55.002 139.378 55.002 136.8C55.002 134.222 52.9121 132.132 50.334 132.132C47.7559 132.132 45.666 134.222 45.666 136.8C45.666 139.378 47.7559 141.468 50.334 141.468Z" fill="#F0F0F0"/>
<path d="M62.4077 140.017C62.9999 137.508 61.4459 134.994 58.9368 134.402C56.4276 133.81 53.9135 135.364 53.3213 137.873C52.7291 140.382 54.2831 142.896 56.7922 143.488C59.3013 144.081 61.8154 142.527 62.4077 140.017Z" fill="#E6E6E6"/>
<path d="M68.9389 136.785C69.5311 134.276 67.9771 131.762 65.468 131.17C62.9589 130.578 60.4448 132.132 59.8526 134.641C59.2604 137.15 60.8143 139.664 63.3234 140.256C65.8326 140.848 68.3467 139.294 68.9389 136.785Z" fill="#F0F0F0"/>
<path d="M72.3238 138.54C72.3238 138.54 71.9158 144.852 56.1238 144.852C40.3318 144.852 39.9238 138.54 39.9238 138.54H72.3238Z" fill="#E6E6E6"/>
<path d="M150 256.536C214.249 256.536 266.334 253.495 266.334 249.744C266.334 245.993 214.249 242.952 150 242.952C85.7505 242.952 33.666 245.993 33.666 249.744C33.666 253.495 85.7505 256.536 150 256.536Z" fill="#263238" fill-opacity="0.25"/>
<path d="M226.356 249.744H163.764C162.729 249.749 161.704 249.544 160.751 249.141C159.797 248.737 158.936 248.145 158.219 247.398C157.502 246.652 156.944 245.768 156.579 244.799C156.214 243.831 156.05 242.798 156.096 241.764L163.08 61.512C163.187 59.3774 164.103 57.3637 165.643 55.881C167.182 54.3984 169.229 53.5584 171.366 53.532H233.958C234.993 53.5278 236.018 53.7337 236.97 54.1372C237.923 54.5408 238.784 55.1336 239.501 55.8797C240.218 56.6258 240.776 57.5097 241.141 58.4779C241.507 59.446 241.672 60.4783 241.626 61.512L234.642 241.764C234.535 243.899 233.619 245.912 232.079 247.395C230.54 248.878 228.493 249.718 226.356 249.744Z" fill="#263238"/>
<path d="M156.744 72.1621H156.144L156.564 61.4521C156.69 58.7752 157.835 56.2479 159.765 54.3891C161.696 52.5302 164.264 51.4807 166.944 51.4561V52.0561C164.419 52.0808 162 53.0704 160.181 54.8219C158.363 56.5734 157.283 58.9541 157.164 61.4761L156.744 72.1621Z" fill="#5FAA46"/>
<path d="M176.298 51.432H171.198V52.032H176.298V51.432Z" fill="#5FAA46"/>
<path d="M221.934 249.744H159.342C158.307 249.749 157.282 249.544 156.329 249.141C155.375 248.737 154.514 248.145 153.797 247.398C153.08 246.652 152.522 245.768 152.157 244.799C151.792 243.831 151.628 242.798 151.674 241.764L158.658 61.512C158.765 59.3774 159.681 57.3637 161.221 55.881C162.76 54.3984 164.807 53.5584 166.944 53.532H229.536C230.571 53.5278 231.596 53.7337 232.549 54.1372C233.501 54.5408 234.362 55.1336 235.079 55.8797C235.796 56.6258 236.354 57.5097 236.72 58.4779C237.085 59.446 237.25 60.4783 237.204 61.512L230.22 241.764C230.113 243.899 229.197 245.912 227.658 247.395C226.118 248.878 224.071 249.718 221.934 249.744Z" fill="#5FAA46"/>
<path opacity="0.8" d="M223.926 229.008H158.958C158.379 229.012 157.806 228.898 157.272 228.673C156.739 228.448 156.257 228.117 155.856 227.7C155.454 227.283 155.142 226.789 154.938 226.247C154.734 225.706 154.642 225.128 154.668 224.55L160.728 68.166C160.786 66.9708 161.299 65.843 162.161 65.0132C163.023 64.1834 164.169 63.7143 165.366 63.702H230.328C230.907 63.6989 231.481 63.8137 232.014 64.0392C232.547 64.2647 233.029 64.5963 233.43 65.0138C233.832 65.4313 234.144 65.926 234.348 66.4679C234.552 67.0098 234.644 67.5875 234.618 68.166L228.558 224.55C228.5 225.744 227.988 226.87 227.127 227.699C226.266 228.527 225.121 228.996 223.926 229.008Z" fill="white"/>
<path opacity="0.4" d="M196.344 229.008H180.144L207.468 63.702H223.668L196.344 229.008Z" fill="white"/>
<path opacity="0.4" d="M177.294 229.008H169.194L196.518 63.702H204.618L177.294 229.008Z" fill="white"/>
<path d="M206.766 180.672H174.822C173.346 180.672 172.176 179.058 172.11 176.934L171.204 147.276C171.132 144.834 172.536 142.716 174.234 142.716H210.234C211.932 142.716 213.174 144.834 212.916 147.276L209.76 176.934C209.532 179.058 208.236 180.672 206.766 180.672Z" fill="#5FAA46"/>
<path d="M206.766 181.8H174.822C172.716 181.8 171.072 179.718 170.988 176.97L170.082 147.312C169.994 145.637 170.572 143.996 171.69 142.746C172.015 142.393 172.407 142.108 172.844 141.91C173.282 141.712 173.754 141.605 174.234 141.594H210.234C210.712 141.605 211.182 141.718 211.614 141.925C212.045 142.132 212.428 142.428 212.736 142.794C213.256 143.436 213.64 144.177 213.863 144.973C214.086 145.768 214.143 146.601 214.032 147.42L210.876 177.078C210.6 179.754 208.8 181.8 206.766 181.8ZM174.234 143.838C174.055 143.852 173.881 143.901 173.722 143.982C173.562 144.064 173.42 144.176 173.304 144.312C172.611 145.125 172.261 146.174 172.326 147.24L173.232 176.898C173.274 178.362 173.988 179.55 174.822 179.55H206.766C207.528 179.55 208.47 178.452 208.644 176.814L211.8 147.156C211.875 146.651 211.849 146.137 211.724 145.642C211.598 145.148 211.375 144.683 211.068 144.276C210.97 144.146 210.844 144.04 210.7 143.964C210.556 143.888 210.397 143.845 210.234 143.838H174.234Z" fill="#5FAA46"/>
<path d="M209.76 178.056H209.64C209.494 178.04 209.352 177.996 209.222 177.925C209.093 177.855 208.979 177.759 208.886 177.644C208.794 177.53 208.725 177.398 208.683 177.256C208.642 177.115 208.628 176.967 208.644 176.82L212.112 144.222C212.652 139.128 215.862 135.288 219.576 135.288H222C222.298 135.288 222.583 135.406 222.794 135.617C223.004 135.827 223.122 136.112 223.122 136.41C223.122 136.708 223.004 136.993 222.794 137.203C222.583 137.414 222.298 137.532 222 137.532H219.6C217.08 137.532 214.8 140.574 214.368 144.462L210.9 177.06C210.87 177.339 210.736 177.596 210.525 177.781C210.314 177.965 210.041 178.064 209.76 178.056Z" fill="#5FAA46"/>
<path d="M181.392 191.706C180.768 191.695 180.152 191.557 179.584 191.299C179.015 191.041 178.505 190.669 178.086 190.206C176.622 188.682 175.806 186.192 175.902 183.546C176.076 179.064 178.794 175.422 181.968 175.422C182.593 175.431 183.209 175.569 183.778 175.827C184.346 176.085 184.856 176.458 185.274 176.922C186.738 178.446 187.554 180.936 187.458 183.582C187.284 188.064 184.566 191.706 181.392 191.706ZM181.992 176.4C179.34 176.4 177.054 179.622 176.904 183.6C176.814 186 177.504 188.208 178.818 189.546C179.146 189.913 179.546 190.209 179.993 190.415C180.44 190.622 180.924 190.734 181.416 190.746C184.068 190.746 186.354 187.524 186.504 183.546C186.594 181.146 185.904 178.938 184.59 177.6C184.259 177.23 183.856 176.933 183.405 176.726C182.953 176.519 182.464 176.409 181.968 176.4H181.992Z" fill="#5FAA46"/>
<path d="M198.846 191.706C198.223 191.695 197.608 191.557 197.04 191.298C196.473 191.04 195.964 190.669 195.546 190.206C194.076 188.682 193.26 186.192 193.362 183.546C193.53 179.064 196.254 175.422 199.428 175.422C200.052 175.431 200.667 175.569 201.235 175.828C201.802 176.086 202.311 176.458 202.728 176.922C204.198 178.446 205.014 180.936 204.912 183.582C204.744 188.064 202.02 191.706 198.846 191.706ZM199.446 176.4C196.788 176.4 194.508 179.622 194.358 183.6C194.268 186 194.958 188.208 196.266 189.546C196.594 189.913 196.994 190.209 197.441 190.415C197.888 190.622 198.372 190.734 198.864 190.746C201.522 190.746 203.802 187.524 203.952 183.546C204.042 181.146 203.352 178.938 202.044 177.6C201.714 177.231 201.311 176.934 200.861 176.727C200.411 176.521 199.923 176.409 199.428 176.4H199.446Z" fill="#5FAA46"/>
<path d="M206.141 113.552C206.898 103.102 201.673 94.2072 194.471 93.6859C187.269 93.1646 180.818 101.214 180.062 111.665C179.305 122.115 184.53 131.01 191.732 131.531C198.934 132.052 205.385 124.003 206.141 113.552Z" fill="#5FAA46"/>
<path d="M192.39 132.69C190.857 132.664 189.346 132.323 187.951 131.688C186.555 131.054 185.305 130.139 184.278 129C180.678 125.244 178.65 119.1 178.878 112.578C179.298 101.532 185.994 92.55 193.806 92.55C195.339 92.5741 196.85 92.9136 198.246 93.5474C199.641 94.1813 200.892 95.0958 201.918 96.234C205.518 99.996 207.552 106.134 207.318 112.662C206.898 123.702 200.202 132.69 192.39 132.69ZM193.8 94.8C187.2 94.8 181.488 102.816 181.116 112.668C180.888 118.596 182.67 124.122 185.874 127.452C186.694 128.369 187.693 129.109 188.809 129.625C189.926 130.141 191.137 130.422 192.366 130.452C198.966 130.452 204.678 122.436 205.05 112.584C205.278 106.656 203.502 101.13 200.298 97.8C199.478 96.8822 198.478 96.1424 197.36 95.6263C196.243 95.1103 195.031 94.8291 193.8 94.8Z" fill="white"/>
<path d="M184.2 112.2C184.2 112.2 189.18 117 191.196 123.168C192.936 118.368 195.534 111.642 201.72 104.112C194.238 109.08 191.388 115.314 191.388 115.314C189.303 113.669 186.826 112.596 184.2 112.2Z" fill="white"/>
<path d="M190.866 244.158C190.337 244.154 189.814 244.04 189.331 243.824C188.848 243.609 188.414 243.295 188.058 242.904C187.489 242.267 187.053 241.523 186.776 240.715C186.499 239.907 186.386 239.052 186.444 238.2C186.576 234.924 188.754 232.26 191.304 232.26C191.833 232.266 192.356 232.381 192.839 232.598C193.322 232.815 193.755 233.129 194.112 233.52C194.678 234.154 195.111 234.894 195.387 235.698C195.664 236.502 195.777 237.352 195.72 238.2C195.6 241.494 193.416 244.158 190.866 244.158ZM191.304 232.896C189.09 232.896 187.194 235.296 187.104 238.224C187.049 238.99 187.147 239.759 187.393 240.487C187.639 241.214 188.029 241.885 188.538 242.46C188.836 242.79 189.198 243.054 189.603 243.237C190.008 243.42 190.446 243.517 190.89 243.522C193.104 243.522 195 241.122 195.09 238.2C195.146 237.433 195.047 236.663 194.801 235.934C194.555 235.206 194.166 234.534 193.656 233.958C193.358 233.628 192.996 233.364 192.591 233.181C192.186 232.998 191.748 232.901 191.304 232.896Z" fill="white"/>
<path d="M197.964 60.972C197.718 60.9657 197.477 60.9092 197.254 60.806C197.031 60.7029 196.832 60.5551 196.668 60.372C196.416 60.0902 196.223 59.7608 196.1 59.4032C195.978 59.0456 195.928 58.6671 195.954 58.29C196.008 56.838 196.992 55.656 198.144 55.656C198.389 55.6623 198.631 55.7188 198.854 55.822C199.077 55.9252 199.276 56.0729 199.44 56.256C199.693 56.5372 199.888 56.8663 200.011 57.224C200.135 57.5816 200.185 57.9604 200.16 58.338C200.106 59.79 199.116 60.972 197.964 60.972ZM198.144 56.316C197.328 56.316 196.626 57.222 196.584 58.338C196.545 58.926 196.739 59.5058 197.124 59.952C197.23 60.0705 197.359 60.1658 197.504 60.2319C197.648 60.298 197.805 60.3334 197.964 60.336C198.78 60.336 199.482 59.43 199.524 58.314C199.566 57.7238 199.372 57.1411 198.984 56.694C198.877 56.5769 198.748 56.4829 198.603 56.4179C198.459 56.3529 198.302 56.3182 198.144 56.316Z" fill="white"/>
<path d="M113.22 74.5501C106.35 73.6321 102.636 77.7961 104.592 85.3501C106.434 92.4661 102.87 91.5181 102.192 98.2561C101.514 104.994 107.07 105.27 108.876 110.772C110.682 116.274 120.66 122.526 124.56 119.706C128.46 116.886 136.2 117.534 136.908 108.222C137.616 98.9101 130.248 98.4061 132.774 93.3181C136.062 86.7181 128.778 88.3261 128.778 79.9141C128.796 73.1401 118.974 65.8021 113.22 74.5501Z" fill="#263238"/>
<path d="M104.574 110.4C104.424 113.274 104.16 116.052 103.74 118.878C103.373 121.8 102.732 124.68 101.826 127.482C101.545 128.3 101.188 129.089 100.758 129.84C100.464 130.35 100.103 130.818 99.6841 131.232L99.4741 131.424L99.3601 131.514L99.2941 131.568L99.0421 131.742L98.5441 132.09C97.2754 132.904 95.9407 133.611 94.5541 134.202C91.9266 135.355 89.1966 136.259 86.4001 136.902L85.4341 134.244C87.8041 132.93 90.2341 131.586 92.4541 130.194C93.5384 129.531 94.5804 128.802 95.5741 128.01L95.8981 127.728L96.0661 127.59V127.56C96.0661 127.56 96.1321 127.446 96.2161 127.272C96.4295 126.796 96.608 126.304 96.7501 125.802C97.0907 124.581 97.3592 123.341 97.5541 122.088C97.7821 120.792 97.9681 119.466 98.1241 118.128C98.4301 115.464 98.6941 112.728 98.8981 110.07L104.574 110.4Z" fill="#FFB573"/>
<path d="M87.1983 134.304L82.6143 132.888L83.4723 138.432C83.4723 138.432 86.4723 138.06 87.9183 136.386L87.1983 134.304Z" fill="#FFB573"/>
<path d="M78.8703 136.458L79.1223 137.184C79.2674 137.596 79.5412 137.95 79.9032 138.194C80.2652 138.438 80.6961 138.56 81.1323 138.54L83.4723 138.432L82.6143 132.888L80.0403 133.896C79.5524 134.09 79.1582 134.464 78.9401 134.942C78.7221 135.419 78.6971 135.963 78.8703 136.458Z" fill="#FFB573"/>
<path d="M109.992 105.042C109.992 106.776 109.152 110.19 108.438 112.758C107.91 114.606 107.466 116.01 107.466 116.01L106.416 115.746L97.7462 113.55C97.6082 109.098 97.7822 104.202 102.21 101.274C105 99.438 109.968 101.958 109.992 105.042Z" fill="#01854F"/>
<g opacity="0.5">
<path d="M109.992 105.042C109.992 106.776 109.152 110.19 108.438 112.758C107.91 114.606 107.466 116.01 107.466 116.01L106.416 115.746L97.7462 113.55C97.6082 109.098 97.7822 104.202 102.21 101.274C105 99.438 109.968 101.958 109.992 105.042Z" fill="black"/>
</g>
<path opacity="0.3" d="M109.98 105.342C109.416 104.742 108.132 104.64 105.336 105.528C101.328 106.794 100.206 111.186 100.152 114.162L106.416 115.746L106.956 115.884L107.466 116.01C107.466 116.01 107.688 115.308 108 114.24C108.126 113.802 108.282 113.298 108.432 112.758C109.116 110.334 109.908 107.142 109.98 105.342Z" fill="black"/>
<path d="M92.1963 244.362L86.9043 242.508L90.2283 231.048L95.5143 232.908L92.1963 244.362Z" fill="#FFB573"/>
<path d="M162.888 230.784L158.586 233.988L149.772 225.054L154.074 221.844L162.888 230.784Z" fill="#FFB573"/>
<path d="M156.822 232.686L161.472 228.84C161.55 228.771 161.65 228.733 161.754 228.733C161.858 228.733 161.958 228.771 162.036 228.84L165.606 232.08C165.694 232.164 165.762 232.266 165.808 232.379C165.853 232.492 165.873 232.613 165.868 232.734C165.863 232.856 165.832 232.975 165.778 233.083C165.723 233.192 165.646 233.287 165.552 233.364C163.908 234.678 163.044 235.23 161.004 236.916C159.744 237.954 157.116 240.438 155.376 241.872C153.636 243.306 152.124 241.668 152.724 240.912C155.388 237.54 156.006 235.32 156.324 233.496C156.39 233.176 156.566 232.889 156.822 232.686Z" fill="#263238"/>
<path d="M86.544 240.858L92.424 243.312C92.5282 243.359 92.6147 243.437 92.6708 243.537C92.727 243.636 92.7498 243.751 92.736 243.864L92.07 249.048C92.0551 249.171 92.0118 249.288 91.9434 249.391C91.8751 249.494 91.7836 249.579 91.6763 249.64C91.5691 249.702 91.449 249.737 91.3256 249.744C91.2023 249.75 91.0791 249.728 90.966 249.678C88.884 248.832 87.906 248.412 85.326 247.332L77.4 244.032C75.252 243.132 75.714 240.774 76.686 240.948C81.036 241.734 83.838 241.476 85.554 240.828C85.8753 240.709 86.2306 240.719 86.544 240.858Z" fill="#263238"/>
<path opacity="0.2" d="M90.2281 231.054L88.5181 236.958L93.6661 239.286L95.5201 232.908L90.2281 231.054Z" fill="black"/>
<path opacity="0.2" d="M154.08 221.844L149.772 225.054L154.314 229.662L158.622 226.452L154.08 221.844Z" fill="black"/>
<path d="M126.264 133.062L104.466 133.374C101.466 116.502 100.776 108.444 100.776 104.574C100.773 103.609 101.107 102.672 101.719 101.926C102.331 101.179 103.183 100.669 104.13 100.482C105.462 100.224 107.13 99.924 108.78 99.696C109.35 99.618 109.926 99.546 110.49 99.486C113.781 99.2006 117.087 99.1525 120.384 99.342C120.876 99.342 121.362 99.384 121.848 99.414C124.056 99.558 126.132 99.84 127.59 100.068C127.859 100.111 128.116 100.208 128.346 100.354C128.576 100.499 128.773 100.69 128.927 100.915C129.08 101.14 129.186 101.393 129.238 101.66C129.29 101.927 129.287 102.202 129.228 102.468C128.592 105.468 128.07 108.102 127.65 110.46C126.984 114.21 126.564 117.24 126.318 119.898C125.949 124.278 125.931 128.68 126.264 133.062Z" fill="#01854F"/>
<g opacity="0.5">
<path d="M126.264 133.062L104.466 133.374C101.466 116.502 100.776 108.444 100.776 104.574C100.773 103.609 101.107 102.672 101.719 101.926C102.331 101.179 103.183 100.669 104.13 100.482C105.462 100.224 107.13 99.924 108.78 99.696C109.35 99.618 109.926 99.546 110.49 99.486C113.781 99.2006 117.087 99.1525 120.384 99.342C120.876 99.342 121.362 99.384 121.848 99.414C124.056 99.558 126.132 99.84 127.59 100.068C127.859 100.111 128.116 100.208 128.346 100.354C128.576 100.499 128.773 100.69 128.927 100.915C129.08 101.14 129.186 101.393 129.238 101.66C129.29 101.927 129.287 102.202 129.228 102.468C128.592 105.468 128.07 108.102 127.65 110.46C126.984 114.21 126.564 117.24 126.318 119.898C125.949 124.278 125.931 128.68 126.264 133.062Z" fill="black"/>
</g>
<path opacity="0.3" d="M126.318 119.916C125.22 116.628 125.28 109.8 126.462 107.586L127.662 110.478C126.984 114.228 126.564 117.258 126.318 119.916Z" fill="black"/>
<path d="M118.758 92.604C118.656 95.28 118.974 98.058 120.39 99.366C120.39 99.366 118.05 102.42 112.542 105.42C109.626 102.612 110.49 99.51 110.49 99.51C114.03 98.61 114.09 96.252 113.052 92.34L115.86 91.2C116.118 90.9725 116.438 90.8264 116.779 90.7798C117.119 90.7333 117.466 90.7885 117.776 90.9385C118.086 91.0885 118.344 91.3266 118.519 91.6229C118.693 91.9192 118.777 92.2605 118.758 92.604Z" fill="#FFB573"/>
<path opacity="0.2" d="M115.866 91.2001C116.108 90.9891 116.403 90.8488 116.719 90.7945C117.036 90.7403 117.361 90.7743 117.659 90.8927C117.957 91.0111 118.217 91.2094 118.41 91.4658C118.603 91.7222 118.721 92.0267 118.752 92.3461C117.514 94.2562 115.704 95.7261 113.58 96.5461C113.669 95.1135 113.49 93.677 113.052 92.3101L115.866 91.2001Z" fill="black"/>
<path d="M123.828 84.7441C121.932 89.7241 121.23 91.8661 117.828 93.6721C112.746 96.3841 107.028 92.9641 107.424 87.5161C107.76 82.6141 110.808 75.3001 116.424 74.8321C117.659 74.7214 118.902 74.9288 120.035 75.4344C121.167 75.9401 122.151 76.7272 122.893 77.7208C123.636 78.7144 124.111 79.8814 124.275 81.1108C124.438 82.3402 124.284 83.591 123.828 84.7441Z" fill="#FFB573"/>
<path d="M114.294 74.8081C110.76 79.7941 120.894 78.5701 120.39 82.0861C120.096 84.2221 117.048 88.2001 122.4 88.9441C127.752 89.6881 129.078 80.9521 126.324 77.6701C123.57 74.3881 117.768 72.2581 114.294 74.8081Z" fill="#263238"/>
<path d="M115.416 74.6581C114.684 76.4581 110.79 78.9241 109.368 78.4681C109.8 76.3141 113.43 74.2681 115.416 74.6581Z" fill="#263238"/>
<path d="M123.504 89.8261C122.967 90.7057 122.104 91.3376 121.104 91.5841C119.772 91.8961 119.166 90.6961 119.58 89.4661C119.952 88.3681 121.098 86.8741 122.406 87.1081C122.692 87.1633 122.96 87.2892 123.185 87.4745C123.41 87.6597 123.585 87.8983 123.694 88.1685C123.803 88.4387 123.843 88.7319 123.81 89.0215C123.776 89.311 123.671 89.5876 123.504 89.8261Z" fill="#FFB573"/>
<path d="M104.466 133.374C104.466 133.374 100.776 165.102 97.374 184.854C94.71 200.328 87.978 232.548 87.978 232.548L96.714 235.644C96.714 235.644 106.722 202.044 108.474 187.716C115.53 167.04 120.6 133.2 120.6 133.2L104.466 133.374Z" fill="#01854F"/>
<path d="M86.5562 234.726L96.6722 238.29L98.0222 235.044L87.0542 230.85L86.5562 234.726Z" fill="#263238"/>
<path opacity="0.3" d="M115.512 142.8L112.248 149.058C111.048 153.774 111.336 165.258 112.848 172.512C115.566 161.574 117.738 150.066 119.088 142.344L115.512 142.8Z" fill="black"/>
<path d="M109.2 133.374C109.2 133.374 113.106 168.882 120.396 188.574C124.05 198.468 151.176 227.778 151.176 227.778L157.296 222.882C157.296 222.882 140.094 193.308 132.576 185.58C129.51 168.402 133.362 142.68 126.24 133.05L109.2 133.374Z" fill="#01854F"/>
<path d="M151.698 229.902L158.874 224.016L156.936 220.836L149.076 227.676L151.698 229.902Z" fill="#263238"/>
<path d="M126.6 131.784L127.608 133.716C127.686 133.866 127.512 134.028 127.26 134.028L104.394 134.358C104.196 134.358 104.034 134.262 104.016 134.142L103.794 132.192C103.794 132.06 103.95 131.94 104.16 131.94L126.24 131.622C126.309 131.616 126.378 131.627 126.441 131.656C126.504 131.684 126.559 131.728 126.6 131.784Z" fill="#263238"/>
<path d="M123.642 134.292H124.242C124.356 134.292 124.446 134.226 124.44 134.154L124.122 131.622C124.122 131.544 124.014 131.49 123.894 131.49H123.294C123.18 131.49 123.09 131.556 123.102 131.628L123.414 134.16C123.42 134.232 123.528 134.292 123.642 134.292Z" fill="#01854F"/>
<path d="M106.032 134.544H106.632C106.752 134.544 106.836 134.478 106.83 134.406L106.518 131.874C106.518 131.796 106.404 131.736 106.284 131.742H105.684C105.564 131.742 105.474 131.808 105.486 131.88L105.798 134.412C105.81 134.484 105.918 134.544 106.032 134.544Z" fill="#01854F"/>
<path d="M114.84 134.4H115.44C115.56 134.4 115.65 134.334 115.638 134.262L115.326 131.73C115.326 131.652 115.212 131.592 115.098 131.598H114.498C114.378 131.598 114.294 131.664 114.3 131.736L114.612 134.268C114.6 134.358 114.72 134.4 114.84 134.4Z" fill="#01854F"/>
<path d="M115.068 83.526C114.942 83.94 114.618 84.204 114.348 84.126C114.078 84.048 113.964 83.64 114.09 83.226C114.216 82.812 114.546 82.542 114.816 82.626C115.086 82.71 115.2 83.112 115.068 83.526Z" fill="#263238"/>
<path d="M110.4 82.0621C110.268 82.4761 109.944 82.7401 109.674 82.6621C109.404 82.5841 109.29 82.1761 109.422 81.7621C109.554 81.3481 109.872 81.0841 110.142 81.1621C110.412 81.2401 110.526 81.6481 110.4 82.0621Z" fill="#263238"/>
<path d="M110.256 81.2221L109.356 80.6221C109.356 80.6221 109.62 81.5581 110.256 81.2221Z" fill="#263238"/>
<path d="M111.552 83.1541C110.89 83.9827 110.117 84.7157 109.254 85.3321C109.418 85.5478 109.627 85.7255 109.866 85.8529C110.105 85.9803 110.369 86.0543 110.64 86.0701L111.552 83.1541Z" fill="#ED893E"/>
<path d="M112.02 88.362C111.999 88.3467 111.983 88.3249 111.976 88.3C111.968 88.2751 111.969 88.2485 111.978 88.224C111.989 88.1919 112.012 88.1652 112.042 88.1495C112.072 88.1339 112.107 88.1305 112.14 88.14C112.65 88.313 113.193 88.363 113.726 88.2858C114.259 88.2087 114.766 88.0066 115.206 87.696C115.219 87.6854 115.234 87.6774 115.25 87.6726C115.266 87.6677 115.283 87.6661 115.3 87.6677C115.316 87.6694 115.333 87.6744 115.347 87.6823C115.362 87.6902 115.375 87.701 115.386 87.714C115.397 87.727 115.405 87.742 115.409 87.7581C115.414 87.7742 115.416 87.791 115.414 87.8078C115.413 87.8245 115.408 87.8407 115.4 87.8555C115.392 87.8703 115.381 87.8834 115.368 87.894C114.896 88.234 114.35 88.4561 113.775 88.5417C113.2 88.6273 112.612 88.5739 112.062 88.386L112.02 88.362Z" fill="#263238"/>
<path d="M116.862 82.41C116.828 82.3809 116.801 82.3439 116.784 82.302C116.686 81.9987 116.518 81.723 116.292 81.4977C116.067 81.2724 115.791 81.1038 115.488 81.006C115.422 80.9903 115.365 80.9495 115.329 80.8922C115.294 80.835 115.282 80.766 115.296 80.7C115.312 80.6343 115.353 80.5774 115.41 80.5415C115.467 80.5056 115.536 80.4936 115.602 80.508C115.988 80.626 116.34 80.8346 116.63 81.1164C116.919 81.3982 117.136 81.7451 117.264 82.128C117.287 82.1917 117.285 82.262 117.257 82.3238C117.229 82.3856 117.177 82.4338 117.114 82.458C117.071 82.4715 117.026 82.4743 116.982 82.4659C116.938 82.4575 116.897 82.4383 116.862 82.41Z" fill="#263238"/>
<path d="M109.008 79.3801C109.008 79.3801 109.008 79.3501 109.008 79.3381C109.002 79.3054 109.003 79.2718 109.01 79.2393C109.017 79.2068 109.03 79.1759 109.049 79.1486C109.068 79.1213 109.092 79.098 109.12 79.08C109.148 79.0621 109.179 79.0499 109.212 79.0441C109.608 78.9635 110.017 78.9792 110.406 79.0899C110.794 79.2006 111.15 79.403 111.444 79.6801C111.468 79.7036 111.487 79.7316 111.5 79.7625C111.513 79.7934 111.52 79.8266 111.52 79.8601C111.52 79.8936 111.513 79.9268 111.5 79.9577C111.487 79.9886 111.468 80.0166 111.444 80.0401C111.396 80.087 111.331 80.1133 111.264 80.1133C111.197 80.1133 111.132 80.087 111.084 80.0401C110.845 79.8202 110.557 79.6611 110.244 79.5765C109.93 79.4919 109.601 79.4842 109.284 79.5541C109.225 79.5625 109.165 79.5497 109.114 79.5178C109.064 79.4859 109.026 79.4371 109.008 79.3801Z" fill="#263238"/>
<path d="M88.3083 103.08C87.4203 101.646 86.6523 98.844 88.1703 97.26C89.6883 95.676 90.8703 95.226 90.4923 92.46C90.1143 89.694 94.3383 89.772 94.6923 87.66C96.7983 89.46 99.0303 93.66 97.8363 95.586C96.6423 97.512 97.2843 98.958 97.0263 101.292C96.7683 103.626 91.6683 108.516 88.3083 103.08Z" fill="#01854F"/>
<path opacity="0.5" d="M88.3083 103.08C87.4203 101.646 86.6523 98.844 88.1703 97.26C89.6883 95.676 90.8703 95.226 90.4923 92.46C90.1143 89.694 94.3383 89.772 94.6923 87.66C96.7983 89.46 99.0303 93.66 97.8363 95.586C96.6423 97.512 97.2843 98.958 97.0263 101.292C96.7683 103.626 91.6683 108.516 88.3083 103.08Z" fill="white"/>
<path d="M94.8659 92.1061C93.8459 98.5141 91.9679 105.996 89.2739 111.558C89.9291 111.505 90.5438 111.22 91.0079 110.754C91.0079 110.754 95.2739 99.1681 94.8659 92.1061Z" fill="#01854F"/>
<path d="M86.2862 106.23C84.9362 105.222 83.1962 102.9 84.0182 100.866C84.8402 98.8321 85.7822 97.9801 84.4082 95.5441C83.0342 93.1081 87.0002 91.6201 86.5502 89.5441C89.1842 90.4681 92.8022 93.5461 92.3882 95.7541C91.9742 97.9621 93.1142 99.0961 93.7322 101.358C94.3502 103.62 91.4162 110.046 86.2862 106.23Z" fill="#01854F"/>
<path opacity="0.6" d="M86.2862 106.23C84.9362 105.222 83.1962 102.9 84.0182 100.866C84.8402 98.8321 85.7822 97.9801 84.4082 95.5441C83.0342 93.1081 87.0002 91.6201 86.5502 89.5441C89.1842 90.4681 92.8022 93.5461 92.3882 95.7541C91.9742 97.9621 93.1142 99.0961 93.7322 101.358C94.3502 103.62 91.4162 110.046 86.2862 106.23Z" fill="white"/>
<path d="M95.9281 108.162C97.3441 108.06 99.6421 107.202 99.9841 105.378C100.326 103.554 100.044 102.522 102.132 101.412C104.22 100.302 102.072 97.4461 103.332 96.1741C101.04 95.6341 97.0681 96.1741 96.3481 97.9381C95.6281 99.7021 94.3141 99.9781 92.8441 101.31C91.3741 102.642 90.5401 108.546 95.9281 108.162Z" fill="#01854F"/>
<path opacity="0.7" d="M95.9281 108.162C97.3441 108.06 99.6421 107.202 99.9841 105.378C100.326 103.554 100.044 102.522 102.132 101.412C104.22 100.302 102.072 97.4461 103.332 96.1741C101.04 95.6341 97.0681 96.1741 96.3481 97.9381C95.6281 99.7021 94.3141 99.9781 92.8441 101.31C91.3741 102.642 90.5401 108.546 95.9281 108.162Z" fill="white"/>
<path d="M88.0381 96.234C89.1121 101.844 89.6281 108.522 88.6381 113.73C89.2779 113.602 89.8482 113.244 90.2401 112.722C90.2401 112.722 90.8701 102.132 88.0381 96.234Z" fill="#01854F"/>
<path d="M99.2519 99.3C95.4959 103.416 91.4819 108.678 89.1959 113.466C88.8822 112.997 88.7441 112.431 88.8059 111.87C88.8059 111.87 94.2959 102.804 99.2519 99.3Z" fill="#01854F"/>
<path d="M82.3079 104.928C80.6099 103.998 77.2559 106.596 79.0199 109.614C80.7839 112.632 84.4199 114.03 86.0999 112.41C88.4159 111.996 89.4239 108.252 88.0319 105.048C86.6399 101.844 82.5659 103.008 82.3079 104.928Z" fill="#01854F"/>
<path d="M82.3081 104.928C82.3081 104.928 81.7081 102.978 82.6981 102.354C82.8322 102.523 82.9564 102.699 83.0701 102.882C83.0701 102.882 82.3981 103.068 82.3081 104.928Z" fill="#263238"/>
<path d="M101.502 99.84C101.298 103.962 97.0621 107.094 92.4601 108.102C92.177 108.393 91.9708 108.75 91.8601 109.14C91.8215 109.23 91.8147 109.33 91.8409 109.423C91.8671 109.517 91.9247 109.599 92.0041 109.656C92.353 109.945 92.7635 110.15 93.2041 110.256C95.6348 110.315 98.0048 109.492 99.8761 107.94C102.276 106.104 104.466 102.468 103.776 100.782C103.086 99.096 102.54 99.66 102.276 98.382C102.129 97.8633 102.067 97.3245 102.09 96.786C102.09 96.786 101.49 97.068 101.34 97.434C101.538 97.95 101.568 98.496 101.502 99.84Z" fill="#01854F"/>
<path opacity="0.2" d="M103.8 100.8C103.643 100.348 103.384 99.937 103.044 99.6001C103.092 100.956 102.744 102.6 101.244 105C99.678 107.508 95.478 109.74 91.854 109.518C91.883 109.576 91.9264 109.626 91.98 109.662C92.3289 109.951 92.7394 110.156 93.18 110.262C95.6108 110.322 97.9809 109.499 99.852 107.946C102.258 106.128 104.466 102.492 103.8 100.8Z" fill="black"/>
<path d="M101.514 98.2801C101.426 97.9709 101.322 97.6665 101.202 97.3681C101.448 97.0497 101.782 96.8099 102.162 96.6781V97.6681C102.162 97.6681 101.832 98.2381 101.514 98.2801Z" fill="#263238"/>
<path d="M92.0038 108.732C91.912 108.833 91.8258 108.939 91.7458 109.05C91.7049 109.169 91.7026 109.298 91.7392 109.419C91.7759 109.54 91.8496 109.646 91.9498 109.722C91.9871 109.761 92.0318 109.792 92.0812 109.814C92.1307 109.836 92.1839 109.847 92.2378 109.848C92.1206 109.664 92.0354 109.461 91.9858 109.248C91.9815 109.076 91.9875 108.904 92.0038 108.732Z" fill="#263238"/>
<path d="M104.802 101.7C103.74 105.684 98.9462 107.862 94.2302 107.886C93.8857 108.105 93.6027 108.409 93.4082 108.768C93.3469 108.845 93.3135 108.94 93.3135 109.038C93.3135 109.136 93.3469 109.231 93.4082 109.308C93.6922 109.678 94.0605 109.974 94.4822 110.172C94.9622 110.298 97.8002 111.084 101.49 109.308C104.196 108 107.118 104.91 106.8 103.122C106.482 101.334 105.822 101.766 105.834 100.47C105.794 99.9334 105.844 99.3937 105.984 98.874C105.656 98.9458 105.355 99.1079 105.114 99.342C105.228 99.852 105.144 100.398 104.802 101.7Z" fill="#01854F"/>
<path opacity="0.2" d="M106.83 103.122C106.772 102.643 106.606 102.183 106.344 101.778C106.104 103.116 105.42 104.67 103.47 106.68C101.418 108.804 96.8701 110.118 93.3481 109.14C93.3645 109.202 93.3953 109.26 93.4381 109.308C93.7242 109.676 94.0919 109.971 94.5121 110.172C94.9921 110.298 97.8301 111.078 101.52 109.302C104.226 108 107.148 104.91 106.83 103.122Z" fill="black"/>
<path d="M105.138 100.2C105.138 100.2 105.084 99.4981 105.024 99.2461C105.332 98.9887 105.706 98.8243 106.104 98.7721L105.888 99.7381C105.888 99.7381 105.456 100.2 105.138 100.2Z" fill="#263238"/>
<path d="M93.6539 108.408C93.6539 108.408 93.4439 108.564 93.3359 108.666C93.272 108.774 93.2434 108.899 93.2542 109.024C93.2649 109.149 93.3145 109.267 93.3959 109.362C93.5399 109.542 93.6539 109.548 93.6539 109.548C93.5765 109.345 93.5339 109.13 93.5279 108.912C93.5639 108.708 93.6539 108.408 93.6539 108.408Z" fill="#263238"/>
<path d="M107.587 106.167L78.3003 110.19L82.8026 142.972L112.09 138.95L107.587 106.167Z" fill="#01854F"/>
<path opacity="0.8" d="M107.587 106.167L78.3003 110.19L82.8026 142.972L112.09 138.95L107.587 106.167Z" fill="white"/>
<path opacity="0.2" d="M107.588 106.17L98.9448 107.357L103.447 140.139L112.09 138.952L107.588 106.17Z" fill="#01854F"/>
<path opacity="0.2" d="M112.098 138.948L107.34 136.392L103.272 106.764L107.592 106.17L112.098 138.948Z" fill="#01854F"/>
<path opacity="0.3" d="M107.34 136.392L103.452 140.136L112.098 138.948L107.34 136.392Z" fill="#01854F"/>
<path d="M116.82 134.352L112.356 132.6L112.794 138.192C112.794 138.192 115.794 138.048 117.384 136.482L116.82 134.352Z" fill="#FFB573"/>
<path d="M130.902 106.482C132.102 109.842 133.134 113.178 134.022 116.634C134.466 118.356 134.886 120.09 135.222 121.89C135.384 122.784 135.528 123.69 135.636 124.638C135.755 125.633 135.797 126.636 135.762 127.638C135.742 128.288 135.641 128.933 135.462 129.558C135.218 130.327 134.809 131.034 134.262 131.628C133.462 132.482 132.513 133.181 131.46 133.692C129.739 134.529 127.927 135.163 126.06 135.582C122.567 136.393 119.005 136.869 115.422 137.004L115.074 134.196C116.706 133.806 118.38 133.374 120.006 132.918C121.632 132.462 123.252 131.958 124.806 131.388C126.289 130.88 127.718 130.227 129.072 129.438C129.565 129.15 130.005 128.781 130.374 128.346C130.47 128.196 130.47 128.154 130.452 128.154C130.468 127.934 130.468 127.714 130.452 127.494C130.425 126.77 130.349 126.048 130.224 125.334C130.104 124.554 129.942 123.756 129.762 122.934C129.384 121.332 128.97 119.7 128.502 118.068C127.566 114.828 126.516 111.534 125.46 108.336L130.902 106.482Z" fill="#FFB573"/>
<path d="M108.216 135.36L108.564 136.656C108.675 137.068 108.916 137.433 109.251 137.697C109.586 137.96 109.998 138.109 110.424 138.12L112.824 138.186L112.386 132.594L109.938 132.876C109.652 132.905 109.376 132.995 109.128 133.141C108.88 133.287 108.667 133.485 108.504 133.721C108.34 133.957 108.23 134.226 108.18 134.509C108.13 134.792 108.142 135.082 108.216 135.36Z" fill="#FFB573"/>
<path d="M128.358 100.23C130.866 101.25 132.918 109.494 132.918 109.494L125.988 114.894C125.988 114.894 121.08 107.208 122.082 103.872C122.934 101.058 125.166 98.9401 128.358 100.23Z" fill="#01854F"/>
<g opacity="0.5">
<path d="M128.358 100.23C130.866 101.25 132.918 109.494 132.918 109.494L125.988 114.894C125.988 114.894 121.08 107.208 122.082 103.872C122.934 101.058 125.166 98.9401 128.358 100.23Z" fill="black"/>
</g>
<path d="M155.124 235.014H155.034C154.909 235.007 154.787 234.967 154.682 234.899C154.577 234.83 154.491 234.736 154.434 234.624C154.39 234.561 154.363 234.487 154.357 234.41C154.351 234.333 154.365 234.256 154.398 234.186C154.704 233.586 156.63 233.346 156.846 233.322C156.871 233.318 156.897 233.323 156.92 233.334C156.942 233.346 156.961 233.365 156.972 233.388C156.985 233.409 156.992 233.433 156.992 233.457C156.992 233.482 156.985 233.506 156.972 233.526C156.564 234.072 155.784 234.966 155.124 235.014ZM156.582 233.616C155.814 233.73 154.782 233.976 154.638 234.3C154.62 234.329 154.61 234.362 154.61 234.396C154.61 234.43 154.62 234.463 154.638 234.492C154.673 234.567 154.727 234.632 154.796 234.678C154.865 234.725 154.945 234.752 155.028 234.756C155.4 234.774 156 234.354 156.6 233.616H156.582Z" fill="#263238"/>
<path d="M156.756 233.592C156.102 233.634 154.806 233.364 154.53 232.86C154.483 232.77 154.468 232.667 154.488 232.568C154.508 232.469 154.561 232.379 154.638 232.314C154.705 232.243 154.786 232.188 154.876 232.151C154.966 232.115 155.063 232.099 155.16 232.104C155.94 232.104 156.93 233.304 156.96 233.37C156.972 233.388 156.978 233.409 156.978 233.43C156.978 233.451 156.972 233.472 156.96 233.49C156.954 233.512 156.942 233.532 156.925 233.547C156.908 233.562 156.887 233.571 156.864 233.574L156.756 233.592ZM155.1 232.356C154.995 232.365 154.897 232.412 154.824 232.488C154.71 232.608 154.728 232.686 154.758 232.74C154.932 233.07 155.958 233.34 156.612 233.34C156.258 232.962 155.616 232.368 155.154 232.35L155.1 232.356Z" fill="#263238"/>
<path d="M83.5321 240.738C83.1218 240.601 82.7622 240.344 82.5001 240C82.4385 239.897 82.4011 239.781 82.3907 239.662C82.3803 239.542 82.3972 239.422 82.4401 239.31C82.4599 239.246 82.4965 239.188 82.5461 239.143C82.5956 239.097 82.6564 239.066 82.7221 239.052C83.4061 238.92 85.0261 240.66 85.3441 241.014C85.3588 241.035 85.3667 241.06 85.3667 241.086C85.3667 241.112 85.3588 241.137 85.3441 241.158C85.3308 241.182 85.3104 241.201 85.2856 241.213C85.2609 241.225 85.2331 241.229 85.2061 241.224C84.6335 241.117 84.0728 240.955 83.5321 240.738ZM83.0221 239.334C82.9441 239.295 82.8569 239.279 82.7701 239.286C82.7701 239.286 82.7041 239.286 82.6801 239.376C82.6495 239.454 82.6373 239.538 82.6446 239.621C82.6519 239.704 82.6784 239.785 82.7221 239.856C82.9561 240.258 83.7541 240.636 84.8881 240.882C84.3482 240.274 83.719 239.752 83.0221 239.334Z" fill="#263238"/>
<path d="M85.1999 241.2C85.1837 241.194 85.1693 241.183 85.1579 241.17C84.6059 240.624 83.7179 238.992 84.0239 238.47C84.0959 238.356 84.2399 238.236 84.5579 238.326C85.7579 238.674 85.3919 241.002 85.3739 241.104C85.3707 241.127 85.3603 241.149 85.3442 241.166C85.3281 241.184 85.307 241.195 85.2839 241.2C85.2707 241.206 85.2564 241.209 85.2419 241.209C85.2275 241.209 85.2131 241.206 85.1999 241.2ZM84.5999 238.596H84.5159C84.3899 238.56 84.3059 238.566 84.2759 238.596C84.0959 238.902 84.6659 240.132 85.1879 240.786C85.1999 240.21 85.2719 238.89 84.5999 238.596Z" fill="#263238"/>
<path d="M114.93 82.6861L114.024 82.0861C114.024 82.0861 114.294 83.0221 114.93 82.6861Z" fill="#263238"/>
</svg>
