<svg width="22" height="22" viewBox="0 0 22 22" fill="none" xmlns="http://www.w3.org/2000/svg">
<path d="M18.8901 8.36865H3.11065C2.79137 8.36932 2.47635 8.44199 2.18904 8.58124C1.90173 8.7205 1.64952 8.92276 1.45119 9.17297C1.25418 9.42287 1.1165 9.71425 1.04852 10.0251C0.980535 10.336 0.984038 10.6582 1.05876 10.9676L2.75065 17.8951C2.99517 18.7879 3.52711 19.5752 4.26416 20.1351C5.00146 20.6962 5.90417 21 6.83281 21H15.1658C16.0944 21 16.9971 20.6962 17.7344 20.1351C18.4715 19.5752 19.0034 18.7879 19.2479 17.8951L20.9398 10.9686C21.0537 10.5017 21.0038 10.0098 20.7983 9.57523C20.5928 9.1407 20.2444 8.78993 19.8112 8.58162C19.5234 8.44199 19.2078 8.36919 18.8879 8.36865M6.77011 12.5784V16.7892M11.0004 12.5784V16.7892M15.2307 12.5784V16.7892M18.4036 8.36865C18.4033 7.40005 18.2115 6.44107 17.8393 5.54683C17.4671 4.65258 16.9219 3.8407 16.235 3.15784C14.8439 1.775 12.9619 0.999178 11.0004 1C9.0389 0.999178 7.15688 1.775 5.76579 3.15784C5.07904 3.84079 4.53402 4.65271 4.16204 5.54695C3.79006 6.44119 3.59845 7.40013 3.59822 8.36865" stroke="#949494" stroke-width="1.62162" stroke-linecap="round" stroke-linejoin="round"/>
</svg>
