<svg width="374" height="154" viewBox="0 0 374 154" fill="none" xmlns="http://www.w3.org/2000/svg">
<path d="M310.317 16.8239C310.318 17.4093 310.121 17.9819 309.75 18.4693C309.379 18.9567 308.85 19.337 308.231 19.562C307.612 19.787 306.931 19.8467 306.273 19.7334C305.615 19.6202 305.011 19.3391 304.536 18.9257C304.061 18.5124 303.738 17.9853 303.606 17.4114C303.475 16.8374 303.541 16.2423 303.798 15.7014C304.054 15.1605 304.488 14.6981 305.045 14.3728C305.603 14.0474 306.258 13.8738 306.929 13.8737C307.826 13.8737 308.686 14.1843 309.321 14.7374C309.956 15.2904 310.314 16.0408 310.317 16.8239Z" fill="#60D290"/>
<path d="M227.786 20.9907C227.785 21.5739 227.585 22.1435 227.213 22.6276C226.84 23.1118 226.312 23.4887 225.694 23.7109C225.077 23.933 224.397 23.9903 223.742 23.8757C223.088 23.761 222.486 23.4794 222.015 23.0665C221.543 22.6536 221.222 22.1279 221.092 21.5558C220.962 20.9838 221.03 20.391 221.286 19.8523C221.542 19.3137 221.975 18.8534 222.531 18.5296C223.086 18.2057 223.739 18.0329 224.407 18.0329C224.852 18.0329 225.292 18.1095 225.702 18.2582C226.113 18.4069 226.486 18.6249 226.8 18.8997C227.114 19.1744 227.362 19.5006 227.532 19.8594C227.701 20.2182 227.787 20.6026 227.786 20.9907Z" fill="#60D290"/>
<path d="M184.614 59.0238C184.615 59.6091 184.418 60.1817 184.047 60.6691C183.676 61.1565 183.147 61.5368 182.528 61.7618C181.909 61.9869 181.228 62.0465 180.57 61.9333C179.912 61.82 179.308 61.5389 178.833 61.1255C178.358 60.7122 178.035 60.1852 177.903 59.6112C177.772 59.0373 177.839 58.4422 178.095 57.9012C178.351 57.3603 178.785 56.8979 179.343 56.5726C179.9 56.2473 180.555 56.0736 181.226 56.0736C181.67 56.0726 182.111 56.1482 182.522 56.296C182.933 56.4438 183.306 56.6609 183.621 56.935C183.936 57.209 184.185 57.5346 184.356 57.893C184.526 58.2515 184.614 58.6357 184.614 59.0238Z" fill="#60D290"/>
<path d="M14.8584 151.05C14.8584 151.633 14.6602 152.204 14.2888 152.689C13.9175 153.174 13.3898 153.552 12.7723 153.775C12.1548 153.999 11.4754 154.057 10.8198 153.943C10.1643 153.829 9.5622 153.549 9.08961 153.136C8.61701 152.723 8.29516 152.198 8.16477 151.625C8.03439 151.053 8.10131 150.46 8.35707 149.921C8.61284 149.382 9.04597 148.921 9.60168 148.597C10.1574 148.273 10.8107 148.1 11.4791 148.1C12.3746 148.102 13.2328 148.413 13.8661 148.966C14.4993 149.519 14.8561 150.268 14.8584 151.05Z" fill="#60D290"/>
<path d="M74.5265 3.00823C74.5265 3.59172 74.3284 4.16211 73.957 4.64727C73.5857 5.13242 73.058 5.51055 72.4405 5.73385C71.823 5.95714 71.1435 6.01556 70.488 5.90173C69.8325 5.7879 69.2304 5.50692 68.7578 5.09433C68.2852 4.68174 67.9634 4.15606 67.833 3.58378C67.7026 3.0115 67.7695 2.41832 68.0253 1.87924C68.281 1.34017 68.7142 0.879413 69.2699 0.555242C69.8256 0.231072 70.4789 0.0580444 71.1473 0.0580444C72.0428 0.0600517 72.901 0.37152 73.5342 0.924352C74.1675 1.47719 74.5242 2.22641 74.5265 3.00823Z" fill="#60D290"/>
<path d="M374 150.282C374.002 150.867 373.804 151.44 373.433 151.928C373.061 152.416 372.532 152.796 371.913 153.021C371.293 153.245 370.611 153.305 369.953 153.191C369.295 153.077 368.691 152.795 368.216 152.381C367.742 151.967 367.419 151.439 367.289 150.865C367.158 150.29 367.226 149.695 367.484 149.154C367.741 148.613 368.177 148.151 368.735 147.827C369.294 147.503 369.95 147.33 370.621 147.332C371.516 147.334 372.374 147.645 373.008 148.198C373.641 148.751 373.998 149.5 374 150.282Z" fill="#60D290"/>
<path d="M272.021 79.2568C270.264 79.2583 268.546 78.8048 267.084 77.9535C265.622 77.1022 264.482 75.8914 263.808 74.4744C263.134 73.0574 262.957 71.4978 263.299 69.9928C263.641 68.4879 264.486 67.1052 265.728 66.0198C266.97 64.9344 268.553 64.195 270.276 63.8951C272 63.5953 273.787 63.7484 275.41 64.3352C277.034 64.922 278.422 65.916 279.399 67.1916C280.375 68.4672 280.896 69.9669 280.896 71.5012C280.892 73.5556 279.955 75.5248 278.292 76.9781C276.629 78.4315 274.375 79.2508 272.021 79.2568ZM272.021 64.9773C270.543 64.9773 269.099 65.3599 267.87 66.0768C266.641 66.7936 265.683 67.8125 265.118 69.0046C264.552 70.1967 264.404 71.5084 264.692 72.7739C264.981 74.0394 265.692 75.2019 266.737 76.1143C267.783 77.0266 269.114 77.648 270.564 77.8997C272.013 78.1514 273.516 78.0222 274.881 77.5285C276.247 77.0347 277.414 76.1985 278.235 75.1257C279.056 74.0528 279.494 72.7915 279.494 71.5012C279.495 70.6435 279.303 69.7939 278.928 69.0011C278.553 68.2083 278.003 67.4877 277.309 66.8805C276.615 66.2733 275.791 65.7914 274.884 65.4622C273.977 65.133 273.004 64.9631 272.021 64.9621V64.9773Z" fill="#60D290"/>
<path d="M8.88361 38.8591C7.1266 38.8591 5.40905 38.4042 3.94814 37.552C2.48724 36.6998 1.34861 35.4885 0.67623 34.0714C0.00385038 32.6542 -0.172076 31.0948 0.1707 29.5904C0.513476 28.0859 1.35956 26.704 2.60195 25.6194C3.84435 24.5347 5.42726 23.7961 7.15051 23.4968C8.87376 23.1975 10.66 23.3511 12.2832 23.9381C13.9065 24.5252 15.2939 25.5192 16.2701 26.7946C17.2462 28.07 17.7672 29.5695 17.7672 31.1034C17.7649 33.1597 16.8282 35.1312 15.1627 36.5853C13.4972 38.0393 11.239 38.8571 8.88361 38.8591ZM8.88361 24.5796C7.40566 24.5796 5.96089 24.9622 4.73201 25.679C3.50314 26.3959 2.54534 27.4148 1.97975 28.6069C1.41416 29.7989 1.26618 31.1107 1.55451 32.3762C1.84285 33.6417 2.55456 34.8041 3.59963 35.7165C4.6447 36.6289 5.97621 37.2502 7.42577 37.5019C8.87533 37.7537 10.3778 37.6245 11.7433 37.1307C13.1087 36.6369 14.2758 35.8007 15.0969 34.7279C15.918 33.6551 16.3563 32.3937 16.3563 31.1034C16.354 29.3738 15.566 27.7156 14.1651 26.4926C12.7642 25.2696 10.8648 24.5816 8.88361 24.5796Z" fill="#60D290"/>
<path d="M364.359 57.9973C362.601 57.9988 360.883 57.5452 359.421 56.6939C357.959 55.8426 356.819 54.6319 356.145 53.2148C355.471 51.7978 355.294 50.2382 355.636 48.7332C355.978 47.2283 356.823 45.8456 358.065 44.7602C359.307 43.6748 360.89 42.9354 362.614 42.6355C364.337 42.3357 366.124 42.4888 367.747 43.0756C369.371 43.6624 370.759 44.6564 371.736 45.932C372.712 47.2076 373.234 48.7074 373.234 50.2416C373.231 52.2966 372.296 54.267 370.632 55.7208C368.968 57.1746 366.712 57.9932 364.359 57.9973ZM364.359 43.7177C362.878 43.7162 361.431 44.0982 360.199 44.8153C358.967 45.5324 358.007 46.5524 357.44 47.7462C356.872 48.94 356.723 50.2539 357.012 51.5216C357.3 52.7893 358.013 53.9538 359.06 54.8677C360.107 55.7816 361.44 56.4038 362.892 56.6555C364.345 56.9073 365.85 56.7773 367.217 56.282C368.584 55.7868 369.753 54.9484 370.574 53.8732C371.395 52.7979 371.833 51.5341 371.831 50.2416C371.829 48.512 371.041 46.8538 369.64 45.6308C368.239 44.4077 366.34 43.7198 364.359 43.7177Z" fill="#60D290"/>
<path d="M142.451 32.3276C140.694 32.3291 138.975 31.8753 137.513 31.0237C136.05 30.1721 134.91 28.9609 134.237 27.5434C133.563 26.126 133.387 24.5659 133.729 23.0608C134.072 21.5556 134.918 20.173 136.161 19.0879C137.404 18.0028 138.988 17.264 140.712 16.965C142.436 16.666 144.223 16.8202 145.846 17.4081C147.47 17.9961 148.857 18.9913 149.833 20.2679C150.808 21.5445 151.328 23.045 151.326 24.5796C151.324 26.6339 150.388 28.6034 148.724 30.056C147.06 31.5086 144.804 32.3256 142.451 32.3276ZM142.451 18.0557C140.973 18.0557 139.529 18.4383 138.3 19.1552C137.071 19.872 136.113 20.8909 135.547 22.083C134.982 23.2751 134.834 24.5868 135.122 25.8523C135.411 27.1178 136.122 28.2803 137.167 29.1926C138.212 30.105 139.544 30.7263 140.993 30.9781C142.443 31.2298 143.946 31.1006 145.311 30.6068C146.676 30.1131 147.844 29.2769 148.665 28.204C149.486 27.1312 149.924 25.8699 149.924 24.5796C149.922 22.8499 149.134 21.1917 147.733 19.9687C146.332 18.7457 144.432 18.0577 142.451 18.0557Z" fill="#60D290"/>
</svg>
