<svg width="46" height="43" viewBox="0 0 46 43" fill="none" xmlns="http://www.w3.org/2000/svg">
<path fill-rule="evenodd" clip-rule="evenodd" d="M46 23.8085H45.9739C46 25.4572 45.7029 27.2178 44.988 29.1039C38.7134 45.6562 16.1634 46.2431 13.8547 31.5513C11.546 16.862 2.22292 23.9619 0.155405 16.862C0.0161622 16.3798 -0.0248649 15.8453 0.0248649 15.2852H0L0.0236216 10.4245C0.287189 7.35367 3.61784 3.41956 12.609 2.19829C25.0725 0.503369 45.8719 7.3695 45.9739 20.2506L46 23.8085Z" fill="#D14937"/>
<mask id="mask0_0_1" style="mask-type:luminance" maskUnits="userSpaceOnUse" x="0" y="0" width="46" height="36">
<path fill-rule="evenodd" clip-rule="evenodd" d="M0 0H45.9986V35.2206H0V0Z" fill="white"/>
</mask>
<g mask="url(#mask0_0_1)">
<path fill-rule="evenodd" clip-rule="evenodd" d="M12.6151 0.292061C26.6463 -1.61058 51.2688 5.76427 44.9941 22.2805C38.7195 38.7968 16.1695 39.3824 13.8608 24.7226C11.5521 10.0653 2.22905 17.1497 0.161536 10.0653C-0.746031 6.95616 1.99283 1.73423 12.6151 0.292061Z" fill="#ED7161"/>
</g>
<path fill-rule="evenodd" clip-rule="evenodd" d="M29.5798 32.2846C29.4288 32.2846 29.2741 32.256 29.1242 32.1952C28.514 31.9463 28.2228 31.2542 28.4729 30.6479L36.8469 10.5073C37.0995 9.90222 37.7967 9.61515 38.4081 9.86291C39.0196 10.1131 39.3096 10.8051 39.0595 11.4103L30.6867 31.5508C30.4957 32.0094 30.0499 32.2846 29.5798 32.2846Z" fill="#D14937"/>
<path fill-rule="evenodd" clip-rule="evenodd" d="M20.7714 29.3485C20.6191 29.3485 20.4657 29.3211 20.3158 29.2592C19.7044 29.0102 19.4132 28.3182 19.6645 27.713L28.0372 7.57131C28.2897 6.96619 28.987 6.67911 29.5996 6.92688C30.211 7.17703 30.501 7.8691 30.2497 8.47423L21.877 28.6148C21.6873 29.0734 21.2402 29.3485 20.7714 29.3485Z" fill="#D14937"/>
<path fill-rule="evenodd" clip-rule="evenodd" d="M15.7987 20.5397C15.6439 20.5397 15.4869 20.5058 15.3366 20.4319C14.7738 20.157 14.5264 19.4425 14.7817 18.837L20.3741 5.58678C20.6283 4.98247 21.286 4.7124 21.8555 4.98852C22.4183 5.26464 22.6657 5.97917 22.4104 6.5847L16.818 19.8337C16.6304 20.2769 16.2247 20.5397 15.7987 20.5397Z" fill="#D14937"/>
<path fill-rule="evenodd" clip-rule="evenodd" d="M9.19898 12.7101C8.99415 12.7101 8.78516 12.6695 8.58725 12.5822C7.91047 12.2783 7.63644 11.5452 7.97552 10.9401L12.0846 3.59917C12.4251 2.99522 13.2458 2.75044 13.924 3.0518C14.6007 3.35439 14.8748 4.08873 14.5357 4.69268L10.4266 12.0336C10.1844 12.4628 9.70276 12.7101 9.19898 12.7101Z" fill="#D14937"/>
</svg>
